<?xml version="1.0" encoding="UTF-8" standalone="no"?>
<!DOCTYPE svg PUBLIC "-//W3C//DTD SVG 1.1//EN"
 "http://www.w3.org/Graphics/SVG/1.1/DTD/svg11.dtd">
<!-- Generated by graphviz version 2.40.1 (20161225.0304)
 -->
<!-- Title: finite_state_machine Pages: 1 -->
<svg width="160pt" height="118pt"
 viewBox="0.00 0.00 159.60 117.69" xmlns="http://www.w3.org/2000/svg" xmlns:xlink="http://www.w3.org/1999/xlink">
<g id="graph0" class="graph" transform="scale(1 1) rotate(0) translate(4 113.6935)">
<title>finite_state_machine</title>
<polygon fill="#ffffff" stroke="transparent" points="-4,4 -4,-113.6935 155.6015,-113.6935 155.6015,4 -4,4"/>
<!-- q6 -->
<g id="node1" class="node">
<title>q6</title>
<ellipse fill="none" stroke="#000000" cx="27" cy="-85" rx="20.8568" ry="20.8568"/>
<ellipse fill="none" stroke="#000000" cx="27" cy="-85" rx="24.8884" ry="24.8884"/>
<text text-anchor="middle" x="27" y="-80.8" font-family="Times,serif" font-size="14.00" fill="#000000">q6</text>
</g>
<!-- q5 -->
<g id="node3" class="node">
<title>q5</title>
<ellipse fill="none" stroke="#000000" cx="130.9081" cy="-51" rx="20.8887" ry="20.8887"/>
<text text-anchor="middle" x="130.9081" y="-46.8" font-family="Times,serif" font-size="14.00" fill="#000000">q5</text>
</g>
<!-- q6&#45;&gt;q5 -->
<g id="edge3" class="edge">
<title>q6&#45;&gt;q5</title>
<path fill="none" stroke="#000000" d="M51.486,-80.1787C63.8626,-77.4445 79.0168,-73.6389 92.2146,-69 95.7793,-67.747 99.4594,-66.2789 103.0674,-64.731"/>
<polygon fill="#000000" stroke="#000000" points="104.6552,-67.8543 112.3209,-60.5407 101.7675,-61.4776 104.6552,-67.8543"/>
<text text-anchor="middle" x="82.1073" y="-79.2" font-family="Times,serif" font-size="14.00" fill="#000000">a, b</text>
</g>
<g id="node2" class="node">
<title></title>
</g>
<!-- &#45;&gt;q5 -->
<g id="edge1" class="edge">
<title>&#45;&gt;q5</title>
<path fill="none" stroke="#000000" d="M54.0586,-22.2703C65.9475,-24.5377 79.9616,-27.7488 92.2146,-32 96.0039,-33.3147 99.9024,-34.9117 103.6984,-36.6151"/>
<polygon fill="#000000" stroke="#000000" points="102.2709,-39.812 112.8024,-40.9685 105.2907,-33.4969 102.2709,-39.812"/>
</g>
<!-- q5&#45;&gt;q6 -->
<g id="edge2" class="edge">
<title>q5&#45;&gt;q6</title>
<path fill="none" stroke="#000000" d="M110.2125,-48.4292C98.6749,-47.7281 84.2136,-48.0831 72,-52.2 65.4756,-54.3992 59.0985,-57.9133 53.2919,-61.8405"/>
<polygon fill="#000000" stroke="#000000" points="51.2073,-59.029 45.2418,-67.7848 55.3654,-64.6601 51.2073,-59.029"/>
<text text-anchor="middle" x="82.1073" y="-57.2" font-family="Times,serif" font-size="14.00" fill="#000000">a, b</text>
</g>
</g>
</svg>
