<?xml version="1.0" encoding="UTF-8" standalone="no"?>
<!DOCTYPE svg PUBLIC "-//W3C//DTD SVG 1.1//EN"
 "http://www.w3.org/Graphics/SVG/1.1/DTD/svg11.dtd">
<!-- Generated by graphviz version 2.40.1 (20161225.0304)
 -->
<!-- Title: finite_state_machine Pages: 1 -->
<svg width="583pt" height="105pt"
 viewBox="0.00 0.00 582.50 105.08" xmlns="http://www.w3.org/2000/svg" xmlns:xlink="http://www.w3.org/1999/xlink">
<g id="graph0" class="graph" transform="scale(1 1) rotate(0) translate(4 101.0759)">
<title>finite_state_machine</title>
<polygon fill="#ffffff" stroke="transparent" points="-4,4 -4,-101.0759 578.504,-101.0759 578.504,4 -4,4"/>
<!-- q4q6 -->
<g id="node1" class="node">
<title>q4q6</title>
<ellipse fill="none" stroke="#000000" cx="436.4528" cy="-41.2759" rx="30.2188" ry="30.2188"/>
<ellipse fill="none" stroke="#000000" cx="436.4528" cy="-41.2759" rx="34.2014" ry="34.2014"/>
<text text-anchor="middle" x="436.4528" y="-37.0759" font-family="Times,serif" font-size="14.00" fill="#000000">q4q6</text>
</g>
<!-- q4q5 -->
<g id="node6" class="node">
<title>q4q5</title>
<ellipse fill="none" stroke="#000000" cx="544.1536" cy="-41.2759" rx="30.2015" ry="30.2015"/>
<text text-anchor="middle" x="544.1536" y="-37.0759" font-family="Times,serif" font-size="14.00" fill="#000000">q4q5</text>
</g>
<!-- q4q6&#45;&gt;q4q5 -->
<g id="edge6" class="edge">
<title>q4q6&#45;&gt;q4q5</title>
<path fill="none" stroke="#000000" d="M461.8151,-64.551C469.8653,-70.5313 479.1897,-76.1546 488.8032,-79.2759 498.8849,-82.5492 508.7884,-78.702 517.3682,-72.38"/>
<polygon fill="#000000" stroke="#000000" points="519.8342,-74.8761 525.1512,-65.712 515.2799,-69.5602 519.8342,-74.8761"/>
<text text-anchor="middle" x="492.3032" y="-84.4759" font-family="Times,serif" font-size="14.00" fill="#000000">a</text>
</g>
<!-- q4q6&#45;&gt;q4q5 -->
<g id="edge11" class="edge">
<title>q4q6&#45;&gt;q4q5</title>
<path fill="none" stroke="#000000" d="M470.8261,-41.2759C481.2761,-41.2759 492.8571,-41.2759 503.6704,-41.2759"/>
<polygon fill="#000000" stroke="#000000" points="503.7407,-44.776 513.7407,-41.2759 503.7406,-37.776 503.7407,-44.776"/>
<text text-anchor="middle" x="492.3032" y="-45.4759" font-family="Times,serif" font-size="14.00" fill="#000000">b</text>
</g>
<g id="node2" class="node">
<title></title>
</g>
<!-- q1q5 -->
<g id="node3" class="node">
<title>q1q5</title>
<ellipse fill="none" stroke="#000000" cx="121.3504" cy="-41.2759" rx="30.2015" ry="30.2015"/>
<text text-anchor="middle" x="121.3504" y="-37.0759" font-family="Times,serif" font-size="14.00" fill="#000000">q1q5</text>
</g>
<!-- &#45;&gt;q1q5 -->
<g id="edge1" class="edge">
<title>&#45;&gt;q1q5</title>
<path fill="none" stroke="#000000" d="M54.037,-41.2759C62.4246,-41.2759 71.8578,-41.2759 80.9483,-41.2759"/>
<polygon fill="#000000" stroke="#000000" points="80.9923,-44.776 90.9922,-41.2759 80.9922,-37.776 80.9923,-44.776"/>
</g>
<!-- q2q6 -->
<g id="node4" class="node">
<title>q2q6</title>
<ellipse fill="none" stroke="#000000" cx="225.0512" cy="-41.2759" rx="30.2015" ry="30.2015"/>
<text text-anchor="middle" x="225.0512" y="-37.0759" font-family="Times,serif" font-size="14.00" fill="#000000">q2q6</text>
</g>
<!-- q1q5&#45;&gt;q2q6 -->
<g id="edge2" class="edge">
<title>q1q5&#45;&gt;q2q6</title>
<path fill="none" stroke="#000000" d="M151.9032,-41.2759C162.0448,-41.2759 173.5021,-41.2759 184.288,-41.2759"/>
<polygon fill="#000000" stroke="#000000" points="184.3585,-44.776 194.3584,-41.2759 184.3584,-37.776 184.3585,-44.776"/>
<text text-anchor="middle" x="173.2008" y="-45.4759" font-family="Times,serif" font-size="14.00" fill="#000000">a</text>
</g>
<!-- q1q5&#45;&gt;q2q6 -->
<g id="edge7" class="edge">
<title>q1q5&#45;&gt;q2q6</title>
<path fill="none" stroke="#000000" d="M148.5893,-27.2843C155.3191,-24.4705 162.6302,-21.9322 169.7008,-20.4759 176.2331,-19.1304 183.0147,-19.8075 189.4984,-21.5673"/>
<polygon fill="#000000" stroke="#000000" points="188.7685,-25.023 199.3631,-25.0886 191.1218,-18.4304 188.7685,-25.023"/>
<text text-anchor="middle" x="173.2008" y="-25.4759" font-family="Times,serif" font-size="14.00" fill="#000000">b</text>
</g>
<!-- q3q5 -->
<g id="node5" class="node">
<title>q3q5</title>
<ellipse fill="none" stroke="#000000" cx="328.752" cy="-41.2759" rx="30.2015" ry="30.2015"/>
<text text-anchor="middle" x="328.752" y="-37.0759" font-family="Times,serif" font-size="14.00" fill="#000000">q3q5</text>
</g>
<!-- q2q6&#45;&gt;q3q5 -->
<g id="edge3" class="edge">
<title>q2q6&#45;&gt;q3q5</title>
<path fill="none" stroke="#000000" d="M255.604,-41.2759C265.7456,-41.2759 277.2029,-41.2759 287.9888,-41.2759"/>
<polygon fill="#000000" stroke="#000000" points="288.0593,-44.776 298.0592,-41.2759 288.0592,-37.776 288.0593,-44.776"/>
<text text-anchor="middle" x="276.9016" y="-45.4759" font-family="Times,serif" font-size="14.00" fill="#000000">a</text>
</g>
<!-- q2q6&#45;&gt;q3q5 -->
<g id="edge8" class="edge">
<title>q2q6&#45;&gt;q3q5</title>
<path fill="none" stroke="#000000" d="M250.7393,-25.0886C259.9147,-21.0718 270.4476,-18.4257 280.4016,-20.4759 284.2683,-21.2723 288.207,-22.3923 292.0831,-23.704"/>
<polygon fill="#000000" stroke="#000000" points="290.9219,-27.0069 301.5131,-27.2843 293.4066,-20.4627 290.9219,-27.0069"/>
<text text-anchor="middle" x="276.9016" y="-25.4759" font-family="Times,serif" font-size="14.00" fill="#000000">b</text>
</g>
<!-- q3q5&#45;&gt;q4q6 -->
<g id="edge4" class="edge">
<title>q3q5&#45;&gt;q4q6</title>
<path fill="none" stroke="#000000" d="M359.3266,-41.2759C369.412,-41.2759 380.8462,-41.2759 391.7629,-41.2759"/>
<polygon fill="#000000" stroke="#000000" points="392.01,-44.776 402.01,-41.2759 392.0099,-37.776 392.01,-44.776"/>
<text text-anchor="middle" x="380.6024" y="-45.4759" font-family="Times,serif" font-size="14.00" fill="#000000">a</text>
</g>
<!-- q3q5&#45;&gt;q4q6 -->
<g id="edge9" class="edge">
<title>q3q5&#45;&gt;q4q6</title>
<path fill="none" stroke="#000000" d="M355.9908,-27.2843C362.7207,-24.4705 370.0318,-21.9322 377.1024,-20.4759 383.4886,-19.1605 390.1251,-19.5907 396.5475,-21.0237"/>
<polygon fill="#000000" stroke="#000000" points="395.8122,-24.4576 406.3969,-23.9941 397.8334,-17.7557 395.8122,-24.4576"/>
<text text-anchor="middle" x="380.6024" y="-25.4759" font-family="Times,serif" font-size="14.00" fill="#000000">b</text>
</g>
<!-- q4q5&#45;&gt;q4q6 -->
<g id="edge5" class="edge">
<title>q4q5&#45;&gt;q4q6</title>
<path fill="none" stroke="#000000" d="M516.5479,-28.5266C509.8934,-26.0222 502.7077,-23.771 495.8032,-22.4759 489.7463,-21.3398 483.4434,-21.6423 477.3045,-22.7989"/>
<polygon fill="#000000" stroke="#000000" points="475.9855,-19.5264 467.2004,-25.4487 477.7612,-26.2974 475.9855,-19.5264"/>
<text text-anchor="middle" x="492.3032" y="-27.4759" font-family="Times,serif" font-size="14.00" fill="#000000">a</text>
</g>
<!-- q4q5&#45;&gt;q4q6 -->
<g id="edge10" class="edge">
<title>q4q5&#45;&gt;q4q6</title>
<path fill="none" stroke="#000000" d="M526.2746,-16.7054C516.132,-5.9807 502.7112,3.2106 488.8032,-1.4759 482.1155,-3.7294 475.6054,-7.2151 469.5769,-11.2064"/>
<polygon fill="#000000" stroke="#000000" points="467.1682,-8.6295 461.1245,-17.3315 471.2757,-14.2977 467.1682,-8.6295"/>
<text text-anchor="middle" x="492.3032" y="-6.4759" font-family="Times,serif" font-size="14.00" fill="#000000">b</text>
</g>
</g>
</svg>
