<?xml version="1.0" encoding="UTF-8" standalone="no"?>
<!DOCTYPE svg PUBLIC "-//W3C//DTD SVG 1.1//EN"
 "http://www.w3.org/Graphics/SVG/1.1/DTD/svg11.dtd">
<!-- Generated by graphviz version 2.40.1 (20161225.0304)
 -->
<!-- Title: finite_state_machine Pages: 1 -->
<svg width="717pt" height="263pt"
 viewBox="0.00 0.00 717.42 262.80" xmlns="http://www.w3.org/2000/svg" xmlns:xlink="http://www.w3.org/1999/xlink">
<g id="graph0" class="graph" transform="scale(1 1) rotate(0) translate(4 258.8)">
<title>finite_state_machine</title>
<polygon fill="#ffffff" stroke="transparent" points="-4,4 -4,-258.8 713.4194,-258.8 713.4194,4 -4,4"/>
<g id="node1" class="node">
<title></title>
</g>
<!-- q1q3 -->
<g id="node7" class="node">
<title>q1q3</title>
<ellipse fill="none" stroke="#000000" cx="121.3504" cy="-158" rx="30.2015" ry="30.2015"/>
<text text-anchor="middle" x="121.3504" y="-153.8" font-family="Times,serif" font-size="14.00" fill="#000000">q1q3</text>
</g>
<!-- &#45;&gt;q1q3 -->
<g id="edge1" class="edge">
<title>&#45;&gt;q1q3</title>
<path fill="none" stroke="#000000" d="M54.037,-158C62.4246,-158 71.8578,-158 80.9483,-158"/>
<polygon fill="#000000" stroke="#000000" points="80.9923,-161.5001 90.9922,-158 80.9922,-154.5001 80.9923,-161.5001"/>
</g>
<!-- q1q4 -->
<g id="node2" class="node">
<title>q1q4</title>
<ellipse fill="none" stroke="#000000" cx="229.0512" cy="-58" rx="30.2188" ry="30.2188"/>
<ellipse fill="none" stroke="#000000" cx="229.0512" cy="-58" rx="34.2014" ry="34.2014"/>
<text text-anchor="middle" x="229.0512" y="-53.8" font-family="Times,serif" font-size="14.00" fill="#000000">q1q4</text>
</g>
<!-- q1q5 -->
<g id="node3" class="node">
<title>q1q5</title>
<ellipse fill="none" stroke="#000000" cx="340.752" cy="-115" rx="30.2188" ry="30.2188"/>
<ellipse fill="none" stroke="#000000" cx="340.752" cy="-115" rx="34.2014" ry="34.2014"/>
<text text-anchor="middle" x="340.752" y="-110.8" font-family="Times,serif" font-size="14.00" fill="#000000">q1q5</text>
</g>
<!-- q1q4&#45;&gt;q1q5 -->
<g id="edge7" class="edge">
<title>q1q4&#45;&gt;q1q5</title>
<path fill="none" stroke="#000000" d="M259.8696,-73.7264C272.5668,-80.2057 287.4404,-87.7955 300.9461,-94.6874"/>
<polygon fill="#000000" stroke="#000000" points="299.5359,-97.8971 310.0341,-99.3249 302.7177,-91.662 299.5359,-97.8971"/>
<text text-anchor="middle" x="284.9016" y="-93.2" font-family="Times,serif" font-size="14.00" fill="#000000">b</text>
</g>
<!-- q2q4 -->
<g id="node5" class="node">
<title>q2q4</title>
<ellipse fill="none" stroke="#000000" cx="675.069" cy="-76" rx="30.2188" ry="30.2188"/>
<ellipse fill="none" stroke="#000000" cx="675.069" cy="-76" rx="34.2014" ry="34.2014"/>
<text text-anchor="middle" x="675.069" y="-71.8" font-family="Times,serif" font-size="14.00" fill="#000000">q2q4</text>
</g>
<!-- q1q4&#45;&gt;q2q4 -->
<g id="edge6" class="edge">
<title>q1q4&#45;&gt;q2q4</title>
<path fill="none" stroke="#000000" d="M263.7506,-55.6464C285.7932,-54.3496 314.9341,-53 340.752,-53 340.752,-53 340.752,-53 563.3682,-53 586.5086,-53 611.8018,-57.7939 632.4589,-63.0045"/>
<polygon fill="#000000" stroke="#000000" points="631.6353,-66.4069 642.1975,-65.5767 633.4229,-59.639 631.6353,-66.4069"/>
<text text-anchor="middle" x="451.6674" y="-57.2" font-family="Times,serif" font-size="14.00" fill="#000000">a</text>
</g>
<!-- q2q5 -->
<g id="node6" class="node">
<title>q2q5</title>
<ellipse fill="none" stroke="#000000" cx="451.6674" cy="-123" rx="30.2188" ry="30.2188"/>
<ellipse fill="none" stroke="#000000" cx="451.6674" cy="-123" rx="34.2014" ry="34.2014"/>
<text text-anchor="middle" x="451.6674" y="-118.8" font-family="Times,serif" font-size="14.00" fill="#000000">q2q5</text>
</g>
<!-- q1q5&#45;&gt;q2q5 -->
<g id="edge10" class="edge">
<title>q1q5&#45;&gt;q2q5</title>
<path fill="none" stroke="#000000" d="M375.2383,-117.4874C385.3585,-118.2173 396.5714,-119.0261 407.2199,-119.7941"/>
<polygon fill="#000000" stroke="#000000" points="406.9765,-123.2856 417.2024,-120.5141 407.4801,-116.3037 406.9765,-123.2856"/>
<text text-anchor="middle" x="396.2097" y="-123.2" font-family="Times,serif" font-size="14.00" fill="#000000">a</text>
</g>
<!-- q1q5&#45;&gt;q1q3 -->
<g id="edge11" class="edge">
<title>q1q5&#45;&gt;q1q3</title>
<path fill="none" stroke="#000000" d="M306.7506,-121.6638C267.5268,-129.3512 203.104,-141.9773 161.4637,-150.1383"/>
<polygon fill="#000000" stroke="#000000" points="160.5373,-146.7532 151.3972,-152.1112 161.8837,-153.6225 160.5373,-146.7532"/>
<text text-anchor="middle" x="229.0512" y="-147.2" font-family="Times,serif" font-size="14.00" fill="#000000">b</text>
</g>
<!-- q2q3 -->
<g id="node4" class="node">
<title>q2q3</title>
<ellipse fill="none" stroke="#000000" cx="563.3682" cy="-179" rx="30.2188" ry="30.2188"/>
<ellipse fill="none" stroke="#000000" cx="563.3682" cy="-179" rx="34.2014" ry="34.2014"/>
<text text-anchor="middle" x="563.3682" y="-174.8" font-family="Times,serif" font-size="14.00" fill="#000000">q2q3</text>
</g>
<!-- q2q3&#45;&gt;q2q4 -->
<g id="edge13" class="edge">
<title>q2q3&#45;&gt;q2q4</title>
<path fill="none" stroke="#000000" d="M588.7148,-155.6277C604.4558,-141.1128 624.8601,-122.2979 641.882,-106.6019"/>
<polygon fill="#000000" stroke="#000000" points="644.457,-108.9884 649.436,-99.6363 639.7117,-103.8423 644.457,-108.9884"/>
<text text-anchor="middle" x="619.2186" y="-134.2" font-family="Times,serif" font-size="14.00" fill="#000000">b</text>
</g>
<!-- q2q3&#45;&gt;q1q3 -->
<g id="edge12" class="edge">
<title>q2q3&#45;&gt;q1q3</title>
<path fill="none" stroke="#000000" d="M528.6766,-181.8243C506.6371,-183.3805 477.4966,-185 451.6674,-185 229.0512,-185 229.0512,-185 229.0512,-185 205.362,-185 179.5978,-178.7781 159.2098,-172.3079"/>
<polygon fill="#000000" stroke="#000000" points="160.2591,-168.9685 149.6656,-169.1378 158.0525,-175.6116 160.2591,-168.9685"/>
<text text-anchor="middle" x="340.752" y="-189.2" font-family="Times,serif" font-size="14.00" fill="#000000">a</text>
</g>
<!-- q2q4&#45;&gt;q1q4 -->
<g id="edge4" class="edge">
<title>q2q4&#45;&gt;q1q4</title>
<path fill="none" stroke="#000000" d="M653.2046,-49.4189C632.5745,-27.5027 599.4897,0 563.3682,0 340.752,0 340.752,0 340.752,0 312.5208,0 284.3344,-14.773 263.3382,-29.4075"/>
<polygon fill="#000000" stroke="#000000" points="261.1154,-26.6964 255.0879,-35.4096 265.2335,-32.3569 261.1154,-26.6964"/>
<text text-anchor="middle" x="451.6674" y="-4.2" font-family="Times,serif" font-size="14.00" fill="#000000">a</text>
</g>
<!-- q2q4&#45;&gt;q2q5 -->
<g id="edge5" class="edge">
<title>q2q4&#45;&gt;q2q5</title>
<path fill="none" stroke="#000000" d="M641.1865,-83.1283C602.2208,-91.326 538.1441,-104.8067 495.4335,-113.7923"/>
<polygon fill="#000000" stroke="#000000" points="494.6625,-110.3778 485.5973,-115.8617 496.1037,-117.2279 494.6625,-110.3778"/>
<text text-anchor="middle" x="563.3682" y="-111.2" font-family="Times,serif" font-size="14.00" fill="#000000">b</text>
</g>
<!-- q2q5&#45;&gt;q1q5 -->
<g id="edge8" class="edge">
<title>q2q5&#45;&gt;q1q5</title>
<path fill="none" stroke="#000000" d="M420.7434,-107.7769C413.8492,-105.0521 406.4611,-102.6281 399.317,-101.2 393.9392,-100.125 388.3041,-100.0713 382.7434,-100.6653"/>
<polygon fill="#000000" stroke="#000000" points="382.1519,-97.2155 372.8861,-102.3531 383.3333,-104.1151 382.1519,-97.2155"/>
<text text-anchor="middle" x="396.2097" y="-106.2" font-family="Times,serif" font-size="14.00" fill="#000000">a</text>
</g>
<!-- q2q5&#45;&gt;q2q3 -->
<g id="edge9" class="edge">
<title>q2q5&#45;&gt;q2q3</title>
<path fill="none" stroke="#000000" d="M482.4858,-138.4505C495.183,-144.8161 510.0566,-152.2728 523.5623,-159.0437"/>
<polygon fill="#000000" stroke="#000000" points="522.1422,-162.247 532.6503,-163.5999 525.2795,-155.9894 522.1422,-162.247"/>
<text text-anchor="middle" x="507.5178" y="-156.2" font-family="Times,serif" font-size="14.00" fill="#000000">b</text>
</g>
<!-- q1q3&#45;&gt;q1q4 -->
<g id="edge3" class="edge">
<title>q1q3&#45;&gt;q1q4</title>
<path fill="none" stroke="#000000" d="M141.0687,-134.906C149.5574,-125.3847 159.7935,-114.4409 169.7008,-105.2 177.1379,-98.2632 185.4909,-91.2149 193.5298,-84.7541"/>
<polygon fill="#000000" stroke="#000000" points="195.7462,-87.4636 201.4185,-78.5151 191.4039,-81.9732 195.7462,-87.4636"/>
<text text-anchor="middle" x="173.2008" y="-110.2" font-family="Times,serif" font-size="14.00" fill="#000000">b</text>
</g>
<!-- q1q3&#45;&gt;q2q3 -->
<g id="edge2" class="edge">
<title>q1q3&#45;&gt;q2q3</title>
<path fill="none" stroke="#000000" d="M139.3447,-182.874C158.6209,-206.3582 191.551,-238 229.0512,-238 229.0512,-238 229.0512,-238 451.6674,-238 480.0027,-238 508.1881,-222.9723 529.1578,-208.0854"/>
<polygon fill="#000000" stroke="#000000" points="531.4458,-210.7462 537.3958,-201.9799 527.2777,-205.1224 531.4458,-210.7462"/>
<text text-anchor="middle" x="340.752" y="-242.2" font-family="Times,serif" font-size="14.00" fill="#000000">a</text>
</g>
</g>
</svg>
