<?xml version="1.0" encoding="UTF-8" standalone="no"?>
<!DOCTYPE svg PUBLIC "-//W3C//DTD SVG 1.1//EN"
 "http://www.w3.org/Graphics/SVG/1.1/DTD/svg11.dtd">
<!-- Generated by graphviz version 2.40.1 (20161225.0304)
 -->
<!-- Title: finite_state_machine Pages: 1 -->
<svg width="1463pt" height="554pt"
 viewBox="0.00 0.00 1462.58 554.18" xmlns="http://www.w3.org/2000/svg" xmlns:xlink="http://www.w3.org/1999/xlink">
<g id="graph0" class="graph" transform="scale(1 1) rotate(0) translate(4 550.1789)">
<title>finite_state_machine</title>
<polygon fill="#ffffff" stroke="transparent" points="-4,4 -4,-550.1789 1458.5805,-550.1789 1458.5805,4 -4,4"/>
<g id="node1" class="node">
<title></title>
</g>
<!-- q1q6 -->
<g id="node7" class="node">
<title>q1q6</title>
<ellipse fill="none" stroke="#000000" cx="126.1789" cy="-150" rx="30.2015" ry="30.2015"/>
<text text-anchor="middle" x="126.1789" y="-145.8" font-family="Times,serif" font-size="14.00" fill="#000000">q1q6</text>
</g>
<!-- &#45;&gt;q1q6 -->
<g id="edge1" class="edge">
<title>&#45;&gt;q1q6</title>
<path fill="none" stroke="#000000" d="M54.1011,-150C63.7365,-150 74.809,-150 85.3381,-150"/>
<polygon fill="#000000" stroke="#000000" points="85.6127,-153.5001 95.6127,-150 85.6126,-146.5001 85.6127,-153.5001"/>
</g>
<!-- q4q7 -->
<g id="node2" class="node">
<title>q4q7</title>
<ellipse fill="none" stroke="#000000" cx="465.4236" cy="-131" rx="30.2188" ry="30.2188"/>
<ellipse fill="none" stroke="#000000" cx="465.4236" cy="-131" rx="34.2014" ry="34.2014"/>
<text text-anchor="middle" x="465.4236" y="-126.8" font-family="Times,serif" font-size="14.00" fill="#000000">q4q7</text>
</g>
<!-- q5q11 -->
<g id="node27" class="node">
<title>q5q11</title>
<ellipse fill="none" stroke="#000000" cx="577.9529" cy="-101" rx="35.3587" ry="35.3587"/>
<text text-anchor="middle" x="577.9529" y="-96.8" font-family="Times,serif" font-size="14.00" fill="#000000">q5q11</text>
</g>
<!-- q4q7&#45;&gt;q5q11 -->
<g id="edge39" class="edge">
<title>q4q7&#45;&gt;q5q11</title>
<path fill="none" stroke="#000000" d="M490.4493,-107.4451C498.5579,-101.2634 507.9985,-95.4277 517.774,-92.2 522.8452,-90.5256 528.2616,-89.8563 533.6888,-89.8604"/>
<polygon fill="#000000" stroke="#000000" points="533.8244,-93.3793 544.0511,-90.6108 534.33,-86.3975 533.8244,-93.3793"/>
<text text-anchor="middle" x="521.274" y="-96.2" font-family="Times,serif" font-size="14.00" fill="#000000">a</text>
</g>
<!-- q5q8 -->
<g id="node29" class="node">
<title>q5q8</title>
<ellipse fill="none" stroke="#000000" cx="804.6684" cy="-225" rx="30.2015" ry="30.2015"/>
<text text-anchor="middle" x="804.6684" y="-220.8" font-family="Times,serif" font-size="14.00" fill="#000000">q5q8</text>
</g>
<!-- q4q7&#45;&gt;q5q8 -->
<g id="edge45" class="edge">
<title>q4q7&#45;&gt;q5q8</title>
<path fill="none" stroke="#000000" d="M499.4513,-137.216C567.7278,-149.7299 715.8453,-177.1034 726.4895,-181 741.5812,-186.5248 757.2084,-194.7444 770.4875,-202.5889"/>
<polygon fill="#000000" stroke="#000000" points="768.906,-205.7232 779.2701,-207.922 772.5392,-199.74 768.906,-205.7232"/>
<text text-anchor="middle" x="634.6318" y="-166.2" font-family="Times,serif" font-size="14.00" fill="#000000">b</text>
</g>
<!-- q4q8 -->
<g id="node3" class="node">
<title>q4q8</title>
<ellipse fill="none" stroke="#000000" cx="1195.957" cy="-306" rx="30.2188" ry="30.2188"/>
<ellipse fill="none" stroke="#000000" cx="1195.957" cy="-306" rx="34.2014" ry="34.2014"/>
<text text-anchor="middle" x="1195.957" y="-301.8" font-family="Times,serif" font-size="14.00" fill="#000000">q4q8</text>
</g>
<!-- q5q9 -->
<g id="node28" class="node">
<title>q5q9</title>
<ellipse fill="none" stroke="#000000" cx="1088.2562" cy="-378" rx="30.2015" ry="30.2015"/>
<text text-anchor="middle" x="1088.2562" y="-373.8" font-family="Times,serif" font-size="14.00" fill="#000000">q5q9</text>
</g>
<!-- q4q8&#45;&gt;q5q9 -->
<g id="edge40" class="edge">
<title>q4q8&#45;&gt;q5q9</title>
<path fill="none" stroke="#000000" d="M1168.2547,-326.7163C1160.3766,-332.4408 1151.7288,-338.5692 1143.6066,-344 1137.0148,-348.4075 1129.8685,-352.9588 1122.9695,-357.2423"/>
<polygon fill="#000000" stroke="#000000" points="1121.111,-354.2764 1114.4236,-362.494 1124.7759,-360.2403 1121.111,-354.2764"/>
<text text-anchor="middle" x="1140.1066" y="-351.2" font-family="Times,serif" font-size="14.00" fill="#000000">a</text>
</g>
<!-- q5q6 -->
<g id="node30" class="node">
<title>q5q6</title>
<ellipse fill="none" stroke="#000000" cx="1303.6578" cy="-224" rx="30.2015" ry="30.2015"/>
<text text-anchor="middle" x="1303.6578" y="-219.8" font-family="Times,serif" font-size="14.00" fill="#000000">q5q6</text>
</g>
<!-- q4q8&#45;&gt;q5q6 -->
<g id="edge46" class="edge">
<title>q4q8&#45;&gt;q5q6</title>
<path fill="none" stroke="#000000" d="M1223.4131,-285.0958C1237.9264,-274.0458 1255.838,-260.4085 1271.054,-248.8234"/>
<polygon fill="#000000" stroke="#000000" points="1273.3552,-251.4704 1279.1914,-242.6279 1269.1148,-245.9009 1273.3552,-251.4704"/>
<text text-anchor="middle" x="1251.8074" y="-269.2" font-family="Times,serif" font-size="14.00" fill="#000000">b</text>
</g>
<!-- q4q9 -->
<g id="node4" class="node">
<title>q4q9</title>
<ellipse fill="none" stroke="#000000" cx="691.3106" cy="-224" rx="30.2188" ry="30.2188"/>
<ellipse fill="none" stroke="#000000" cx="691.3106" cy="-224" rx="34.2014" ry="34.2014"/>
<text text-anchor="middle" x="691.3106" y="-219.8" font-family="Times,serif" font-size="14.00" fill="#000000">q4q9</text>
</g>
<!-- q5q10 -->
<g id="node26" class="node">
<title>q5q10</title>
<ellipse fill="none" stroke="#000000" cx="804.6684" cy="-141" rx="35.3587" ry="35.3587"/>
<text text-anchor="middle" x="804.6684" y="-136.8" font-family="Times,serif" font-size="14.00" fill="#000000">q5q10</text>
</g>
<!-- q4q9&#45;&gt;q5q10 -->
<g id="edge47" class="edge">
<title>q4q9&#45;&gt;q5q10</title>
<path fill="none" stroke="#000000" d="M717.7287,-201.9746C726.1577,-195.1547 735.6052,-187.7227 744.4895,-181.2 751.4777,-176.0693 759.0706,-170.784 766.4347,-165.8001"/>
<polygon fill="#000000" stroke="#000000" points="768.5625,-168.5875 774.9243,-160.1152 764.6677,-162.7711 768.5625,-168.5875"/>
<text text-anchor="middle" x="747.9895" y="-185.2" font-family="Times,serif" font-size="14.00" fill="#000000">b</text>
</g>
<!-- q4q9&#45;&gt;q5q8 -->
<g id="edge41" class="edge">
<title>q4q9&#45;&gt;q5q8</title>
<path fill="none" stroke="#000000" d="M725.9376,-224.3055C737.9423,-224.4114 751.5107,-224.5311 763.9597,-224.6409"/>
<polygon fill="#000000" stroke="#000000" points="764.0643,-228.1418 774.0948,-224.7303 764.1261,-221.1421 764.0643,-228.1418"/>
<text text-anchor="middle" x="747.9895" y="-228.2" font-family="Times,serif" font-size="14.00" fill="#000000">a</text>
</g>
<!-- q4q10 -->
<g id="node5" class="node">
<title>q4q10</title>
<ellipse fill="none" stroke="#000000" cx="1415.4016" cy="-224" rx="35.3402" ry="35.3402"/>
<ellipse fill="none" stroke="#000000" cx="1415.4016" cy="-224" rx="39.3586" ry="39.3586"/>
<text text-anchor="middle" x="1415.4016" y="-219.8" font-family="Times,serif" font-size="14.00" fill="#000000">q4q10</text>
</g>
<!-- q4q10&#45;&gt;q5q11 -->
<g id="edge48" class="edge">
<title>q4q10&#45;&gt;q5q11</title>
<path fill="none" stroke="#000000" d="M1404.5457,-186.0214C1389.5772,-142.7622 1358.0801,-78 1303.6578,-78 691.3106,-78 691.3106,-78 691.3106,-78 668.0133,-78 642.5509,-82.7237 621.6705,-87.8896"/>
<polygon fill="#000000" stroke="#000000" points="620.6203,-84.5461 611.8178,-90.4424 622.376,-91.3224 620.6203,-84.5461"/>
<text text-anchor="middle" x="1036.4058" y="-82.2" font-family="Times,serif" font-size="14.00" fill="#000000">b</text>
</g>
<!-- q4q10&#45;&gt;q5q6 -->
<g id="edge42" class="edge">
<title>q4q10&#45;&gt;q5q6</title>
<path fill="none" stroke="#000000" d="M1376.0835,-224C1365.772,-224 1354.6337,-224 1344.2566,-224"/>
<polygon fill="#000000" stroke="#000000" points="1344.1923,-220.5001 1334.1923,-224 1344.1922,-227.5001 1344.1923,-220.5001"/>
<text text-anchor="middle" x="1355.1154" y="-228.2" font-family="Times,serif" font-size="14.00" fill="#000000">a</text>
</g>
<!-- q4q11 -->
<g id="node6" class="node">
<title>q4q11</title>
<ellipse fill="none" stroke="#000000" cx="975.7269" cy="-367" rx="35.3402" ry="35.3402"/>
<ellipse fill="none" stroke="#000000" cx="975.7269" cy="-367" rx="39.3586" ry="39.3586"/>
<text text-anchor="middle" x="975.7269" y="-362.8" font-family="Times,serif" font-size="14.00" fill="#000000">q4q11</text>
</g>
<!-- q4q11&#45;&gt;q5q9 -->
<g id="edge49" class="edge">
<title>q4q11&#45;&gt;q5q9</title>
<path fill="none" stroke="#000000" d="M1014.0011,-376.1687C1020.2836,-377.3454 1026.7515,-378.3612 1032.9058,-379 1036.0002,-379.3212 1036.7948,-379.0322 1039.9058,-379 1042.4402,-378.9738 1045.0492,-378.9399 1047.6799,-378.9004"/>
<polygon fill="#000000" stroke="#000000" points="1047.8848,-382.3975 1057.8229,-378.7253 1047.7639,-375.3985 1047.8848,-382.3975"/>
<text text-anchor="middle" x="1036.4058" y="-383.2" font-family="Times,serif" font-size="14.00" fill="#000000">b</text>
</g>
<!-- q5q7 -->
<g id="node31" class="node">
<title>q5q7</title>
<ellipse fill="none" stroke="#000000" cx="1088.2562" cy="-299" rx="30.2015" ry="30.2015"/>
<text text-anchor="middle" x="1088.2562" y="-294.8" font-family="Times,serif" font-size="14.00" fill="#000000">q5q7</text>
</g>
<!-- q4q11&#45;&gt;q5q7 -->
<g id="edge43" class="edge">
<title>q4q11&#45;&gt;q5q7</title>
<path fill="none" stroke="#000000" d="M1012.6012,-353.0141C1021.7778,-348.9702 1031.4142,-344.2211 1039.9058,-339 1045.8917,-335.3195 1051.9305,-330.9544 1057.6157,-326.4834"/>
<polygon fill="#000000" stroke="#000000" points="1060.1146,-328.9614 1065.6446,-319.9243 1055.686,-323.5404 1060.1146,-328.9614"/>
<text text-anchor="middle" x="1036.4058" y="-346.2" font-family="Times,serif" font-size="14.00" fill="#000000">a</text>
</g>
<!-- q2q10 -->
<g id="node8" class="node">
<title>q2q10</title>
<ellipse fill="none" stroke="#000000" cx="239.5366" cy="-128" rx="35.3587" ry="35.3587"/>
<text text-anchor="middle" x="239.5366" y="-123.8" font-family="Times,serif" font-size="14.00" fill="#000000">q2q10</text>
</g>
<!-- q1q6&#45;&gt;q2q10 -->
<g id="edge2" class="edge">
<title>q1q6&#45;&gt;q2q10</title>
<path fill="none" stroke="#000000" d="M154.4589,-138.3143C162.3867,-135.505 171.0983,-132.8439 179.3577,-131.2 184.11,-130.2541 189.1123,-129.5458 194.1187,-129.0199"/>
<polygon fill="#000000" stroke="#000000" points="194.643,-132.4887 204.3218,-128.1793 194.0682,-125.5123 194.643,-132.4887"/>
<text text-anchor="middle" x="182.8577" y="-135.2" font-family="Times,serif" font-size="14.00" fill="#000000">a</text>
</g>
<!-- q2q7 -->
<g id="node18" class="node">
<title>q2q7</title>
<ellipse fill="none" stroke="#000000" cx="239.5366" cy="-212" rx="30.2015" ry="30.2015"/>
<text text-anchor="middle" x="239.5366" y="-207.8" font-family="Times,serif" font-size="14.00" fill="#000000">q2q7</text>
</g>
<!-- q1q6&#45;&gt;q2q7 -->
<g id="edge8" class="edge">
<title>q1q6&#45;&gt;q2q7</title>
<path fill="none" stroke="#000000" d="M153.0431,-164.6931C168.2898,-173.0322 187.5603,-183.572 204.0401,-192.5855"/>
<polygon fill="#000000" stroke="#000000" points="202.4122,-195.6844 212.8652,-197.4123 205.7713,-189.543 202.4122,-195.6844"/>
<text text-anchor="middle" x="182.8577" y="-186.2" font-family="Times,serif" font-size="14.00" fill="#000000">b</text>
</g>
<!-- q3q11 -->
<g id="node20" class="node">
<title>q3q11</title>
<ellipse fill="none" stroke="#000000" cx="352.8943" cy="-178" rx="35.3587" ry="35.3587"/>
<text text-anchor="middle" x="352.8943" y="-173.8" font-family="Times,serif" font-size="14.00" fill="#000000">q3q11</text>
</g>
<!-- q2q10&#45;&gt;q3q11 -->
<g id="edge24" class="edge">
<title>q2q10&#45;&gt;q3q11</title>
<path fill="none" stroke="#000000" d="M274.7691,-125.9741C283.1828,-126.5397 291.9658,-128.0379 299.7155,-131.2 307.6544,-134.4393 315.2134,-139.3853 322.0106,-144.8681"/>
<polygon fill="#000000" stroke="#000000" points="319.7739,-147.5614 329.617,-151.481 324.3666,-142.2786 319.7739,-147.5614"/>
<text text-anchor="middle" x="296.2155" y="-135.2" font-family="Times,serif" font-size="14.00" fill="#000000">b</text>
</g>
<!-- q3q6 -->
<g id="node23" class="node">
<title>q3q6</title>
<ellipse fill="none" stroke="#000000" cx="352.8943" cy="-92" rx="30.2015" ry="30.2015"/>
<text text-anchor="middle" x="352.8943" y="-87.8" font-family="Times,serif" font-size="14.00" fill="#000000">q3q6</text>
</g>
<!-- q2q10&#45;&gt;q3q6 -->
<g id="edge18" class="edge">
<title>q2q10&#45;&gt;q3q6</title>
<path fill="none" stroke="#000000" d="M266.2743,-104.8683C274.2632,-99.2943 283.3916,-94.1115 292.7155,-91.2 298.9335,-89.2584 305.6919,-88.3098 312.3589,-87.9859"/>
<polygon fill="#000000" stroke="#000000" points="312.6857,-91.4845 322.6693,-87.938 312.6531,-84.4846 312.6857,-91.4845"/>
<text text-anchor="middle" x="296.2155" y="-95.2" font-family="Times,serif" font-size="14.00" fill="#000000">a</text>
</g>
<!-- q1q7 -->
<g id="node9" class="node">
<title>q1q7</title>
<ellipse fill="none" stroke="#000000" cx="126.1789" cy="-497" rx="30.2015" ry="30.2015"/>
<text text-anchor="middle" x="126.1789" y="-492.8" font-family="Times,serif" font-size="14.00" fill="#000000">q1q7</text>
</g>
<!-- q2q11 -->
<g id="node10" class="node">
<title>q2q11</title>
<ellipse fill="none" stroke="#000000" cx="691.3106" cy="-511" rx="35.3587" ry="35.3587"/>
<text text-anchor="middle" x="691.3106" y="-506.8" font-family="Times,serif" font-size="14.00" fill="#000000">q2q11</text>
</g>
<!-- q1q7&#45;&gt;q2q11 -->
<g id="edge3" class="edge">
<title>q1q7&#45;&gt;q2q11</title>
<path fill="none" stroke="#000000" d="M155.1511,-507.0244C177.8287,-513.9796 210.3146,-522 239.5366,-522 239.5366,-522 239.5366,-522 577.9529,-522 600.5342,-522 625.528,-519.8108 646.2877,-517.3857"/>
<polygon fill="#000000" stroke="#000000" points="646.9147,-520.8352 656.4152,-516.1457 646.0639,-513.887 646.9147,-520.8352"/>
<text text-anchor="middle" x="409.5732" y="-526.2" font-family="Times,serif" font-size="14.00" fill="#000000">a</text>
</g>
<!-- q2q8 -->
<g id="node14" class="node">
<title>q2q8</title>
<ellipse fill="none" stroke="#000000" cx="239.5366" cy="-382" rx="30.2015" ry="30.2015"/>
<text text-anchor="middle" x="239.5366" y="-377.8" font-family="Times,serif" font-size="14.00" fill="#000000">q2q8</text>
</g>
<!-- q1q7&#45;&gt;q2q8 -->
<g id="edge9" class="edge">
<title>q1q7&#45;&gt;q2q8</title>
<path fill="none" stroke="#000000" d="M147.5006,-475.3694C165.3576,-457.2537 191.0106,-431.229 210.6997,-411.2547"/>
<polygon fill="#000000" stroke="#000000" points="213.3976,-413.5034 217.9251,-403.9246 208.4124,-408.5894 213.3976,-413.5034"/>
<text text-anchor="middle" x="182.8577" y="-446.2" font-family="Times,serif" font-size="14.00" fill="#000000">b</text>
</g>
<!-- q3q9 -->
<g id="node21" class="node">
<title>q3q9</title>
<ellipse fill="none" stroke="#000000" cx="888.1976" cy="-426" rx="30.2015" ry="30.2015"/>
<text text-anchor="middle" x="888.1976" y="-421.8" font-family="Times,serif" font-size="14.00" fill="#000000">q3q9</text>
</g>
<!-- q2q11&#45;&gt;q3q9 -->
<g id="edge25" class="edge">
<title>q2q11&#45;&gt;q3q9</title>
<path fill="none" stroke="#000000" d="M722.5654,-494.5745C736.7437,-487.3403 753.8131,-478.9295 769.4895,-472 796.0222,-460.2716 826.5517,-448.478 850.0054,-439.769"/>
<polygon fill="#000000" stroke="#000000" points="851.4198,-442.9779 859.5916,-436.2345 848.9982,-436.4101 851.4198,-442.9779"/>
<text text-anchor="middle" x="747.9895" y="-487.2" font-family="Times,serif" font-size="14.00" fill="#000000">b</text>
</g>
<!-- q3q7 -->
<g id="node24" class="node">
<title>q3q7</title>
<ellipse fill="none" stroke="#000000" cx="804.6684" cy="-511" rx="30.2015" ry="30.2015"/>
<text text-anchor="middle" x="804.6684" y="-506.8" font-family="Times,serif" font-size="14.00" fill="#000000">q3q7</text>
</g>
<!-- q2q11&#45;&gt;q3q7 -->
<g id="edge19" class="edge">
<title>q2q11&#45;&gt;q3q7</title>
<path fill="none" stroke="#000000" d="M726.5563,-511C738.3191,-511 751.5261,-511 763.6866,-511"/>
<polygon fill="#000000" stroke="#000000" points="764.0412,-514.5001 774.0411,-511 764.0411,-507.5001 764.0412,-514.5001"/>
<text text-anchor="middle" x="747.9895" y="-515.2" font-family="Times,serif" font-size="14.00" fill="#000000">a</text>
</g>
<!-- q1q8 -->
<g id="node11" class="node">
<title>q1q8</title>
<ellipse fill="none" stroke="#000000" cx="352.8943" cy="-340" rx="30.2015" ry="30.2015"/>
<text text-anchor="middle" x="352.8943" y="-335.8" font-family="Times,serif" font-size="14.00" fill="#000000">q1q8</text>
</g>
<!-- q2q9 -->
<g id="node12" class="node">
<title>q2q9</title>
<ellipse fill="none" stroke="#000000" cx="465.4236" cy="-300" rx="30.2015" ry="30.2015"/>
<text text-anchor="middle" x="465.4236" y="-295.8" font-family="Times,serif" font-size="14.00" fill="#000000">q2q9</text>
</g>
<!-- q1q8&#45;&gt;q2q9 -->
<g id="edge4" class="edge">
<title>q1q8&#45;&gt;q2q9</title>
<path fill="none" stroke="#000000" d="M381.5814,-329.8028C395.4695,-324.8661 412.3359,-318.8707 427.2892,-313.5554"/>
<polygon fill="#000000" stroke="#000000" points="428.5388,-316.8258 436.789,-310.1786 426.1942,-310.2301 428.5388,-316.8258"/>
<text text-anchor="middle" x="409.5732" y="-324.2" font-family="Times,serif" font-size="14.00" fill="#000000">a</text>
</g>
<!-- q2q6 -->
<g id="node16" class="node">
<title>q2q6</title>
<ellipse fill="none" stroke="#000000" cx="691.3106" cy="-427" rx="30.2015" ry="30.2015"/>
<text text-anchor="middle" x="691.3106" y="-422.8" font-family="Times,serif" font-size="14.00" fill="#000000">q2q6</text>
</g>
<!-- q1q8&#45;&gt;q2q6 -->
<g id="edge10" class="edge">
<title>q1q8&#45;&gt;q2q6</title>
<path fill="none" stroke="#000000" d="M382.3346,-347.5685C443.2117,-363.2188 582.9806,-399.1505 651.6969,-416.8161"/>
<polygon fill="#000000" stroke="#000000" points="651.1409,-420.2869 661.6975,-419.3871 652.8839,-413.5074 651.1409,-420.2869"/>
<text text-anchor="middle" x="521.274" y="-387.2" font-family="Times,serif" font-size="14.00" fill="#000000">b</text>
</g>
<!-- q3q10 -->
<g id="node19" class="node">
<title>q3q10</title>
<ellipse fill="none" stroke="#000000" cx="804.6684" cy="-346" rx="35.3587" ry="35.3587"/>
<text text-anchor="middle" x="804.6684" y="-341.8" font-family="Times,serif" font-size="14.00" fill="#000000">q3q10</text>
</g>
<!-- q2q9&#45;&gt;q3q10 -->
<g id="edge23" class="edge">
<title>q2q9&#45;&gt;q3q10</title>
<path fill="none" stroke="#000000" d="M495.5293,-304.0822C555.221,-312.1761 688.8733,-330.2987 759.2838,-339.8461"/>
<polygon fill="#000000" stroke="#000000" points="759.2291,-343.3706 769.6088,-341.2461 760.1697,-336.4341 759.2291,-343.3706"/>
<text text-anchor="middle" x="634.6318" y="-327.2" font-family="Times,serif" font-size="14.00" fill="#000000">b</text>
</g>
<!-- q3q8 -->
<g id="node22" class="node">
<title>q3q8</title>
<ellipse fill="none" stroke="#000000" cx="577.9529" cy="-260" rx="30.2015" ry="30.2015"/>
<text text-anchor="middle" x="577.9529" y="-255.8" font-family="Times,serif" font-size="14.00" fill="#000000">q3q8</text>
</g>
<!-- q2q9&#45;&gt;q3q8 -->
<g id="edge17" class="edge">
<title>q2q9&#45;&gt;q3q8</title>
<path fill="none" stroke="#000000" d="M494.1107,-289.8028C507.9988,-284.8661 524.8651,-278.8707 539.8185,-273.5554"/>
<polygon fill="#000000" stroke="#000000" points="541.0681,-276.8258 549.3182,-270.1786 538.7235,-270.2301 541.0681,-276.8258"/>
<text text-anchor="middle" x="521.274" y="-285.2" font-family="Times,serif" font-size="14.00" fill="#000000">a</text>
</g>
<!-- q1q9 -->
<g id="node13" class="node">
<title>q1q9</title>
<ellipse fill="none" stroke="#000000" cx="126.1789" cy="-363" rx="30.2015" ry="30.2015"/>
<text text-anchor="middle" x="126.1789" y="-358.8" font-family="Times,serif" font-size="14.00" fill="#000000">q1q9</text>
</g>
<!-- q1q9&#45;&gt;q2q10 -->
<g id="edge11" class="edge">
<title>q1q9&#45;&gt;q2q10</title>
<path fill="none" stroke="#000000" d="M144.9425,-339.0227C150.774,-330.7836 156.8484,-321.2894 161.3577,-312 168.4176,-297.4564 196.8671,-187.3265 204.3577,-173 206.1669,-169.5398 208.2518,-166.0795 210.4847,-162.7009"/>
<polygon fill="#000000" stroke="#000000" points="213.3548,-164.7042 216.2676,-154.5177 207.6381,-160.6644 213.3548,-164.7042"/>
<text text-anchor="middle" x="182.8577" y="-257.2" font-family="Times,serif" font-size="14.00" fill="#000000">b</text>
</g>
<!-- q1q9&#45;&gt;q2q8 -->
<g id="edge5" class="edge">
<title>q1q9&#45;&gt;q2q8</title>
<path fill="none" stroke="#000000" d="M156.2591,-368.0418C169.4542,-370.2534 185.1367,-372.882 199.3149,-375.2584"/>
<polygon fill="#000000" stroke="#000000" points="198.8748,-378.7334 209.3159,-376.9347 200.032,-371.8297 198.8748,-378.7334"/>
<text text-anchor="middle" x="182.8577" y="-377.2" font-family="Times,serif" font-size="14.00" fill="#000000">a</text>
</g>
<!-- q2q8&#45;&gt;q3q9 -->
<g id="edge16" class="edge">
<title>q2q8&#45;&gt;q3q9</title>
<path fill="none" stroke="#000000" d="M270.0284,-382.4404C300.0921,-382.6258 347.3209,-382.2503 388.0732,-379 499.8779,-370.0828 527.227,-328.2684 638.1318,-345 690.2698,-352.8658 702.9915,-359.3073 751.4895,-380 759.907,-383.5915 761.063,-386.4296 769.4895,-390 795.0539,-400.8318 824.9758,-409.8839 848.3829,-416.2017"/>
<polygon fill="#000000" stroke="#000000" points="847.7489,-419.6542 858.3111,-418.8237 849.5364,-412.8863 847.7489,-419.6542"/>
<text text-anchor="middle" x="521.274" y="-355.2" font-family="Times,serif" font-size="14.00" fill="#000000">a</text>
</g>
<!-- q2q8&#45;&gt;q3q6 -->
<g id="edge22" class="edge">
<title>q2q8&#45;&gt;q3q6</title>
<path fill="none" stroke="#000000" d="M247.7485,-352.6863C255.0897,-326.1912 266.0016,-286.0814 274.7155,-251 283.3755,-216.1351 278.6586,-205.2599 292.7155,-172.2 300.4592,-153.9878 313.1934,-136.1345 324.9584,-121.9131"/>
<polygon fill="#000000" stroke="#000000" points="327.8967,-123.8619 331.7285,-113.9842 322.5733,-119.3165 327.8967,-123.8619"/>
<text text-anchor="middle" x="296.2155" y="-176.2" font-family="Times,serif" font-size="14.00" fill="#000000">b</text>
</g>
<!-- q1q10 -->
<g id="node15" class="node">
<title>q1q10</title>
<ellipse fill="none" stroke="#000000" cx="577.9529" cy="-459" rx="35.3587" ry="35.3587"/>
<text text-anchor="middle" x="577.9529" y="-454.8" font-family="Times,serif" font-size="14.00" fill="#000000">q1q10</text>
</g>
<!-- q1q10&#45;&gt;q2q11 -->
<g id="edge12" class="edge">
<title>q1q10&#45;&gt;q2q11</title>
<path fill="none" stroke="#000000" d="M610.1334,-473.762C622.4586,-479.4159 636.6976,-485.9477 649.7758,-491.9469"/>
<polygon fill="#000000" stroke="#000000" points="648.5009,-495.2128 659.0496,-496.2011 651.4196,-488.8503 648.5009,-495.2128"/>
<text text-anchor="middle" x="634.6318" y="-490.2" font-family="Times,serif" font-size="14.00" fill="#000000">b</text>
</g>
<!-- q1q10&#45;&gt;q2q6 -->
<g id="edge6" class="edge">
<title>q1q10&#45;&gt;q2q6</title>
<path fill="none" stroke="#000000" d="M611.9639,-449.3989C624.6442,-445.8194 639.1368,-441.7283 652.2365,-438.0303"/>
<polygon fill="#000000" stroke="#000000" points="653.2563,-441.3793 661.9293,-435.2941 651.3545,-434.6426 653.2563,-441.3793"/>
<text text-anchor="middle" x="634.6318" y="-447.2" font-family="Times,serif" font-size="14.00" fill="#000000">a</text>
</g>
<!-- q2q6&#45;&gt;q3q10 -->
<g id="edge14" class="edge">
<title>q2q6&#45;&gt;q3q10</title>
<path fill="none" stroke="#000000" d="M716.1875,-409.2242C731.1722,-398.5168 750.5418,-384.6763 767.3362,-372.6758"/>
<polygon fill="#000000" stroke="#000000" points="769.7455,-375.256 775.847,-366.5944 765.6758,-369.5605 769.7455,-375.256"/>
<text text-anchor="middle" x="747.9895" y="-392.2" font-family="Times,serif" font-size="14.00" fill="#000000">a</text>
</g>
<!-- q2q6&#45;&gt;q3q7 -->
<g id="edge20" class="edge">
<title>q2q6&#45;&gt;q3q7</title>
<path fill="none" stroke="#000000" d="M721.6617,-424.5434C731.7361,-425.0067 742.6312,-426.9899 751.4895,-432.2 767.6629,-441.7126 779.9591,-458.317 788.6322,-473.8383"/>
<polygon fill="#000000" stroke="#000000" points="785.581,-475.5563 793.322,-482.7901 791.7816,-472.3078 785.581,-475.5563"/>
<text text-anchor="middle" x="747.9895" y="-436.2" font-family="Times,serif" font-size="14.00" fill="#000000">b</text>
</g>
<!-- q1q11 -->
<g id="node17" class="node">
<title>q1q11</title>
<ellipse fill="none" stroke="#000000" cx="126.1789" cy="-268" rx="35.3587" ry="35.3587"/>
<text text-anchor="middle" x="126.1789" y="-263.8" font-family="Times,serif" font-size="14.00" fill="#000000">q1q11</text>
</g>
<!-- q1q11&#45;&gt;q2q9 -->
<g id="edge13" class="edge">
<title>q1q11&#45;&gt;q2q9</title>
<path fill="none" stroke="#000000" d="M161.2063,-271.304C224.5194,-277.2762 357.6568,-289.8347 424.8303,-296.1709"/>
<polygon fill="#000000" stroke="#000000" points="424.7395,-299.6778 435.024,-297.1325 425.3969,-292.7088 424.7395,-299.6778"/>
<text text-anchor="middle" x="296.2155" y="-288.2" font-family="Times,serif" font-size="14.00" fill="#000000">b</text>
</g>
<!-- q1q11&#45;&gt;q2q7 -->
<g id="edge7" class="edge">
<title>q1q11&#45;&gt;q2q7</title>
<path fill="none" stroke="#000000" d="M145.7762,-238.5176C154.6309,-227.8166 166.0967,-216.9503 179.3577,-211.2 185.6052,-208.4909 192.572,-207.213 199.4868,-206.8132"/>
<polygon fill="#000000" stroke="#000000" points="199.4987,-210.3133 209.491,-206.7913 199.4833,-203.3133 199.4987,-210.3133"/>
<text text-anchor="middle" x="182.8577" y="-215.2" font-family="Times,serif" font-size="14.00" fill="#000000">a</text>
</g>
<!-- q2q7&#45;&gt;q3q11 -->
<g id="edge15" class="edge">
<title>q2q7&#45;&gt;q3q11</title>
<path fill="none" stroke="#000000" d="M268.729,-203.2442C281.0813,-199.5393 295.7316,-195.1451 309.319,-191.0698"/>
<polygon fill="#000000" stroke="#000000" points="310.404,-194.3985 318.9769,-188.1731 308.3929,-187.6936 310.404,-194.3985"/>
<text text-anchor="middle" x="296.2155" y="-200.2" font-family="Times,serif" font-size="14.00" fill="#000000">a</text>
</g>
<!-- q2q7&#45;&gt;q3q8 -->
<g id="edge21" class="edge">
<title>q2q7&#45;&gt;q3q8</title>
<path fill="none" stroke="#000000" d="M269.8666,-216.3019C330.9749,-224.9694 468.9123,-244.534 537.5641,-254.2714"/>
<polygon fill="#000000" stroke="#000000" points="537.1768,-257.7514 547.5692,-255.6905 538.1599,-250.8208 537.1768,-257.7514"/>
<text text-anchor="middle" x="409.5732" y="-240.2" font-family="Times,serif" font-size="14.00" fill="#000000">b</text>
</g>
<!-- q3q10&#45;&gt;q4q11 -->
<g id="edge36" class="edge">
<title>q3q10&#45;&gt;q4q11</title>
<path fill="none" stroke="#000000" d="M839.6974,-350.3003C864.659,-353.3648 898.5615,-357.5268 926.2758,-360.9291"/>
<polygon fill="#000000" stroke="#000000" points="926.2111,-364.4474 936.5631,-362.1921 927.0641,-357.4995 926.2111,-364.4474"/>
<text text-anchor="middle" x="888.1976" y="-363.2" font-family="Times,serif" font-size="14.00" fill="#000000">b</text>
</g>
<!-- q4q6 -->
<g id="node25" class="node">
<title>q4q6</title>
<ellipse fill="none" stroke="#000000" cx="975.7269" cy="-183" rx="30.2015" ry="30.2015"/>
<text text-anchor="middle" x="975.7269" y="-178.8" font-family="Times,serif" font-size="14.00" fill="#000000">q4q6</text>
</g>
<!-- q3q10&#45;&gt;q4q6 -->
<g id="edge30" class="edge">
<title>q3q10&#45;&gt;q4q6</title>
<path fill="none" stroke="#000000" d="M828.0843,-319.7376C836.7897,-311.0826 847.1633,-301.955 857.8472,-295.2 882.2588,-279.7658 897.9687,-292.264 918.548,-272 933.8967,-256.8865 925.2156,-245.3187 936.548,-227 939.6506,-221.9848 943.3429,-216.9968 947.202,-212.2782"/>
<polygon fill="#000000" stroke="#000000" points="949.9101,-214.4971 953.7793,-204.634 944.6039,-209.9314 949.9101,-214.4971"/>
<text text-anchor="middle" x="888.1976" y="-299.2" font-family="Times,serif" font-size="14.00" fill="#000000">a</text>
</g>
<!-- q3q11&#45;&gt;q4q7 -->
<g id="edge31" class="edge">
<title>q3q11&#45;&gt;q4q7</title>
<path fill="none" stroke="#000000" d="M385.4425,-164.4057C397.5463,-159.3503 411.4424,-153.5463 424.2198,-148.2095"/>
<polygon fill="#000000" stroke="#000000" points="425.846,-151.3234 433.7246,-144.2397 423.1482,-144.8642 425.846,-151.3234"/>
<text text-anchor="middle" x="409.5732" y="-158.2" font-family="Times,serif" font-size="14.00" fill="#000000">a</text>
</g>
<!-- q3q11&#45;&gt;q4q9 -->
<g id="edge37" class="edge">
<title>q3q11&#45;&gt;q4q9</title>
<path fill="none" stroke="#000000" d="M387.8362,-182.7496C449.8396,-191.1775 578.9724,-208.7302 647.0747,-217.9871"/>
<polygon fill="#000000" stroke="#000000" points="646.6825,-221.4659 657.0629,-219.3448 647.6254,-214.5297 646.6825,-221.4659"/>
<text text-anchor="middle" x="521.274" y="-205.2" font-family="Times,serif" font-size="14.00" fill="#000000">b</text>
</g>
<!-- q3q9&#45;&gt;q4q8 -->
<g id="edge29" class="edge">
<title>q3q9&#45;&gt;q4q8</title>
<path fill="none" stroke="#000000" d="M906.3019,-401.4777C910.7284,-394.7461 915.1606,-387.2882 918.548,-380 930.4621,-354.3667 921.058,-342.6447 936.548,-319 967.1752,-272.2494 980.3836,-257.3068 1032.9058,-238.2 1078.455,-221.6299 1129.9327,-251.3863 1162.6432,-276.5681"/>
<polygon fill="#000000" stroke="#000000" points="1160.5327,-279.3616 1170.54,-282.8408 1164.8866,-273.8803 1160.5327,-279.3616"/>
<text text-anchor="middle" x="1036.4058" y="-242.2" font-family="Times,serif" font-size="14.00" fill="#000000">a</text>
</g>
<!-- q3q9&#45;&gt;q4q10 -->
<g id="edge35" class="edge">
<title>q3q9&#45;&gt;q4q10</title>
<path fill="none" stroke="#000000" d="M916.5074,-437.2539C954.8106,-451.4412 1025.5709,-474 1088.2562,-474 1088.2562,-474 1088.2562,-474 1303.6578,-474 1347.4173,-474 1386.0256,-344.7214 1404.2626,-272.0944"/>
<polygon fill="#000000" stroke="#000000" points="1407.6961,-272.7896 1406.6992,-262.2418 1400.9008,-271.1091 1407.6961,-272.7896"/>
<text text-anchor="middle" x="1140.1066" y="-478.2" font-family="Times,serif" font-size="14.00" fill="#000000">b</text>
</g>
<!-- q3q8&#45;&gt;q4q9 -->
<g id="edge28" class="edge">
<title>q3q8&#45;&gt;q4q9</title>
<path fill="none" stroke="#000000" d="M607.1453,-250.7291C619.7087,-246.7392 634.6494,-241.9944 648.4312,-237.6176"/>
<polygon fill="#000000" stroke="#000000" points="649.7395,-240.8744 658.211,-234.5117 647.6207,-234.2028 649.7395,-240.8744"/>
<text text-anchor="middle" x="634.6318" y="-247.2" font-family="Times,serif" font-size="14.00" fill="#000000">a</text>
</g>
<!-- q3q8&#45;&gt;q4q6 -->
<g id="edge34" class="edge">
<title>q3q8&#45;&gt;q4q6</title>
<path fill="none" stroke="#000000" d="M608.2123,-264.7293C657.4041,-271.4706 757.5063,-281.234 839.8472,-264 876.8054,-256.2646 886.3054,-251.6509 918.548,-232 928.2061,-226.1137 937.8667,-218.6096 946.4251,-211.2535"/>
<polygon fill="#000000" stroke="#000000" points="948.781,-213.8423 953.9433,-204.5901 944.138,-208.6037 948.781,-213.8423"/>
<text text-anchor="middle" x="747.9895" y="-277.2" font-family="Times,serif" font-size="14.00" fill="#000000">b</text>
</g>
<!-- q3q6&#45;&gt;q4q7 -->
<g id="edge32" class="edge">
<title>q3q6&#45;&gt;q4q7</title>
<path fill="none" stroke="#000000" d="M381.5814,-101.9423C394.157,-106.3007 409.1745,-111.5054 423.0026,-116.2979"/>
<polygon fill="#000000" stroke="#000000" points="422.2146,-119.729 432.8094,-119.6967 424.5069,-113.1149 422.2146,-119.729"/>
<text text-anchor="middle" x="409.5732" y="-116.2" font-family="Times,serif" font-size="14.00" fill="#000000">b</text>
</g>
<!-- q3q6&#45;&gt;q4q10 -->
<g id="edge26" class="edge">
<title>q3q6&#45;&gt;q4q10</title>
<path fill="none" stroke="#000000" d="M369.3077,-65.8826C388.6549,-38.6833 423.5343,0 465.4236,0 465.4236,0 465.4236,0 1303.6578,0 1381.109,0 1404.8787,-108.5577 1412.1729,-174.527"/>
<polygon fill="#000000" stroke="#000000" points="1408.7161,-175.1303 1413.2078,-184.7259 1415.6803,-174.4236 1408.7161,-175.1303"/>
<text text-anchor="middle" x="888.1976" y="-4.2" font-family="Times,serif" font-size="14.00" fill="#000000">a</text>
</g>
<!-- q3q7&#45;&gt;q4q8 -->
<g id="edge33" class="edge">
<title>q3q7&#45;&gt;q4q8</title>
<path fill="none" stroke="#000000" d="M835.3157,-509.2486C895.7563,-504.3315 1031.959,-485.8299 1118.6066,-417 1142.6365,-397.9114 1162.2863,-369.3939 1175.7677,-346.0442"/>
<polygon fill="#000000" stroke="#000000" points="1178.9708,-347.4877 1180.8061,-337.0531 1172.8642,-344.0658 1178.9708,-347.4877"/>
<text text-anchor="middle" x="1036.4058" y="-468.2" font-family="Times,serif" font-size="14.00" fill="#000000">b</text>
</g>
<!-- q3q7&#45;&gt;q4q11 -->
<g id="edge27" class="edge">
<title>q3q7&#45;&gt;q4q11</title>
<path fill="none" stroke="#000000" d="M830.4573,-494.9537C839.0168,-489.9295 848.6987,-484.5632 857.8472,-480.2 883.9157,-467.7672 896.1806,-475.2712 918.548,-457 933.4267,-444.8462 945.6389,-427.7555 954.9014,-411.7281"/>
<polygon fill="#000000" stroke="#000000" points="957.9672,-413.4166 959.742,-402.9715 951.8409,-410.03 957.9672,-413.4166"/>
<text text-anchor="middle" x="888.1976" y="-484.2" font-family="Times,serif" font-size="14.00" fill="#000000">a</text>
</g>
<!-- q4q6&#45;&gt;q5q10 -->
<g id="edge38" class="edge">
<title>q4q6&#45;&gt;q5q10</title>
<path fill="none" stroke="#000000" d="M945.3539,-178.83C921.348,-175.1762 887.1239,-169.1693 857.8472,-161 854.2636,-160 850.5816,-158.8606 846.9079,-157.6444"/>
<polygon fill="#000000" stroke="#000000" points="847.8712,-154.2737 837.2764,-154.2892 845.5684,-160.8841 847.8712,-154.2737"/>
<text text-anchor="middle" x="888.1976" y="-178.2" font-family="Times,serif" font-size="14.00" fill="#000000">a</text>
</g>
<!-- q4q6&#45;&gt;q5q7 -->
<g id="edge44" class="edge">
<title>q4q6&#45;&gt;q5q7</title>
<path fill="none" stroke="#000000" d="M992.2669,-208.8302C1002.8537,-224.3067 1017.4645,-243.8528 1032.9058,-259 1039.2932,-265.2658 1046.725,-271.3136 1054.0302,-276.7273"/>
<polygon fill="#000000" stroke="#000000" points="1052.3071,-279.7979 1062.4776,-282.7664 1056.3781,-274.1034 1052.3071,-279.7979"/>
<text text-anchor="middle" x="1036.4058" y="-269.2" font-family="Times,serif" font-size="14.00" fill="#000000">b</text>
</g>
<!-- q5q10&#45;&gt;q4q11 -->
<g id="edge60" class="edge">
<title>q5q10&#45;&gt;q4q11</title>
<path fill="none" stroke="#000000" d="M828.7278,-167.1434C833.0422,-172.9979 837.0491,-179.4313 839.8472,-186 862.017,-238.0433 821.2677,-268.8498 857.8472,-312 876.1443,-333.5837 892.8623,-319.3306 918.548,-331.2 923.8606,-333.6549 929.2777,-336.5155 934.5562,-339.5297"/>
<polygon fill="#000000" stroke="#000000" points="932.8805,-342.6053 943.2656,-344.7032 936.4555,-336.587 932.8805,-342.6053"/>
<text text-anchor="middle" x="888.1976" y="-335.2" font-family="Times,serif" font-size="14.00" fill="#000000">b</text>
</g>
<!-- q5q10&#45;&gt;q4q6 -->
<g id="edge54" class="edge">
<title>q5q10&#45;&gt;q4q6</title>
<path fill="none" stroke="#000000" d="M839.4593,-135.0404C862.4897,-132.4655 893.035,-131.709 918.548,-140.2 928.3427,-143.4598 937.8138,-149.1256 946.1359,-155.2879"/>
<polygon fill="#000000" stroke="#000000" points="944.0305,-158.0851 954.0446,-161.5449 948.3738,-152.5954 944.0305,-158.0851"/>
<text text-anchor="middle" x="888.1976" y="-144.2" font-family="Times,serif" font-size="14.00" fill="#000000">a</text>
</g>
<!-- q5q11&#45;&gt;q4q7 -->
<g id="edge55" class="edge">
<title>q5q11&#45;&gt;q4q7</title>
<path fill="none" stroke="#000000" d="M543.6495,-110.1452C532.6563,-113.0759 520.3364,-116.3604 508.7837,-119.4403"/>
<polygon fill="#000000" stroke="#000000" points="507.6423,-116.1223 498.8814,-122.0802 509.4456,-122.886 507.6423,-116.1223"/>
<text text-anchor="middle" x="521.274" y="-120.2" font-family="Times,serif" font-size="14.00" fill="#000000">a</text>
</g>
<!-- q5q11&#45;&gt;q4q9 -->
<g id="edge61" class="edge">
<title>q5q11&#45;&gt;q4q9</title>
<path fill="none" stroke="#000000" d="M612.1552,-109.4223C621.337,-112.8864 630.7537,-117.6688 638.1318,-124.2 655.4392,-139.5208 668.075,-161.858 676.6755,-181.5175"/>
<polygon fill="#000000" stroke="#000000" points="673.5087,-183.0178 680.5762,-190.9109 679.9735,-180.3332 673.5087,-183.0178"/>
<text text-anchor="middle" x="634.6318" y="-128.2" font-family="Times,serif" font-size="14.00" fill="#000000">b</text>
</g>
<!-- q5q9&#45;&gt;q4q8 -->
<g id="edge53" class="edge">
<title>q5q9&#45;&gt;q4q8</title>
<path fill="none" stroke="#000000" d="M1107.0448,-354.1559C1117.4715,-341.462 1129.6947,-327.5813 1136.6066,-323.2 1141.3635,-320.1847 1146.6655,-317.6827 1152.0888,-315.6104"/>
<polygon fill="#000000" stroke="#000000" points="1153.5207,-318.8219 1161.8905,-312.3261 1151.2966,-312.1846 1153.5207,-318.8219"/>
<text text-anchor="middle" x="1140.1066" y="-327.2" font-family="Times,serif" font-size="14.00" fill="#000000">a</text>
</g>
<!-- q5q9&#45;&gt;q4q10 -->
<g id="edge59" class="edge">
<title>q5q9&#45;&gt;q4q10</title>
<path fill="none" stroke="#000000" d="M1118.6985,-375.391C1148.2104,-372.0398 1193.7532,-364.6645 1230.3074,-349 1285.4107,-325.3866 1341.4663,-284.7037 1377.2263,-256.1813"/>
<polygon fill="#000000" stroke="#000000" points="1379.8367,-258.5725 1385.4245,-249.571 1375.4429,-253.1232 1379.8367,-258.5725"/>
<text text-anchor="middle" x="1251.8074" y="-344.2" font-family="Times,serif" font-size="14.00" fill="#000000">b</text>
</g>
<!-- q5q8&#45;&gt;q4q9 -->
<g id="edge52" class="edge">
<title>q5q8&#45;&gt;q4q9</title>
<path fill="none" stroke="#000000" d="M777.4263,-211.464C769.2847,-208.0744 760.2025,-204.9166 751.4895,-203.2 744.7855,-201.8792 737.8105,-202.4089 731.0861,-203.9725"/>
<polygon fill="#000000" stroke="#000000" points="730.016,-200.6396 721.4743,-206.9079 732.0606,-207.3344 730.016,-200.6396"/>
<text text-anchor="middle" x="747.9895" y="-207.2" font-family="Times,serif" font-size="14.00" fill="#000000">a</text>
</g>
<!-- q5q8&#45;&gt;q4q6 -->
<g id="edge58" class="edge">
<title>q5q8&#45;&gt;q4q6</title>
<path fill="none" stroke="#000000" d="M834.4645,-217.6842C862.5864,-210.7794 904.9465,-200.3787 935.9455,-192.7675"/>
<polygon fill="#000000" stroke="#000000" points="937.1088,-196.0859 945.9857,-190.3023 935.4396,-189.2879 937.1088,-196.0859"/>
<text text-anchor="middle" x="888.1976" y="-215.2" font-family="Times,serif" font-size="14.00" fill="#000000">b</text>
</g>
<!-- q5q6&#45;&gt;q4q7 -->
<g id="edge56" class="edge">
<title>q5q6&#45;&gt;q4q7</title>
<path fill="none" stroke="#000000" d="M1280.6612,-203.6038C1237.228,-166.4769 1138.6015,-88.6816 1039.9058,-56 935.032,-21.2726 644.6482,-14.2666 542.774,-57 523.2181,-65.2032 505.7276,-80.796 492.3467,-95.5609"/>
<polygon fill="#000000" stroke="#000000" points="489.6565,-93.3207 485.7348,-103.163 494.9383,-97.9145 489.6565,-93.3207"/>
<text text-anchor="middle" x="888.1976" y="-37.2" font-family="Times,serif" font-size="14.00" fill="#000000">b</text>
</g>
<!-- q5q6&#45;&gt;q4q10 -->
<g id="edge50" class="edge">
<title>q5q6&#45;&gt;q4q10</title>
<path fill="none" stroke="#000000" d="M1330.8966,-210.0084C1337.6265,-207.1946 1344.9376,-204.6563 1352.0081,-203.2 1358.0405,-201.9575 1364.3017,-202.1285 1370.4366,-203.1794"/>
<polygon fill="#000000" stroke="#000000" points="1370.0316,-206.6844 1380.5792,-205.6844 1371.7101,-199.8886 1370.0316,-206.6844"/>
<text text-anchor="middle" x="1355.1154" y="-207.2" font-family="Times,serif" font-size="14.00" fill="#000000">a</text>
</g>
<!-- q5q7&#45;&gt;q4q8 -->
<g id="edge57" class="edge">
<title>q5q7&#45;&gt;q4q8</title>
<path fill="none" stroke="#000000" d="M1116.9043,-288.6365C1125.4674,-286.6913 1134.8948,-285.6831 1143.6066,-287.2 1147.0895,-287.8064 1150.6469,-288.6239 1154.1861,-289.5796"/>
<polygon fill="#000000" stroke="#000000" points="1153.4501,-293.0141 1164.036,-292.5787 1155.4891,-286.3176 1153.4501,-293.0141"/>
<text text-anchor="middle" x="1140.1066" y="-291.2" font-family="Times,serif" font-size="14.00" fill="#000000">b</text>
</g>
<!-- q5q7&#45;&gt;q4q11 -->
<g id="edge51" class="edge">
<title>q5q7&#45;&gt;q4q11</title>
<path fill="none" stroke="#000000" d="M1058.9246,-306.913C1050.2527,-309.8435 1040.9372,-313.5994 1032.9058,-318.2 1025.5803,-322.3962 1018.306,-327.5876 1011.5248,-333.0034"/>
<polygon fill="#000000" stroke="#000000" points="1009.2647,-330.3308 1003.8173,-339.418 1013.7426,-335.7113 1009.2647,-330.3308"/>
<text text-anchor="middle" x="1036.4058" y="-322.2" font-family="Times,serif" font-size="14.00" fill="#000000">a</text>
</g>
</g>
</svg>
