<?xml version="1.0" encoding="UTF-8" standalone="no"?>
<!DOCTYPE svg PUBLIC "-//W3C//DTD SVG 1.1//EN"
 "http://www.w3.org/Graphics/SVG/1.1/DTD/svg11.dtd">
<!-- Generated by graphviz version 2.40.1 (20161225.0304)
 -->
<!-- Title: finite_state_machine Pages: 1 -->
<svg width="621pt" height="245pt"
 viewBox="0.00 0.00 620.85 244.80" xmlns="http://www.w3.org/2000/svg" xmlns:xlink="http://www.w3.org/1999/xlink">
<g id="graph0" class="graph" transform="scale(1 1) rotate(0) translate(4 240.8)">
<title>finite_state_machine</title>
<polygon fill="#ffffff" stroke="transparent" points="-4,4 -4,-240.8 616.8499,-240.8 616.8499,4 -4,4"/>
<g id="node1" class="node">
<title></title>
</g>
<!-- q6 -->
<g id="node7" class="node">
<title>q6</title>
<ellipse fill="none" stroke="#000000" cx="111.6935" cy="-76" rx="20.8887" ry="20.8887"/>
<text text-anchor="middle" x="111.6935" y="-71.8" font-family="Times,serif" font-size="14.00" fill="#000000">q6</text>
</g>
<!-- &#45;&gt;q6 -->
<g id="edge1" class="edge">
<title>&#45;&gt;q6</title>
<path fill="none" stroke="#000000" d="M54.2637,-76C62.7209,-76 72.1012,-76 80.7873,-76"/>
<polygon fill="#000000" stroke="#000000" points="80.9294,-79.5001 90.9294,-76 80.9293,-72.5001 80.9294,-79.5001"/>
</g>
<!-- q7 -->
<g id="node2" class="node">
<title>q7</title>
<ellipse fill="none" stroke="#000000" cx="200.0804" cy="-163" rx="20.8568" ry="20.8568"/>
<ellipse fill="none" stroke="#000000" cx="200.0804" cy="-163" rx="24.8884" ry="24.8884"/>
<text text-anchor="middle" x="200.0804" y="-158.8" font-family="Times,serif" font-size="14.00" fill="#000000">q7</text>
</g>
<!-- q8 -->
<g id="node3" class="node">
<title>q8</title>
<ellipse fill="none" stroke="#000000" cx="292.4673" cy="-113" rx="20.8568" ry="20.8568"/>
<ellipse fill="none" stroke="#000000" cx="292.4673" cy="-113" rx="24.8884" ry="24.8884"/>
<text text-anchor="middle" x="292.4673" y="-108.8" font-family="Times,serif" font-size="14.00" fill="#000000">q8</text>
</g>
<!-- q7&#45;&gt;q8 -->
<g id="edge5" class="edge">
<title>q7&#45;&gt;q8</title>
<path fill="none" stroke="#000000" d="M221.0532,-149.113C227.8741,-144.7927 235.5493,-140.1343 242.7738,-136.2 248.4258,-133.122 254.5576,-130.052 260.5217,-127.2004"/>
<polygon fill="#000000" stroke="#000000" points="262.0846,-130.3334 269.6628,-122.9292 259.1214,-123.9915 262.0846,-130.3334"/>
<text text-anchor="middle" x="246.2738" y="-140.2" font-family="Times,serif" font-size="14.00" fill="#000000">b</text>
</g>
<!-- q11 -->
<g id="node6" class="node">
<title>q11</title>
<ellipse fill="none" stroke="#000000" cx="583.328" cy="-143" rx="25.5409" ry="25.5409"/>
<ellipse fill="none" stroke="#000000" cx="583.328" cy="-143" rx="29.5439" ry="29.5439"/>
<text text-anchor="middle" x="583.328" y="-138.8" font-family="Times,serif" font-size="14.00" fill="#000000">q11</text>
</g>
<!-- q7&#45;&gt;q11 -->
<g id="edge4" class="edge">
<title>q7&#45;&gt;q11</title>
<path fill="none" stroke="#000000" d="M216.9141,-181.3489C234.1198,-198.0118 262.5014,-220 292.4673,-220 292.4673,-220 292.4673,-220 481.2841,-220 512.7714,-220 540.6997,-196.3505 559.3428,-175.2645"/>
<polygon fill="#000000" stroke="#000000" points="562.239,-177.2599 566.0214,-167.3633 556.8929,-172.7411 562.239,-177.2599"/>
<text text-anchor="middle" x="384.0688" y="-224.2" font-family="Times,serif" font-size="14.00" fill="#000000">a</text>
</g>
<!-- q9 -->
<g id="node4" class="node">
<title>q9</title>
<ellipse fill="none" stroke="#000000" cx="384.0688" cy="-106" rx="20.8568" ry="20.8568"/>
<ellipse fill="none" stroke="#000000" cx="384.0688" cy="-106" rx="24.8884" ry="24.8884"/>
<text text-anchor="middle" x="384.0688" y="-101.8" font-family="Times,serif" font-size="14.00" fill="#000000">q9</text>
</g>
<!-- q8&#45;&gt;q9 -->
<g id="edge6" class="edge">
<title>q8&#45;&gt;q9</title>
<path fill="none" stroke="#000000" d="M313.9199,-100.2084C320.5068,-96.9335 327.9301,-93.8677 335.1607,-92.2 340.6412,-90.936 346.4251,-91.1573 352.0213,-92.2025"/>
<polygon fill="#000000" stroke="#000000" points="351.22,-95.6113 361.786,-94.831 353.0395,-88.8519 351.22,-95.6113"/>
<text text-anchor="middle" x="338.268" y="-96.2" font-family="Times,serif" font-size="14.00" fill="#000000">a</text>
</g>
<!-- q8&#45;&gt;q6 -->
<g id="edge7" class="edge">
<title>q8&#45;&gt;q6</title>
<path fill="none" stroke="#000000" d="M268.1394,-108.0207C235.577,-101.356 177.8176,-89.534 142.3262,-82.2698"/>
<polygon fill="#000000" stroke="#000000" points="142.5778,-78.7488 132.0791,-80.1724 141.1742,-85.6066 142.5778,-78.7488"/>
<text text-anchor="middle" x="200.0804" y="-102.2" font-family="Times,serif" font-size="14.00" fill="#000000">b</text>
</g>
<!-- q9&#45;&gt;q8 -->
<g id="edge8" class="edge">
<title>q9&#45;&gt;q8</title>
<path fill="none" stroke="#000000" d="M359.3857,-107.8862C349.6507,-108.6302 338.2862,-109.4986 327.7149,-110.3064"/>
<polygon fill="#000000" stroke="#000000" points="327.202,-106.8353 317.4978,-111.0872 327.7354,-113.815 327.202,-106.8353"/>
<text text-anchor="middle" x="338.268" y="-113.2" font-family="Times,serif" font-size="14.00" fill="#000000">a</text>
</g>
<!-- q10 -->
<g id="node5" class="node">
<title>q10</title>
<ellipse fill="none" stroke="#000000" cx="481.2841" cy="-54" rx="25.5409" ry="25.5409"/>
<ellipse fill="none" stroke="#000000" cx="481.2841" cy="-54" rx="29.5439" ry="29.5439"/>
<text text-anchor="middle" x="481.2841" y="-49.8" font-family="Times,serif" font-size="14.00" fill="#000000">q10</text>
</g>
<!-- q9&#45;&gt;q10 -->
<g id="edge9" class="edge">
<title>q9&#45;&gt;q10</title>
<path fill="none" stroke="#000000" d="M406.1284,-94.2004C417.9628,-87.8702 432.8258,-79.9201 446.2035,-72.7644"/>
<polygon fill="#000000" stroke="#000000" points="448.0053,-75.77 455.1723,-67.9671 444.7036,-69.5975 448.0053,-75.77"/>
<text text-anchor="middle" x="430.2622" y="-87.2" font-family="Times,serif" font-size="14.00" fill="#000000">b</text>
</g>
<!-- q10&#45;&gt;q11 -->
<g id="edge11" class="edge">
<title>q10&#45;&gt;q11</title>
<path fill="none" stroke="#000000" d="M506.9366,-69.1415C516.3902,-75.2 526.9466,-82.5536 535.8061,-90.2 543.4166,-96.7685 550.9987,-104.5074 557.7989,-112.0053"/>
<polygon fill="#000000" stroke="#000000" points="555.5946,-114.7972 564.8353,-119.98 560.8436,-110.1659 555.5946,-114.7972"/>
<text text-anchor="middle" x="532.3061" y="-94.2" font-family="Times,serif" font-size="14.00" fill="#000000">b</text>
</g>
<!-- q10&#45;&gt;q6 -->
<g id="edge10" class="edge">
<title>q10&#45;&gt;q6</title>
<path fill="none" stroke="#000000" d="M459.6077,-33.5849C441.0488,-18.2931 412.8357,0 384.0688,0 200.0804,0 200.0804,0 200.0804,0 168.8148,0 143.0959,-27.6788 127.6156,-49.6288"/>
<polygon fill="#000000" stroke="#000000" points="124.6711,-47.7356 122.0032,-57.9891 130.4829,-51.6373 124.6711,-47.7356"/>
<text text-anchor="middle" x="292.4673" y="-4.2" font-family="Times,serif" font-size="14.00" fill="#000000">a</text>
</g>
<!-- q11&#45;&gt;q7 -->
<g id="edge12" class="edge">
<title>q11&#45;&gt;q7</title>
<path fill="none" stroke="#000000" d="M555.5872,-153.1782C535.295,-159.7194 506.9452,-167 481.2841,-167 292.4673,-167 292.4673,-167 292.4673,-167 273.4553,-167 252.2632,-166.1441 234.9763,-165.2241"/>
<polygon fill="#000000" stroke="#000000" points="234.9526,-161.7173 224.7718,-164.65 234.5594,-168.7062 234.9526,-161.7173"/>
<text text-anchor="middle" x="384.0688" y="-171.2" font-family="Times,serif" font-size="14.00" fill="#000000">a</text>
</g>
<!-- q11&#45;&gt;q9 -->
<g id="edge13" class="edge">
<title>q11&#45;&gt;q9</title>
<path fill="none" stroke="#000000" d="M554.1673,-137.5852C518.1662,-130.9003 457.0117,-119.5446 418.671,-112.4252"/>
<polygon fill="#000000" stroke="#000000" points="418.9728,-108.9215 408.5019,-110.5369 417.6948,-115.8039 418.9728,-108.9215"/>
<text text-anchor="middle" x="481.2841" y="-133.2" font-family="Times,serif" font-size="14.00" fill="#000000">b</text>
</g>
<!-- q6&#45;&gt;q7 -->
<g id="edge3" class="edge">
<title>q6&#45;&gt;q7</title>
<path fill="none" stroke="#000000" d="M126.6871,-90.7584C139.8929,-103.7569 159.3949,-122.953 174.9772,-138.2908"/>
<polygon fill="#000000" stroke="#000000" points="172.685,-140.9456 182.2671,-145.4662 177.5955,-135.9569 172.685,-140.9456"/>
<text text-anchor="middle" x="153.8869" y="-123.2" font-family="Times,serif" font-size="14.00" fill="#000000">b</text>
</g>
<!-- q6&#45;&gt;q10 -->
<g id="edge2" class="edge">
<title>q6&#45;&gt;q10</title>
<path fill="none" stroke="#000000" d="M130.9776,-67.9557C148.6369,-61.3232 175.6622,-53 200.0804,-53 200.0804,-53 200.0804,-53 384.0688,-53 402.7987,-53 423.5574,-53.1879 441.0667,-53.4008"/>
<polygon fill="#000000" stroke="#000000" points="441.4574,-56.906 451.5016,-53.5351 441.5475,-49.9066 441.4574,-56.906"/>
<text text-anchor="middle" x="292.4673" y="-57.2" font-family="Times,serif" font-size="14.00" fill="#000000">a</text>
</g>
</g>
</svg>
