<?xml version="1.0" encoding="UTF-8" standalone="no"?>
<!DOCTYPE svg PUBLIC "-//W3C//DTD SVG 1.1//EN"
 "http://www.w3.org/Graphics/SVG/1.1/DTD/svg11.dtd">
<!-- Generated by graphviz version 2.40.1 (20161225.0304)
 -->
<!-- Title: finite_state_machine Pages: 1 -->
<svg width="486pt" height="105pt"
 viewBox="0.00 0.00 485.93 105.21" xmlns="http://www.w3.org/2000/svg" xmlns:xlink="http://www.w3.org/1999/xlink">
<g id="graph0" class="graph" transform="scale(1 1) rotate(0) translate(4 101.209)">
<title>finite_state_machine</title>
<polygon fill="#ffffff" stroke="transparent" points="-4,4 -4,-101.209 481.9345,-101.209 481.9345,4 -4,4"/>
<!-- q4 -->
<g id="node1" class="node">
<title>q4</title>
<ellipse fill="none" stroke="#000000" cx="368.8542" cy="-41.409" rx="20.8568" ry="20.8568"/>
<ellipse fill="none" stroke="#000000" cx="368.8542" cy="-41.409" rx="24.8884" ry="24.8884"/>
<text text-anchor="middle" x="368.8542" y="-37.209" font-family="Times,serif" font-size="14.00" fill="#000000">q4</text>
</g>
<!-- q5 -->
<g id="node6" class="node">
<title>q5</title>
<ellipse fill="none" stroke="#000000" cx="457.2411" cy="-41.409" rx="20.8887" ry="20.8887"/>
<text text-anchor="middle" x="457.2411" y="-37.209" font-family="Times,serif" font-size="14.00" fill="#000000">q5</text>
</g>
<!-- q4&#45;&gt;q5 -->
<g id="edge5" class="edge">
<title>q4&#45;&gt;q5</title>
<path fill="none" stroke="#000000" d="M384.7199,-60.6021C392.0292,-67.9646 401.3463,-75.5266 411.5476,-79.409 422.5466,-83.5949 432.8153,-76.5069 440.821,-67.3603"/>
<polygon fill="#000000" stroke="#000000" points="443.6317,-69.4472 446.9799,-59.3953 438.094,-65.1653 443.6317,-69.4472"/>
<text text-anchor="middle" x="415.0476" y="-84.609" font-family="Times,serif" font-size="14.00" fill="#000000">a</text>
</g>
<!-- q4&#45;&gt;q5 -->
<g id="edge10" class="edge">
<title>q4&#45;&gt;q5</title>
<path fill="none" stroke="#000000" d="M393.9459,-41.409C403.9747,-41.409 415.6286,-41.409 426.1831,-41.409"/>
<polygon fill="#000000" stroke="#000000" points="426.2701,-44.9091 436.2701,-41.409 426.2701,-37.9091 426.2701,-44.9091"/>
<text text-anchor="middle" x="415.0476" y="-45.609" font-family="Times,serif" font-size="14.00" fill="#000000">b</text>
</g>
<g id="node2" class="node">
<title></title>
</g>
<!-- q1 -->
<g id="node3" class="node">
<title>q1</title>
<ellipse fill="none" stroke="#000000" cx="111.6935" cy="-41.409" rx="20.8887" ry="20.8887"/>
<text text-anchor="middle" x="111.6935" y="-37.209" font-family="Times,serif" font-size="14.00" fill="#000000">q1</text>
</g>
<!-- &#45;&gt;q1 -->
<g id="edge1" class="edge">
<title>&#45;&gt;q1</title>
<path fill="none" stroke="#000000" d="M54.2637,-41.409C62.7209,-41.409 72.1012,-41.409 80.7873,-41.409"/>
<polygon fill="#000000" stroke="#000000" points="80.9294,-44.9091 90.9294,-41.409 80.9293,-37.9091 80.9294,-44.9091"/>
</g>
<!-- q2 -->
<g id="node4" class="node">
<title>q2</title>
<ellipse fill="none" stroke="#000000" cx="196.0804" cy="-41.409" rx="20.8887" ry="20.8887"/>
<text text-anchor="middle" x="196.0804" y="-37.209" font-family="Times,serif" font-size="14.00" fill="#000000">q2</text>
</g>
<!-- q1&#45;&gt;q2 -->
<g id="edge2" class="edge">
<title>q1&#45;&gt;q2</title>
<path fill="none" stroke="#000000" d="M132.5531,-41.409C142.2902,-41.409 154.0843,-41.409 164.854,-41.409"/>
<polygon fill="#000000" stroke="#000000" points="165.1682,-44.909 175.1682,-41.409 165.1681,-37.909 165.1682,-44.909"/>
<text text-anchor="middle" x="153.8869" y="-45.609" font-family="Times,serif" font-size="14.00" fill="#000000">a</text>
</g>
<!-- q1&#45;&gt;q2 -->
<g id="edge7" class="edge">
<title>q1&#45;&gt;q2</title>
<path fill="none" stroke="#000000" d="M129.0479,-29.7251C135.469,-26.052 142.991,-22.4708 150.3869,-20.609 157.3152,-18.8648 164.4914,-20.37 171.0463,-23.2226"/>
<polygon fill="#000000" stroke="#000000" points="169.6467,-26.4453 180.1044,-28.1444 172.9888,-20.2947 169.6467,-26.4453"/>
<text text-anchor="middle" x="153.8869" y="-25.609" font-family="Times,serif" font-size="14.00" fill="#000000">b</text>
</g>
<!-- q3 -->
<g id="node5" class="node">
<title>q3</title>
<ellipse fill="none" stroke="#000000" cx="280.4673" cy="-41.409" rx="20.8887" ry="20.8887"/>
<text text-anchor="middle" x="280.4673" y="-37.209" font-family="Times,serif" font-size="14.00" fill="#000000">q3</text>
</g>
<!-- q2&#45;&gt;q3 -->
<g id="edge3" class="edge">
<title>q2&#45;&gt;q3</title>
<path fill="none" stroke="#000000" d="M216.94,-41.409C226.6771,-41.409 238.4712,-41.409 249.2409,-41.409"/>
<polygon fill="#000000" stroke="#000000" points="249.5551,-44.909 259.5551,-41.409 249.555,-37.909 249.5551,-44.909"/>
<text text-anchor="middle" x="238.2738" y="-45.609" font-family="Times,serif" font-size="14.00" fill="#000000">a</text>
</g>
<!-- q2&#45;&gt;q3 -->
<g id="edge8" class="edge">
<title>q2&#45;&gt;q3</title>
<path fill="none" stroke="#000000" d="M213.4348,-29.7251C219.8559,-26.052 227.3779,-22.4708 234.7738,-20.609 241.7021,-18.8648 248.8783,-20.37 255.4332,-23.2226"/>
<polygon fill="#000000" stroke="#000000" points="254.0336,-26.4453 264.4913,-28.1444 257.3757,-20.2947 254.0336,-26.4453"/>
<text text-anchor="middle" x="238.2738" y="-25.609" font-family="Times,serif" font-size="14.00" fill="#000000">b</text>
</g>
<!-- q3&#45;&gt;q4 -->
<g id="edge4" class="edge">
<title>q3&#45;&gt;q4</title>
<path fill="none" stroke="#000000" d="M301.4137,-41.409C311.0852,-41.409 322.8331,-41.409 333.7967,-41.409"/>
<polygon fill="#000000" stroke="#000000" points="333.9744,-44.909 343.9744,-41.409 333.9743,-37.909 333.9744,-44.909"/>
<text text-anchor="middle" x="322.6607" y="-45.609" font-family="Times,serif" font-size="14.00" fill="#000000">a</text>
</g>
<!-- q3&#45;&gt;q4 -->
<g id="edge9" class="edge">
<title>q3&#45;&gt;q4</title>
<path fill="none" stroke="#000000" d="M297.8217,-29.7251C304.2428,-26.052 311.7648,-22.4708 319.1607,-20.609 325.9856,-18.8908 333.0919,-19.98 339.7245,-22.3745"/>
<polygon fill="#000000" stroke="#000000" points="338.4669,-25.6483 349.0151,-26.6417 341.3887,-19.2872 338.4669,-25.6483"/>
<text text-anchor="middle" x="322.6607" y="-25.609" font-family="Times,serif" font-size="14.00" fill="#000000">b</text>
</g>
<!-- q5&#45;&gt;q4 -->
<g id="edge6" class="edge">
<title>q5&#45;&gt;q4</title>
<path fill="none" stroke="#000000" d="M439.3684,-30.6401C433.0226,-27.3897 425.6805,-24.25 418.5476,-22.609 412.1765,-21.1431 405.5242,-21.9299 399.2347,-23.8344"/>
<polygon fill="#000000" stroke="#000000" points="397.7572,-20.6548 389.7425,-27.5841 400.3291,-27.1653 397.7572,-20.6548"/>
<text text-anchor="middle" x="415.0476" y="-27.609" font-family="Times,serif" font-size="14.00" fill="#000000">a</text>
</g>
<!-- q5&#45;&gt;q4 -->
<g id="edge11" class="edge">
<title>q5&#45;&gt;q4</title>
<path fill="none" stroke="#000000" d="M447.4406,-23.0888C439.0431,-10.0974 426.0346,4.0963 411.5476,-1.609 404.2877,-4.4681 397.5327,-9.2079 391.6355,-14.4385"/>
<polygon fill="#000000" stroke="#000000" points="388.8649,-12.2523 384.1589,-21.7447 393.7573,-17.2588 388.8649,-12.2523"/>
<text text-anchor="middle" x="415.0476" y="-6.609" font-family="Times,serif" font-size="14.00" fill="#000000">b</text>
</g>
</g>
</svg>
