<?xml version="1.0" encoding="UTF-8" standalone="no"?>
<!DOCTYPE svg PUBLIC "-//W3C//DTD SVG 1.1//EN"
 "http://www.w3.org/Graphics/SVG/1.1/DTD/svg11.dtd">
<!-- Generated by graphviz version 2.40.1 (20161225.0304)
 -->
<!-- Title: finite_state_machine Pages: 1 -->
<svg width="955pt" height="176pt"
 viewBox="0.00 0.00 954.64 175.80" xmlns="http://www.w3.org/2000/svg" xmlns:xlink="http://www.w3.org/1999/xlink">
<g id="graph0" class="graph" transform="scale(1 1) rotate(0) translate(4 171.8)">
<title>finite_state_machine</title>
<polygon fill="#ffffff" stroke="transparent" points="-4,4 -4,-171.8 950.6419,-171.8 950.6419,4 -4,4"/>
<!-- 12 -->
<g id="node1" class="node">
<title>12</title>
<ellipse fill="none" stroke="#000000" cx="921.9485" cy="-128" rx="20.8568" ry="20.8568"/>
<ellipse fill="none" stroke="#000000" cx="921.9485" cy="-128" rx="24.8884" ry="24.8884"/>
<text text-anchor="middle" x="921.9485" y="-123.8" font-family="Times,serif" font-size="14.00" fill="#000000">12</text>
</g>
<g id="node2" class="node">
<title></title>
</g>
<!-- 1 -->
<g id="node3" class="node">
<title>1</title>
<ellipse fill="none" stroke="#000000" cx="109" cy="-113" rx="18" ry="18"/>
<text text-anchor="middle" x="109" y="-108.8" font-family="Times,serif" font-size="14.00" fill="#000000">1</text>
</g>
<!-- &#45;&gt;1 -->
<g id="edge1" class="edge">
<title>&#45;&gt;1</title>
<path fill="none" stroke="#000000" d="M54.3048,-113C62.6909,-113 71.9407,-113 80.4103,-113"/>
<polygon fill="#000000" stroke="#000000" points="80.5976,-116.5001 90.5976,-113 80.5976,-109.5001 80.5976,-116.5001"/>
</g>
<!-- 11 -->
<g id="node4" class="node">
<title>11</title>
<ellipse fill="none" stroke="#000000" cx="834.347" cy="-128" rx="20.8887" ry="20.8887"/>
<text text-anchor="middle" x="834.347" y="-123.8" font-family="Times,serif" font-size="14.00" fill="#000000">11</text>
</g>
<!-- 1&#45;&gt;11 -->
<g id="edge2" class="edge">
<title>1&#45;&gt;11</title>
<path fill="none" stroke="#000000" d="M124.57,-122.3933C144.737,-133.6461 181.3302,-151 215.2104,-151 215.2104,-151 215.2104,-151 725.4431,-151 752.8016,-151 783.208,-143.9654 804.9234,-137.677"/>
<polygon fill="#000000" stroke="#000000" points="805.9768,-141.0151 814.5401,-134.7764 803.9554,-134.3133 805.9768,-141.0151"/>
<text text-anchor="middle" x="452.7406" y="-155.2" font-family="Times,serif" font-size="14.00" fill="#000000">lamda</text>
</g>
<!-- 2 -->
<g id="node5" class="node">
<title>2</title>
<ellipse fill="none" stroke="#000000" cx="215.2104" cy="-75" rx="18" ry="18"/>
<text text-anchor="middle" x="215.2104" y="-70.8" font-family="Times,serif" font-size="14.00" fill="#000000">2</text>
</g>
<!-- 1&#45;&gt;2 -->
<g id="edge3" class="edge">
<title>1&#45;&gt;2</title>
<path fill="none" stroke="#000000" d="M126.0645,-106.8946C142.9425,-100.856 169.0168,-91.5272 188.6137,-84.5158"/>
<polygon fill="#000000" stroke="#000000" points="189.9518,-87.7544 198.1882,-81.0902 187.5936,-81.1635 189.9518,-87.7544"/>
<text text-anchor="middle" x="162.1052" y="-104.2" font-family="Times,serif" font-size="14.00" fill="#000000">lamda</text>
</g>
<!-- 11&#45;&gt;12 -->
<g id="edge15" class="edge">
<title>11&#45;&gt;12</title>
<path fill="none" stroke="#000000" d="M855.1073,-128C864.6161,-128 876.1502,-128 886.9415,-128"/>
<polygon fill="#000000" stroke="#000000" points="886.97,-131.5001 896.9699,-128 886.9699,-124.5001 886.97,-131.5001"/>
<text text-anchor="middle" x="876.1477" y="-132.2" font-family="Times,serif" font-size="14.00" fill="#000000">a</text>
</g>
<!-- 3 -->
<g id="node6" class="node">
<title>3</title>
<ellipse fill="none" stroke="#000000" cx="321.4208" cy="-105" rx="18" ry="18"/>
<text text-anchor="middle" x="321.4208" y="-100.8" font-family="Times,serif" font-size="14.00" fill="#000000">3</text>
</g>
<!-- 2&#45;&gt;3 -->
<g id="edge4" class="edge">
<title>2&#45;&gt;3</title>
<path fill="none" stroke="#000000" d="M232.7489,-79.9539C249.43,-84.6656 274.7761,-91.8248 294.1038,-97.2841"/>
<polygon fill="#000000" stroke="#000000" points="293.2814,-100.6887 303.8563,-100.0388 295.1842,-93.9522 293.2814,-100.6887"/>
<text text-anchor="middle" x="268.3156" y="-99.2" font-family="Times,serif" font-size="14.00" fill="#000000">lamda</text>
</g>
<!-- 7 -->
<g id="node10" class="node">
<title>7</title>
<ellipse fill="none" stroke="#000000" cx="321.4208" cy="-51" rx="18" ry="18"/>
<text text-anchor="middle" x="321.4208" y="-46.8" font-family="Times,serif" font-size="14.00" fill="#000000">7</text>
</g>
<!-- 2&#45;&gt;7 -->
<g id="edge8" class="edge">
<title>2&#45;&gt;7</title>
<path fill="none" stroke="#000000" d="M231.3249,-66.705C237.4114,-63.9014 244.4913,-61.0229 251.2104,-59.2 264.72,-55.5349 280.1292,-53.5079 293.0634,-52.387"/>
<polygon fill="#000000" stroke="#000000" points="293.5317,-55.8622 303.2499,-51.6424 293.0213,-48.8808 293.5317,-55.8622"/>
<text text-anchor="middle" x="268.3156" y="-64.2" font-family="Times,serif" font-size="14.00" fill="#000000">lamda</text>
</g>
<!-- 4 -->
<g id="node7" class="node">
<title>4</title>
<ellipse fill="none" stroke="#000000" cx="399.6354" cy="-105" rx="18" ry="18"/>
<text text-anchor="middle" x="399.6354" y="-100.8" font-family="Times,serif" font-size="14.00" fill="#000000">4</text>
</g>
<!-- 3&#45;&gt;4 -->
<g id="edge5" class="edge">
<title>3&#45;&gt;4</title>
<path fill="none" stroke="#000000" d="M339.5614,-105C349.0382,-105 360.8472,-105 371.481,-105"/>
<polygon fill="#000000" stroke="#000000" points="371.5932,-108.5001 381.5932,-105 371.5931,-101.5001 371.5932,-108.5001"/>
<text text-anchor="middle" x="360.5281" y="-109.2" font-family="Times,serif" font-size="14.00" fill="#000000">a</text>
</g>
<!-- 5 -->
<g id="node8" class="node">
<title>5</title>
<ellipse fill="none" stroke="#000000" cx="559.8458" cy="-106" rx="18" ry="18"/>
<text text-anchor="middle" x="559.8458" y="-101.8" font-family="Times,serif" font-size="14.00" fill="#000000">5</text>
</g>
<!-- 4&#45;&gt;5 -->
<g id="edge6" class="edge">
<title>4&#45;&gt;5</title>
<path fill="none" stroke="#000000" d="M417.7021,-105.1128C445.3467,-105.2853 498.3905,-105.6164 531.2828,-105.8217"/>
<polygon fill="#000000" stroke="#000000" points="531.5776,-109.3235 541.5993,-105.8861 531.6213,-102.3237 531.5776,-109.3235"/>
<text text-anchor="middle" x="452.7406" y="-110.2" font-family="Times,serif" font-size="14.00" fill="#000000">b</text>
</g>
<!-- 6 -->
<g id="node9" class="node">
<title>6</title>
<ellipse fill="none" stroke="#000000" cx="725.4431" cy="-77" rx="18" ry="18"/>
<text text-anchor="middle" x="725.4431" y="-72.8" font-family="Times,serif" font-size="14.00" fill="#000000">6</text>
</g>
<!-- 5&#45;&gt;6 -->
<g id="edge7" class="edge">
<title>5&#45;&gt;6</title>
<path fill="none" stroke="#000000" d="M578.0706,-104.7147C603.3314,-102.6838 650.3,-98.0038 689.4431,-89 692.4908,-88.299 695.646,-87.4453 698.7641,-86.5198"/>
<polygon fill="#000000" stroke="#000000" points="699.9712,-89.8082 708.4211,-83.4168 697.8298,-83.1438 699.9712,-89.8082"/>
<text text-anchor="middle" x="616.5393" y="-108.2" font-family="Times,serif" font-size="14.00" fill="#000000">lamda</text>
</g>
<!-- 6&#45;&gt;11 -->
<g id="edge14" class="edge">
<title>6&#45;&gt;11</title>
<path fill="none" stroke="#000000" d="M741.9833,-84.7458C759.0374,-92.7323 785.9411,-105.3314 806.3232,-114.8764"/>
<polygon fill="#000000" stroke="#000000" points="804.9107,-118.0796 815.4512,-119.1511 807.8794,-111.7403 804.9107,-118.0796"/>
<text text-anchor="middle" x="778.5483" y="-113.2" font-family="Times,serif" font-size="14.00" fill="#000000">lamda</text>
</g>
<!-- 6&#45;&gt;2 -->
<g id="edge13" class="edge">
<title>6&#45;&gt;2</title>
<path fill="none" stroke="#000000" d="M714.556,-62.1536C696.7651,-39.7783 659.1453,0 616.5393,0 321.4208,0 321.4208,0 321.4208,0 284.63,0 251.6349,-30.4 232.5149,-52.4912"/>
<polygon fill="#000000" stroke="#000000" points="229.8214,-50.2562 226.1171,-60.1824 235.203,-54.7327 229.8214,-50.2562"/>
<text text-anchor="middle" x="452.7406" y="-4.2" font-family="Times,serif" font-size="14.00" fill="#000000">lamda</text>
</g>
<!-- 8 -->
<g id="node11" class="node">
<title>8</title>
<ellipse fill="none" stroke="#000000" cx="399.6354" cy="-51" rx="18" ry="18"/>
<text text-anchor="middle" x="399.6354" y="-46.8" font-family="Times,serif" font-size="14.00" fill="#000000">8</text>
</g>
<!-- 7&#45;&gt;8 -->
<g id="edge9" class="edge">
<title>7&#45;&gt;8</title>
<path fill="none" stroke="#000000" d="M339.5614,-51C349.0382,-51 360.8472,-51 371.481,-51"/>
<polygon fill="#000000" stroke="#000000" points="371.5932,-54.5001 381.5932,-51 371.5931,-47.5001 371.5932,-54.5001"/>
<text text-anchor="middle" x="360.5281" y="-55.2" font-family="Times,serif" font-size="14.00" fill="#000000">a</text>
</g>
<!-- 9 -->
<g id="node12" class="node">
<title>9</title>
<ellipse fill="none" stroke="#000000" cx="505.8458" cy="-50" rx="18" ry="18"/>
<text text-anchor="middle" x="505.8458" y="-45.8" font-family="Times,serif" font-size="14.00" fill="#000000">9</text>
</g>
<!-- 8&#45;&gt;9 -->
<g id="edge10" class="edge">
<title>8&#45;&gt;9</title>
<path fill="none" stroke="#000000" d="M417.6525,-50.8304C434.0553,-50.6759 458.5419,-50.4454 477.5545,-50.2664"/>
<polygon fill="#000000" stroke="#000000" points="477.7737,-53.7646 487.7403,-50.1705 477.7077,-46.7649 477.7737,-53.7646"/>
<text text-anchor="middle" x="452.7406" y="-55.2" font-family="Times,serif" font-size="14.00" fill="#000000">b</text>
</g>
<!-- 10 -->
<g id="node13" class="node">
<title>10</title>
<ellipse fill="none" stroke="#000000" cx="616.5393" cy="-49" rx="20.8887" ry="20.8887"/>
<text text-anchor="middle" x="616.5393" y="-44.8" font-family="Times,serif" font-size="14.00" fill="#000000">10</text>
</g>
<!-- 9&#45;&gt;10 -->
<g id="edge11" class="edge">
<title>9&#45;&gt;10</title>
<path fill="none" stroke="#000000" d="M524.1246,-49.8349C540.781,-49.6844 565.7271,-49.459 585.5042,-49.2804"/>
<polygon fill="#000000" stroke="#000000" points="585.6206,-52.7796 595.5885,-49.1893 585.5573,-45.7798 585.6206,-52.7796"/>
<text text-anchor="middle" x="559.8458" y="-54.2" font-family="Times,serif" font-size="14.00" fill="#000000">a</text>
</g>
<!-- 10&#45;&gt;6 -->
<g id="edge12" class="edge">
<title>10&#45;&gt;6</title>
<path fill="none" stroke="#000000" d="M636.768,-54.201C653.9991,-58.6312 678.9192,-65.0384 697.9568,-69.9331"/>
<polygon fill="#000000" stroke="#000000" points="697.2852,-73.3742 707.8418,-72.4746 699.0284,-66.5947 697.2852,-73.3742"/>
<text text-anchor="middle" x="672.3379" y="-72.2" font-family="Times,serif" font-size="14.00" fill="#000000">lamda</text>
</g>
</g>
</svg>
