<?xml version="1.0" encoding="UTF-8" standalone="no"?>
<!DOCTYPE svg PUBLIC "-//W3C//DTD SVG 1.1//EN"
 "http://www.w3.org/Graphics/SVG/1.1/DTD/svg11.dtd">
<!-- Generated by graphviz version 2.40.1 (20161225.0304)
 -->
<!-- Title: finite_state_machine Pages: 1 -->
<svg width="379pt" height="52pt"
 viewBox="0.00 0.00 379.21 52.20" xmlns="http://www.w3.org/2000/svg" xmlns:xlink="http://www.w3.org/1999/xlink">
<g id="graph0" class="graph" transform="scale(1 1) rotate(0) translate(4 48.196)">
<title>finite_state_machine</title>
<polygon fill="#ffffff" stroke="transparent" points="-4,4 -4,-48.196 375.2146,-48.196 375.2146,4 -4,4"/>
<!-- 2 -->
<g id="node1" class="node">
<title>2</title>
<ellipse fill="none" stroke="#000000" cx="191.2146" cy="-22.196" rx="18" ry="18"/>
<ellipse fill="none" stroke="#000000" cx="191.2146" cy="-22.196" rx="22" ry="22"/>
<text text-anchor="middle" x="191.2146" y="-17.996" font-family="Times,serif" font-size="14.00" fill="#000000">2</text>
</g>
<!-- 3 -->
<g id="node4" class="node">
<title>3</title>
<ellipse fill="none" stroke="#000000" cx="274.2146" cy="-22.196" rx="18" ry="18"/>
<text text-anchor="middle" x="274.2146" y="-17.996" font-family="Times,serif" font-size="14.00" fill="#000000">3</text>
</g>
<!-- 2&#45;&gt;3 -->
<g id="edge3" class="edge">
<title>2&#45;&gt;3</title>
<path fill="none" stroke="#000000" d="M213.4571,-22.196C223.469,-22.196 235.4023,-22.196 246.0318,-22.196"/>
<polygon fill="#000000" stroke="#000000" points="246.1073,-25.6961 256.1073,-22.196 246.1072,-18.6961 246.1073,-25.6961"/>
<text text-anchor="middle" x="234.7146" y="-26.396" font-family="Times,serif" font-size="14.00" fill="#000000">a</text>
</g>
<g id="node2" class="node">
<title></title>
</g>
<!-- 1 -->
<g id="node3" class="node">
<title>1</title>
<ellipse fill="none" stroke="#000000" cx="109" cy="-22.196" rx="18" ry="18"/>
<text text-anchor="middle" x="109" y="-17.996" font-family="Times,serif" font-size="14.00" fill="#000000">1</text>
</g>
<!-- &#45;&gt;1 -->
<g id="edge1" class="edge">
<title>&#45;&gt;1</title>
<path fill="none" stroke="#000000" d="M54.3048,-22.196C62.6909,-22.196 71.9407,-22.196 80.4103,-22.196"/>
<polygon fill="#000000" stroke="#000000" points="80.5976,-25.696 90.5976,-22.196 80.5976,-18.696 80.5976,-25.696"/>
</g>
<!-- 1&#45;&gt;2 -->
<g id="edge2" class="edge">
<title>1&#45;&gt;2</title>
<path fill="none" stroke="#000000" d="M127.2461,-22.196C136.4709,-22.196 147.9479,-22.196 158.6234,-22.196"/>
<polygon fill="#000000" stroke="#000000" points="158.9188,-25.696 168.9187,-22.196 158.9187,-18.696 158.9188,-25.696"/>
<text text-anchor="middle" x="148.1073" y="-26.396" font-family="Times,serif" font-size="14.00" fill="#000000">a</text>
</g>
<!-- 3&#45;&gt;2 -->
<g id="edge6" class="edge">
<title>3&#45;&gt;2</title>
<path fill="none" stroke="#000000" d="M259.5801,-11.4026C253.3281,-7.4322 245.7443,-3.4148 238.2146,-1.396 231.3816,.4361 224.2731,-.8615 217.7152,-3.526"/>
<polygon fill="#000000" stroke="#000000" points="215.8977,-.5246 208.597,-8.2026 219.0923,-6.7532 215.8977,-.5246"/>
<text text-anchor="middle" x="234.7146" y="-6.396" font-family="Times,serif" font-size="14.00" fill="#000000">b</text>
</g>
<!-- 4 -->
<g id="node5" class="node">
<title>4</title>
<ellipse fill="none" stroke="#000000" cx="353.2146" cy="-22.196" rx="18" ry="18"/>
<text text-anchor="middle" x="353.2146" y="-17.996" font-family="Times,serif" font-size="14.00" fill="#000000">4</text>
</g>
<!-- 3&#45;&gt;4 -->
<g id="edge4" class="edge">
<title>3&#45;&gt;4</title>
<path fill="none" stroke="#000000" d="M292.5374,-22.196C302.1093,-22.196 314.0369,-22.196 324.7775,-22.196"/>
<polygon fill="#000000" stroke="#000000" points="324.9912,-25.696 334.9912,-22.196 324.9912,-18.696 324.9912,-25.696"/>
<text text-anchor="middle" x="313.7146" y="-26.396" font-family="Times,serif" font-size="14.00" fill="#000000">a</text>
</g>
<!-- 4&#45;&gt;3 -->
<g id="edge5" class="edge">
<title>4&#45;&gt;3</title>
<path fill="none" stroke="#000000" d="M339.786,-10.0107C331.5533,-4.0114 320.6274,1.396 310.2146,-1.396 305.9791,-2.5316 301.7266,-4.2995 297.7035,-6.3358"/>
<polygon fill="#000000" stroke="#000000" points="295.7902,-3.3981 288.8491,-11.4026 299.2669,-9.4737 295.7902,-3.3981"/>
<text text-anchor="middle" x="313.7146" y="-6.396" font-family="Times,serif" font-size="14.00" fill="#000000">b</text>
</g>
</g>
</svg>
