<?xml version="1.0" encoding="UTF-8" standalone="no"?>
<!DOCTYPE svg PUBLIC "-//W3C//DTD SVG 1.1//EN"
 "http://www.w3.org/Graphics/SVG/1.1/DTD/svg11.dtd">
<!-- Generated by graphviz version 2.40.1 (20161225.0304)
 -->
<!-- Title: finite_state_machine Pages: 1 -->
<svg width="1352pt" height="238pt"
 viewBox="0.00 0.00 1351.67 237.80" xmlns="http://www.w3.org/2000/svg" xmlns:xlink="http://www.w3.org/1999/xlink">
<g id="graph0" class="graph" transform="scale(1 1) rotate(0) translate(4 233.8)">
<title>finite_state_machine</title>
<polygon fill="#ffffff" stroke="transparent" points="-4,4 -4,-233.8 1347.6684,-233.8 1347.6684,4 -4,4"/>
<!-- 13 -->
<g id="node1" class="node">
<title>13</title>
<ellipse fill="none" stroke="#000000" cx="1318.975" cy="-171" rx="20.8568" ry="20.8568"/>
<ellipse fill="none" stroke="#000000" cx="1318.975" cy="-171" rx="24.8884" ry="24.8884"/>
<text text-anchor="middle" x="1318.975" y="-166.8" font-family="Times,serif" font-size="14.00" fill="#000000">13</text>
</g>
<g id="node2" class="node">
<title></title>
</g>
<!-- 0 -->
<g id="node3" class="node">
<title>0</title>
<ellipse fill="none" stroke="#000000" cx="109" cy="-180" rx="18" ry="18"/>
<text text-anchor="middle" x="109" y="-175.8" font-family="Times,serif" font-size="14.00" fill="#000000">0</text>
</g>
<!-- &#45;&gt;0 -->
<g id="edge1" class="edge">
<title>&#45;&gt;0</title>
<path fill="none" stroke="#000000" d="M54.3048,-180C62.6909,-180 71.9407,-180 80.4103,-180"/>
<polygon fill="#000000" stroke="#000000" points="80.5976,-183.5001 90.5976,-180 80.5976,-176.5001 80.5976,-183.5001"/>
</g>
<!-- 1 -->
<g id="node4" class="node">
<title>1</title>
<ellipse fill="none" stroke="#000000" cx="187.2146" cy="-180" rx="18" ry="18"/>
<text text-anchor="middle" x="187.2146" y="-175.8" font-family="Times,serif" font-size="14.00" fill="#000000">1</text>
</g>
<!-- 0&#45;&gt;1 -->
<g id="edge2" class="edge">
<title>0&#45;&gt;1</title>
<path fill="none" stroke="#000000" d="M127.1406,-180C136.6174,-180 148.4264,-180 159.0602,-180"/>
<polygon fill="#000000" stroke="#000000" points="159.1724,-183.5001 169.1724,-180 159.1723,-176.5001 159.1724,-183.5001"/>
<text text-anchor="middle" x="148.1073" y="-184.2" font-family="Times,serif" font-size="14.00" fill="#000000">a</text>
</g>
<!-- 9 -->
<g id="node5" class="node">
<title>9</title>
<ellipse fill="none" stroke="#000000" cx="926.4854" cy="-171" rx="18" ry="18"/>
<text text-anchor="middle" x="926.4854" y="-166.8" font-family="Times,serif" font-size="14.00" fill="#000000">9</text>
</g>
<!-- 1&#45;&gt;9 -->
<g id="edge3" class="edge">
<title>1&#45;&gt;9</title>
<path fill="none" stroke="#000000" d="M203.2888,-188.3273C223.6851,-198.1033 260.2138,-213 293.425,-213 293.425,-213 293.425,-213 820.275,-213 850.1946,-213 881.7427,-198.4087 902.6052,-186.4268"/>
<polygon fill="#000000" stroke="#000000" points="904.6109,-189.3054 911.3945,-181.167 901.0164,-183.2988 904.6109,-189.3054"/>
<text text-anchor="middle" x="556.0646" y="-217.2" font-family="Times,serif" font-size="14.00" fill="#000000">lamda</text>
</g>
<!-- 2 -->
<g id="node6" class="node">
<title>2</title>
<ellipse fill="none" stroke="#000000" cx="293.425" cy="-144" rx="18" ry="18"/>
<text text-anchor="middle" x="293.425" y="-139.8" font-family="Times,serif" font-size="14.00" fill="#000000">2</text>
</g>
<!-- 1&#45;&gt;2 -->
<g id="edge4" class="edge">
<title>1&#45;&gt;2</title>
<path fill="none" stroke="#000000" d="M204.2791,-174.216C221.0572,-168.529 246.9231,-159.7618 266.4798,-153.1331"/>
<polygon fill="#000000" stroke="#000000" points="267.7028,-156.4142 276.05,-149.8893 265.4556,-149.7847 267.7028,-156.4142"/>
<text text-anchor="middle" x="240.3198" y="-172.2" font-family="Times,serif" font-size="14.00" fill="#000000">lamda</text>
</g>
<!-- 9&#45;&gt;13 -->
<g id="edge15" class="edge">
<title>9&#45;&gt;13</title>
<path fill="none" stroke="#000000" d="M943.121,-178.0656C964.193,-186.3604 1001.8117,-199 1035.3893,-199 1035.3893,-199 1035.3893,-199 1203.3777,-199 1231.9778,-199 1263.4678,-190.804 1286.349,-183.2806"/>
<polygon fill="#000000" stroke="#000000" points="1287.5744,-186.5606 1295.9042,-180.0135 1285.3096,-179.9371 1287.5744,-186.5606"/>
<text text-anchor="middle" x="1118.9908" y="-203.2" font-family="Times,serif" font-size="14.00" fill="#000000">lamda</text>
</g>
<!-- 10 -->
<g id="node13" class="node">
<title>10</title>
<ellipse fill="none" stroke="#000000" cx="1035.3893" cy="-142" rx="20.8887" ry="20.8887"/>
<text text-anchor="middle" x="1035.3893" y="-137.8" font-family="Times,serif" font-size="14.00" fill="#000000">10</text>
</g>
<!-- 9&#45;&gt;10 -->
<g id="edge16" class="edge">
<title>9&#45;&gt;10</title>
<path fill="none" stroke="#000000" d="M943.9827,-166.3406C960.5719,-161.9231 985.8256,-155.1983 1005.5882,-149.9357"/>
<polygon fill="#000000" stroke="#000000" points="1006.5846,-153.2924 1015.3472,-147.337 1004.7833,-146.5282 1006.5846,-153.2924"/>
<text text-anchor="middle" x="979.5906" y="-165.2" font-family="Times,serif" font-size="14.00" fill="#000000">lamda</text>
</g>
<!-- 3 -->
<g id="node7" class="node">
<title>3</title>
<ellipse fill="none" stroke="#000000" cx="371.6396" cy="-144" rx="18" ry="18"/>
<text text-anchor="middle" x="371.6396" y="-139.8" font-family="Times,serif" font-size="14.00" fill="#000000">3</text>
</g>
<!-- 2&#45;&gt;3 -->
<g id="edge5" class="edge">
<title>2&#45;&gt;3</title>
<path fill="none" stroke="#000000" d="M311.5656,-144C321.0424,-144 332.8514,-144 343.4852,-144"/>
<polygon fill="#000000" stroke="#000000" points="343.5974,-147.5001 353.5974,-144 343.5973,-140.5001 343.5974,-147.5001"/>
<text text-anchor="middle" x="332.5323" y="-148.2" font-family="Times,serif" font-size="14.00" fill="#000000">a</text>
</g>
<!-- 7 -->
<g id="node8" class="node">
<title>7</title>
<ellipse fill="none" stroke="#000000" cx="741.275" cy="-136" rx="18" ry="18"/>
<text text-anchor="middle" x="741.275" y="-131.8" font-family="Times,serif" font-size="14.00" fill="#000000">7</text>
</g>
<!-- 3&#45;&gt;7 -->
<g id="edge6" class="edge">
<title>3&#45;&gt;7</title>
<path fill="none" stroke="#000000" d="M389.183,-148.2877C410.1431,-153.0271 446.336,-160 477.85,-160 477.85,-160 477.85,-160 635.0646,-160 662.6825,-160 693.3685,-152.1838 714.6263,-145.4725"/>
<polygon fill="#000000" stroke="#000000" points="715.845,-148.7562 724.2499,-142.3057 713.6569,-142.1069 715.845,-148.7562"/>
<text text-anchor="middle" x="556.0646" y="-164.2" font-family="Times,serif" font-size="14.00" fill="#000000">lamda</text>
</g>
<!-- 4 -->
<g id="node9" class="node">
<title>4</title>
<ellipse fill="none" stroke="#000000" cx="477.85" cy="-106" rx="18" ry="18"/>
<text text-anchor="middle" x="477.85" y="-101.8" font-family="Times,serif" font-size="14.00" fill="#000000">4</text>
</g>
<!-- 3&#45;&gt;4 -->
<g id="edge10" class="edge">
<title>3&#45;&gt;4</title>
<path fill="none" stroke="#000000" d="M388.392,-136.8244C394.423,-134.3178 401.3024,-131.5463 407.6396,-129.2 421.6987,-123.9947 437.5416,-118.7106 450.6151,-114.5028"/>
<polygon fill="#000000" stroke="#000000" points="451.9524,-117.7502 460.419,-111.3811 449.8285,-111.0802 451.9524,-117.7502"/>
<text text-anchor="middle" x="424.7448" y="-134.2" font-family="Times,serif" font-size="14.00" fill="#000000">lamda</text>
</g>
<!-- 8 -->
<g id="node12" class="node">
<title>8</title>
<ellipse fill="none" stroke="#000000" cx="820.275" cy="-136" rx="18" ry="18"/>
<text text-anchor="middle" x="820.275" y="-131.8" font-family="Times,serif" font-size="14.00" fill="#000000">8</text>
</g>
<!-- 7&#45;&gt;8 -->
<g id="edge12" class="edge">
<title>7&#45;&gt;8</title>
<path fill="none" stroke="#000000" d="M759.5978,-136C769.1697,-136 781.0973,-136 791.8379,-136"/>
<polygon fill="#000000" stroke="#000000" points="792.0516,-139.5001 802.0516,-136 792.0516,-132.5001 792.0516,-139.5001"/>
<text text-anchor="middle" x="780.775" y="-140.2" font-family="Times,serif" font-size="14.00" fill="#000000">b</text>
</g>
<!-- 5 -->
<g id="node10" class="node">
<title>5</title>
<ellipse fill="none" stroke="#000000" cx="556.0646" cy="-106" rx="18" ry="18"/>
<text text-anchor="middle" x="556.0646" y="-101.8" font-family="Times,serif" font-size="14.00" fill="#000000">5</text>
</g>
<!-- 4&#45;&gt;5 -->
<g id="edge7" class="edge">
<title>4&#45;&gt;5</title>
<path fill="none" stroke="#000000" d="M495.9906,-106C505.4674,-106 517.2764,-106 527.9102,-106"/>
<polygon fill="#000000" stroke="#000000" points="528.0224,-109.5001 538.0224,-106 528.0223,-102.5001 528.0224,-109.5001"/>
<text text-anchor="middle" x="516.9573" y="-110.2" font-family="Times,serif" font-size="14.00" fill="#000000">a</text>
</g>
<!-- 6 -->
<g id="node11" class="node">
<title>6</title>
<ellipse fill="none" stroke="#000000" cx="635.0646" cy="-106" rx="18" ry="18"/>
<text text-anchor="middle" x="635.0646" y="-101.8" font-family="Times,serif" font-size="14.00" fill="#000000">6</text>
</g>
<!-- 5&#45;&gt;6 -->
<g id="edge8" class="edge">
<title>5&#45;&gt;6</title>
<path fill="none" stroke="#000000" d="M574.3874,-106C583.9593,-106 595.8869,-106 606.6275,-106"/>
<polygon fill="#000000" stroke="#000000" points="606.8412,-109.5001 616.8412,-106 606.8412,-102.5001 606.8412,-109.5001"/>
<text text-anchor="middle" x="595.5646" y="-110.2" font-family="Times,serif" font-size="14.00" fill="#000000">b</text>
</g>
<!-- 6&#45;&gt;7 -->
<g id="edge11" class="edge">
<title>6&#45;&gt;7</title>
<path fill="none" stroke="#000000" d="M652.6031,-110.9539C669.2842,-115.6656 694.6303,-122.8248 713.958,-128.2841"/>
<polygon fill="#000000" stroke="#000000" points="713.1356,-131.6887 723.7105,-131.0388 715.0384,-124.9522 713.1356,-131.6887"/>
<text text-anchor="middle" x="688.1698" y="-130.2" font-family="Times,serif" font-size="14.00" fill="#000000">lamda</text>
</g>
<!-- 6&#45;&gt;4 -->
<g id="edge9" class="edge">
<title>6&#45;&gt;4</title>
<path fill="none" stroke="#000000" d="M622.3822,-93.1931C610.8966,-82.574 592.9288,-68.2711 574.0646,-62.2 558.8339,-57.2983 553.2801,-57.2515 538.0646,-62.2 523.3704,-66.979 509.2706,-76.8442 498.4137,-86.004"/>
<polygon fill="#000000" stroke="#000000" points="495.9415,-83.5185 490.7873,-92.7751 500.589,-88.753 495.9415,-83.5185"/>
<text text-anchor="middle" x="556.0646" y="-67.2" font-family="Times,serif" font-size="14.00" fill="#000000">lamda</text>
</g>
<!-- 8&#45;&gt;9 -->
<g id="edge14" class="edge">
<title>8&#45;&gt;9</title>
<path fill="none" stroke="#000000" d="M837.8135,-141.7795C854.5945,-147.3095 880.1445,-155.7291 899.5149,-162.1123"/>
<polygon fill="#000000" stroke="#000000" points="898.6802,-165.5223 909.2733,-165.328 900.8711,-158.874 898.6802,-165.5223"/>
<text text-anchor="middle" x="873.3802" y="-163.2" font-family="Times,serif" font-size="14.00" fill="#000000">lamda</text>
</g>
<!-- 8&#45;&gt;2 -->
<g id="edge13" class="edge">
<title>8&#45;&gt;2</title>
<path fill="none" stroke="#000000" d="M818.2327,-117.9403C812.9419,-80.9456 795.2035,0 741.275,0 371.6396,0 371.6396,0 371.6396,0 319.4274,0 301.8791,-74.0066 296.1277,-115.9102"/>
<polygon fill="#000000" stroke="#000000" points="292.6272,-115.7007 294.8789,-126.0535 299.5747,-116.5561 292.6272,-115.7007"/>
<text text-anchor="middle" x="556.0646" y="-4.2" font-family="Times,serif" font-size="14.00" fill="#000000">lamda</text>
</g>
<!-- 11 -->
<g id="node14" class="node">
<title>11</title>
<ellipse fill="none" stroke="#000000" cx="1118.9908" cy="-142" rx="20.8887" ry="20.8887"/>
<text text-anchor="middle" x="1118.9908" y="-137.8" font-family="Times,serif" font-size="14.00" fill="#000000">11</text>
</g>
<!-- 10&#45;&gt;11 -->
<g id="edge17" class="edge">
<title>10&#45;&gt;11</title>
<path fill="none" stroke="#000000" d="M1056.4854,-142C1066.063,-142 1077.5807,-142 1088.1056,-142"/>
<polygon fill="#000000" stroke="#000000" points="1088.191,-145.5001 1098.1909,-142 1088.1909,-138.5001 1088.191,-145.5001"/>
<text text-anchor="middle" x="1077.19" y="-146.2" font-family="Times,serif" font-size="14.00" fill="#000000">a</text>
</g>
<!-- 12 -->
<g id="node15" class="node">
<title>12</title>
<ellipse fill="none" stroke="#000000" cx="1203.3777" cy="-142" rx="20.8887" ry="20.8887"/>
<text text-anchor="middle" x="1203.3777" y="-137.8" font-family="Times,serif" font-size="14.00" fill="#000000">12</text>
</g>
<!-- 11&#45;&gt;12 -->
<g id="edge18" class="edge">
<title>11&#45;&gt;12</title>
<path fill="none" stroke="#000000" d="M1139.8504,-142C1149.5875,-142 1161.3816,-142 1172.1513,-142"/>
<polygon fill="#000000" stroke="#000000" points="1172.4655,-145.5001 1182.4655,-142 1172.4654,-138.5001 1172.4655,-145.5001"/>
<text text-anchor="middle" x="1161.1842" y="-146.2" font-family="Times,serif" font-size="14.00" fill="#000000">b</text>
</g>
<!-- 12&#45;&gt;13 -->
<g id="edge20" class="edge">
<title>12&#45;&gt;13</title>
<path fill="none" stroke="#000000" d="M1223.5132,-147.0514C1240.369,-151.2801 1264.7942,-157.4076 1284.7181,-162.4059"/>
<polygon fill="#000000" stroke="#000000" points="1284.1116,-165.8622 1294.6627,-164.9008 1285.815,-159.0726 1284.1116,-165.8622"/>
<text text-anchor="middle" x="1259.1763" y="-164.2" font-family="Times,serif" font-size="14.00" fill="#000000">lamda</text>
</g>
<!-- 12&#45;&gt;10 -->
<g id="edge19" class="edge">
<title>12&#45;&gt;10</title>
<path fill="none" stroke="#000000" d="M1188.7487,-126.9608C1176.7607,-115.7862 1158.7211,-101.4419 1139.6842,-95.2 1122.2056,-89.469 1115.7588,-89.4172 1098.2973,-95.2 1083.1158,-100.2277 1068.6195,-110.4973 1057.3769,-120.1387"/>
<polygon fill="#000000" stroke="#000000" points="1054.8882,-117.6699 1049.8022,-126.9642 1059.5741,-122.8701 1054.8882,-117.6699"/>
<text text-anchor="middle" x="1118.9908" y="-100.2" font-family="Times,serif" font-size="14.00" fill="#000000">b</text>
</g>
</g>
</svg>
