<?xml version="1.0" encoding="UTF-8" standalone="no"?>
<!DOCTYPE svg PUBLIC "-//W3C//DTD SVG 1.1//EN"
 "http://www.w3.org/Graphics/SVG/1.1/DTD/svg11.dtd">
<!-- Generated by graphviz version 2.40.1 (20161225.0304)
 -->
<!-- Title: finite_state_machine Pages: 1 -->
<svg width="492pt" height="137pt"
 viewBox="0.00 0.00 492.36 137.10" xmlns="http://www.w3.org/2000/svg" xmlns:xlink="http://www.w3.org/1999/xlink">
<g id="graph0" class="graph" transform="scale(1 1) rotate(0) translate(4 133.0957)">
<title>finite_state_machine</title>
<polygon fill="#ffffff" stroke="transparent" points="-4,4 -4,-133.0957 488.3637,-133.0957 488.3637,4 -4,4"/>
<!-- q2 -->
<g id="node1" class="node">
<title>q2</title>
<ellipse fill="none" stroke="#000000" cx="199.295" cy="-36.4022" rx="20.8568" ry="20.8568"/>
<ellipse fill="none" stroke="#000000" cx="199.295" cy="-36.4022" rx="24.8884" ry="24.8884"/>
<text text-anchor="middle" x="199.295" y="-32.2022" font-family="Times,serif" font-size="14.00" fill="#000000">q2</text>
</g>
<!-- q3 -->
<g id="node5" class="node">
<title>q3</title>
<ellipse fill="none" stroke="#000000" cx="286.8965" cy="-91.4022" rx="20.8887" ry="20.8887"/>
<text text-anchor="middle" x="286.8965" y="-87.2022" font-family="Times,serif" font-size="14.00" fill="#000000">q3</text>
</g>
<!-- q2&#45;&gt;q3 -->
<g id="edge3" class="edge">
<title>q2&#45;&gt;q3</title>
<path fill="none" stroke="#000000" d="M220.5008,-49.7162C232.4803,-57.2374 247.565,-66.7082 260.3276,-74.7211"/>
<polygon fill="#000000" stroke="#000000" points="258.8025,-77.8962 269.1327,-80.2494 262.5246,-71.9678 258.8025,-77.8962"/>
<text text-anchor="middle" x="245.0957" y="-70.6022" font-family="Times,serif" font-size="14.00" fill="#000000">a</text>
</g>
<!-- q5 -->
<g id="node2" class="node">
<title>q5</title>
<ellipse fill="none" stroke="#000000" cx="375.2834" cy="-44.4022" rx="20.8568" ry="20.8568"/>
<ellipse fill="none" stroke="#000000" cx="375.2834" cy="-44.4022" rx="24.8884" ry="24.8884"/>
<text text-anchor="middle" x="375.2834" y="-40.2022" font-family="Times,serif" font-size="14.00" fill="#000000">q5</text>
</g>
<!-- q5&#45;&gt;q2 -->
<g id="edge9" class="edge">
<title>q5&#45;&gt;q2</title>
<path fill="none" stroke="#000000" d="M350.5682,-43.2787C320.2306,-41.8996 268.5898,-39.5522 234.2095,-37.9893"/>
<polygon fill="#000000" stroke="#000000" points="234.2852,-34.4893 224.1365,-37.5314 233.9673,-41.482 234.2852,-34.4893"/>
<text text-anchor="middle" x="286.8965" y="-45.6022" font-family="Times,serif" font-size="14.00" fill="#000000">a</text>
</g>
<g id="node3" class="node">
<title></title>
</g>
<!-- q1 -->
<g id="node4" class="node">
<title>q1</title>
<ellipse fill="none" stroke="#000000" cx="111.6935" cy="-36.4022" rx="20.8887" ry="20.8887"/>
<text text-anchor="middle" x="111.6935" y="-32.2022" font-family="Times,serif" font-size="14.00" fill="#000000">q1</text>
</g>
<!-- &#45;&gt;q1 -->
<g id="edge1" class="edge">
<title>&#45;&gt;q1</title>
<path fill="none" stroke="#000000" d="M54.2637,-36.4022C62.7209,-36.4022 72.1012,-36.4022 80.7873,-36.4022"/>
<polygon fill="#000000" stroke="#000000" points="80.9294,-39.9023 90.9294,-36.4022 80.9293,-32.9023 80.9294,-39.9023"/>
</g>
<!-- q1&#45;&gt;q2 -->
<g id="edge2" class="edge">
<title>q1&#45;&gt;q2</title>
<path fill="none" stroke="#000000" d="M132.4538,-36.4022C141.9626,-36.4022 153.4967,-36.4022 164.288,-36.4022"/>
<polygon fill="#000000" stroke="#000000" points="164.3165,-39.9023 174.3164,-36.4022 164.3164,-32.9023 164.3165,-39.9023"/>
<text text-anchor="middle" x="153.4942" y="-40.6022" font-family="Times,serif" font-size="14.00" fill="#000000">a</text>
</g>
<!-- q3&#45;&gt;q5 -->
<g id="edge5" class="edge">
<title>q3&#45;&gt;q5</title>
<path fill="none" stroke="#000000" d="M305.2103,-81.6638C316.4404,-75.6922 331.1129,-67.89 344.1282,-60.9691"/>
<polygon fill="#000000" stroke="#000000" points="346.0536,-63.9094 353.2396,-56.124 342.767,-57.7288 346.0536,-63.9094"/>
<text text-anchor="middle" x="329.0899" y="-75.6022" font-family="Times,serif" font-size="14.00" fill="#000000">b</text>
</g>
<!-- q4 -->
<g id="node6" class="node">
<title>q4</title>
<ellipse fill="none" stroke="#000000" cx="375.2834" cy="-108.4022" rx="20.8887" ry="20.8887"/>
<text text-anchor="middle" x="375.2834" y="-104.2022" font-family="Times,serif" font-size="14.00" fill="#000000">q4</text>
</g>
<!-- q3&#45;&gt;q4 -->
<g id="edge4" class="edge">
<title>q3&#45;&gt;q4</title>
<path fill="none" stroke="#000000" d="M307.3964,-95.3451C318.5519,-97.4907 332.5672,-100.1863 344.9622,-102.5704"/>
<polygon fill="#000000" stroke="#000000" points="344.4135,-106.0289 354.8946,-104.4807 345.7357,-99.1549 344.4135,-106.0289"/>
<text text-anchor="middle" x="329.0899" y="-104.6022" font-family="Times,serif" font-size="14.00" fill="#000000">a</text>
</g>
<!-- q6 -->
<g id="node7" class="node">
<title>q6</title>
<ellipse fill="none" stroke="#000000" cx="463.6703" cy="-68.4022" rx="20.8887" ry="20.8887"/>
<text text-anchor="middle" x="463.6703" y="-64.2022" font-family="Times,serif" font-size="14.00" fill="#000000">q6</text>
</g>
<!-- q4&#45;&gt;q6 -->
<g id="edge6" class="edge">
<title>q4&#45;&gt;q6</title>
<path fill="none" stroke="#000000" d="M388.4384,-91.7854C396.0755,-83.4793 406.4524,-74.2314 417.9768,-69.6022 422.6114,-67.7406 427.7289,-66.7218 432.8119,-66.2439"/>
<polygon fill="#000000" stroke="#000000" points="433.1446,-69.7354 443.0309,-65.926 432.9269,-62.7387 433.1446,-69.7354"/>
<text text-anchor="middle" x="421.4768" y="-74.6022" font-family="Times,serif" font-size="14.00" fill="#000000">b</text>
</g>
<!-- q6&#45;&gt;q2 -->
<g id="edge8" class="edge">
<title>q6&#45;&gt;q2</title>
<path fill="none" stroke="#000000" d="M451.1718,-51.5259C439.656,-37.5169 421.1766,-18.6083 399.9768,-10.4022 343.5283,11.4482 272.1612,-7.89 231.5256,-22.8724"/>
<polygon fill="#000000" stroke="#000000" points="230.2183,-19.6251 222.1264,-26.4641 232.717,-26.1639 230.2183,-19.6251"/>
<text text-anchor="middle" x="329.0899" y="-5.6022" font-family="Times,serif" font-size="14.00" fill="#000000">b</text>
</g>
<!-- q6&#45;&gt;q4 -->
<g id="edge7" class="edge">
<title>q6&#45;&gt;q4</title>
<path fill="none" stroke="#000000" d="M444.8094,-77.2619C438.5138,-80.1962 431.4534,-83.4624 424.9768,-86.4022 418.2809,-89.4415 411.0562,-92.6693 404.2452,-95.6891"/>
<polygon fill="#000000" stroke="#000000" points="402.4049,-92.6758 394.6723,-99.9185 405.2338,-99.0787 402.4049,-92.6758"/>
<text text-anchor="middle" x="421.4768" y="-94.6022" font-family="Times,serif" font-size="14.00" fill="#000000">a</text>
</g>
</g>
</svg>
