<?xml version="1.0" encoding="UTF-8" standalone="no"?>
<!DOCTYPE svg PUBLIC "-//W3C//DTD SVG 1.1//EN"
 "http://www.w3.org/Graphics/SVG/1.1/DTD/svg11.dtd">
<!-- Generated by graphviz version 2.40.1 (20161225.0304)
 -->
<!-- Title: finite_state_machine Pages: 1 -->
<svg width="1318pt" height="220pt"
 viewBox="0.00 0.00 1318.22 219.80" xmlns="http://www.w3.org/2000/svg" xmlns:xlink="http://www.w3.org/1999/xlink">
<g id="graph0" class="graph" transform="scale(1 1) rotate(0) translate(4 215.8)">
<title>finite_state_machine</title>
<polygon fill="#ffffff" stroke="transparent" points="-4,4 -4,-215.8 1314.215,-215.8 1314.215,4 -4,4"/>
<!-- 17 -->
<g id="node1" class="node">
<title>17</title>
<ellipse fill="none" stroke="#000000" cx="1285.5216" cy="-171" rx="20.8568" ry="20.8568"/>
<ellipse fill="none" stroke="#000000" cx="1285.5216" cy="-171" rx="24.8884" ry="24.8884"/>
<text text-anchor="middle" x="1285.5216" y="-166.8" font-family="Times,serif" font-size="14.00" fill="#000000">17</text>
</g>
<g id="node2" class="node">
<title></title>
</g>
<!-- 0 -->
<g id="node3" class="node">
<title>0</title>
<ellipse fill="none" stroke="#000000" cx="109" cy="-157" rx="18" ry="18"/>
<text text-anchor="middle" x="109" y="-152.8" font-family="Times,serif" font-size="14.00" fill="#000000">0</text>
</g>
<!-- &#45;&gt;0 -->
<g id="edge1" class="edge">
<title>&#45;&gt;0</title>
<path fill="none" stroke="#000000" d="M54.3048,-157C62.6909,-157 71.9407,-157 80.4103,-157"/>
<polygon fill="#000000" stroke="#000000" points="80.5976,-160.5001 90.5976,-157 80.5976,-153.5001 80.5976,-160.5001"/>
</g>
<!-- 0&#45;&gt;17 -->
<g id="edge3" class="edge">
<title>0&#45;&gt;17</title>
<path fill="none" stroke="#000000" d="M124.57,-166.3933C144.737,-177.6461 181.3302,-195 215.2104,-195 215.2104,-195 215.2104,-195 1169.9243,-195 1198.0083,-195 1229.1439,-188.125 1252.0197,-181.7343"/>
<polygon fill="#000000" stroke="#000000" points="1253.2836,-185.0118 1261.9084,-178.8585 1251.3288,-178.2903 1253.2836,-185.0118"/>
<text text-anchor="middle" x="694.9468" y="-199.2" font-family="Times,serif" font-size="14.00" fill="#000000">lamda</text>
</g>
<!-- 1 -->
<g id="node4" class="node">
<title>1</title>
<ellipse fill="none" stroke="#000000" cx="215.2104" cy="-119" rx="18" ry="18"/>
<text text-anchor="middle" x="215.2104" y="-114.8" font-family="Times,serif" font-size="14.00" fill="#000000">1</text>
</g>
<!-- 0&#45;&gt;1 -->
<g id="edge2" class="edge">
<title>0&#45;&gt;1</title>
<path fill="none" stroke="#000000" d="M126.0645,-150.8946C142.9425,-144.856 169.0168,-135.5272 188.6137,-128.5158"/>
<polygon fill="#000000" stroke="#000000" points="189.9518,-131.7544 198.1882,-125.0902 187.5936,-125.1635 189.9518,-131.7544"/>
<text text-anchor="middle" x="162.1052" y="-148.2" font-family="Times,serif" font-size="14.00" fill="#000000">lamda</text>
</g>
<!-- 2 -->
<g id="node5" class="node">
<title>2</title>
<ellipse fill="none" stroke="#000000" cx="321.4208" cy="-149" rx="18" ry="18"/>
<text text-anchor="middle" x="321.4208" y="-144.8" font-family="Times,serif" font-size="14.00" fill="#000000">2</text>
</g>
<!-- 1&#45;&gt;2 -->
<g id="edge4" class="edge">
<title>1&#45;&gt;2</title>
<path fill="none" stroke="#000000" d="M232.7489,-123.9539C249.43,-128.6656 274.7761,-135.8248 294.1038,-141.2841"/>
<polygon fill="#000000" stroke="#000000" points="293.2814,-144.6887 303.8563,-144.0388 295.1842,-137.9522 293.2814,-144.6887"/>
<text text-anchor="middle" x="268.3156" y="-143.2" font-family="Times,serif" font-size="14.00" fill="#000000">lamda</text>
</g>
<!-- 4 -->
<g id="node6" class="node">
<title>4</title>
<ellipse fill="none" stroke="#000000" cx="321.4208" cy="-95" rx="18" ry="18"/>
<text text-anchor="middle" x="321.4208" y="-90.8" font-family="Times,serif" font-size="14.00" fill="#000000">4</text>
</g>
<!-- 1&#45;&gt;4 -->
<g id="edge5" class="edge">
<title>1&#45;&gt;4</title>
<path fill="none" stroke="#000000" d="M231.3249,-110.705C237.4114,-107.9014 244.4913,-105.0229 251.2104,-103.2 264.72,-99.5349 280.1292,-97.5079 293.0634,-96.387"/>
<polygon fill="#000000" stroke="#000000" points="293.5317,-99.8622 303.2499,-95.6424 293.0213,-92.8808 293.5317,-99.8622"/>
<text text-anchor="middle" x="268.3156" y="-108.2" font-family="Times,serif" font-size="14.00" fill="#000000">lamda</text>
</g>
<!-- 16 -->
<g id="node7" class="node">
<title>16</title>
<ellipse fill="none" stroke="#000000" cx="1169.9243" cy="-127" rx="20.8887" ry="20.8887"/>
<text text-anchor="middle" x="1169.9243" y="-122.8" font-family="Times,serif" font-size="14.00" fill="#000000">16</text>
</g>
<!-- 1&#45;&gt;16 -->
<g id="edge6" class="edge">
<title>1&#45;&gt;16</title>
<path fill="none" stroke="#000000" d="M221.2299,-101.9502C234.062,-69.0456 267.4219,0 321.4208,0 321.4208,0 321.4208,0 1058.327,0 1110.1938,0 1143.6294,-60.5119 1159.3658,-97.9967"/>
<polygon fill="#000000" stroke="#000000" points="1156.1827,-99.4624 1163.161,-107.4346 1162.6773,-96.8508 1156.1827,-99.4624"/>
<text text-anchor="middle" x="694.9468" y="-4.2" font-family="Times,serif" font-size="14.00" fill="#000000">lamda</text>
</g>
<!-- 3 -->
<g id="node19" class="node">
<title>3</title>
<ellipse fill="none" stroke="#000000" cx="481.6312" cy="-154" rx="18" ry="18"/>
<text text-anchor="middle" x="481.6312" y="-149.8" font-family="Times,serif" font-size="14.00" fill="#000000">3</text>
</g>
<!-- 2&#45;&gt;3 -->
<g id="edge21" class="edge">
<title>2&#45;&gt;3</title>
<path fill="none" stroke="#000000" d="M339.4875,-149.5638C367.1321,-150.4266 420.1759,-152.082 453.0682,-153.1086"/>
<polygon fill="#000000" stroke="#000000" points="453.2803,-156.6168 463.3847,-153.4305 453.4988,-149.6202 453.2803,-156.6168"/>
<text text-anchor="middle" x="374.526" y="-156.2" font-family="Times,serif" font-size="14.00" fill="#000000">a</text>
</g>
<!-- 5 -->
<g id="node8" class="node">
<title>5</title>
<ellipse fill="none" stroke="#000000" cx="427.6312" cy="-103" rx="18" ry="18"/>
<text text-anchor="middle" x="427.6312" y="-98.8" font-family="Times,serif" font-size="14.00" fill="#000000">5</text>
</g>
<!-- 4&#45;&gt;5 -->
<g id="edge7" class="edge">
<title>4&#45;&gt;5</title>
<path fill="none" stroke="#000000" d="M339.4379,-96.3571C355.8407,-97.5926 380.3273,-99.437 399.3399,-100.869"/>
<polygon fill="#000000" stroke="#000000" points="399.291,-104.3752 409.5257,-101.6363 399.8168,-97.395 399.291,-104.3752"/>
<text text-anchor="middle" x="374.526" y="-105.2" font-family="Times,serif" font-size="14.00" fill="#000000">lamda</text>
</g>
<!-- 7 -->
<g id="node9" class="node">
<title>7</title>
<ellipse fill="none" stroke="#000000" cx="427.6312" cy="-49" rx="18" ry="18"/>
<text text-anchor="middle" x="427.6312" y="-44.8" font-family="Times,serif" font-size="14.00" fill="#000000">7</text>
</g>
<!-- 4&#45;&gt;7 -->
<g id="edge8" class="edge">
<title>4&#45;&gt;7</title>
<path fill="none" stroke="#000000" d="M337.4233,-86.7572C343.619,-83.6532 350.8015,-80.1604 357.4208,-77.2 371.7539,-70.7896 388.009,-64.2175 401.2665,-59.0322"/>
<polygon fill="#000000" stroke="#000000" points="402.6782,-62.2389 410.7388,-55.363 400.1497,-55.7115 402.6782,-62.2389"/>
<text text-anchor="middle" x="374.526" y="-82.2" font-family="Times,serif" font-size="14.00" fill="#000000">lamda</text>
</g>
<!-- 16&#45;&gt;17 -->
<g id="edge23" class="edge">
<title>16&#45;&gt;17</title>
<path fill="none" stroke="#000000" d="M1189.2727,-134.3646C1206.5058,-140.9241 1232.0852,-150.6604 1252.5431,-158.4473"/>
<polygon fill="#000000" stroke="#000000" points="1251.5247,-161.8046 1262.1157,-162.091 1254.0149,-155.2625 1251.5247,-161.8046"/>
<text text-anchor="middle" x="1225.7229" y="-159.2" font-family="Times,serif" font-size="14.00" fill="#000000">lamda</text>
</g>
<!-- 6 -->
<g id="node10" class="node">
<title>6</title>
<ellipse fill="none" stroke="#000000" cx="535.6312" cy="-103" rx="18" ry="18"/>
<text text-anchor="middle" x="535.6312" y="-98.8" font-family="Times,serif" font-size="14.00" fill="#000000">6</text>
</g>
<!-- 5&#45;&gt;6 -->
<g id="edge9" class="edge">
<title>5&#45;&gt;6</title>
<path fill="none" stroke="#000000" d="M445.9519,-103C462.8102,-103 488.0661,-103 507.4842,-103"/>
<polygon fill="#000000" stroke="#000000" points="507.5811,-106.5001 517.581,-103 507.581,-99.5001 507.5811,-106.5001"/>
<text text-anchor="middle" x="481.6312" y="-107.2" font-family="Times,serif" font-size="14.00" fill="#000000">a</text>
</g>
<!-- 8 -->
<g id="node11" class="node">
<title>8</title>
<ellipse fill="none" stroke="#000000" cx="535.6312" cy="-49" rx="18" ry="18"/>
<text text-anchor="middle" x="535.6312" y="-44.8" font-family="Times,serif" font-size="14.00" fill="#000000">8</text>
</g>
<!-- 7&#45;&gt;8 -->
<g id="edge10" class="edge">
<title>7&#45;&gt;8</title>
<path fill="none" stroke="#000000" d="M445.9519,-49C462.8102,-49 488.0661,-49 507.4842,-49"/>
<polygon fill="#000000" stroke="#000000" points="507.5811,-52.5001 517.581,-49 507.581,-45.5001 507.5811,-52.5001"/>
<text text-anchor="middle" x="481.6312" y="-53.2" font-family="Times,serif" font-size="14.00" fill="#000000">b</text>
</g>
<!-- 9 -->
<g id="node12" class="node">
<title>9</title>
<ellipse fill="none" stroke="#000000" cx="641.8416" cy="-78" rx="18" ry="18"/>
<text text-anchor="middle" x="641.8416" y="-73.8" font-family="Times,serif" font-size="14.00" fill="#000000">9</text>
</g>
<!-- 6&#45;&gt;9 -->
<g id="edge11" class="edge">
<title>6&#45;&gt;9</title>
<path fill="none" stroke="#000000" d="M553.1697,-98.8718C569.8508,-94.9453 595.1969,-88.9793 614.5246,-84.4299"/>
<polygon fill="#000000" stroke="#000000" points="615.345,-87.8325 624.2771,-82.1344 613.7411,-81.0188 615.345,-87.8325"/>
<text text-anchor="middle" x="588.7364" y="-99.2" font-family="Times,serif" font-size="14.00" fill="#000000">lamda</text>
</g>
<!-- 8&#45;&gt;9 -->
<g id="edge12" class="edge">
<title>8&#45;&gt;9</title>
<path fill="none" stroke="#000000" d="M553.3306,-52.941C567.5869,-56.21 588.1043,-61.1285 605.8416,-66.2 608.8434,-67.0583 611.9698,-68.004 615.0713,-68.9752"/>
<polygon fill="#000000" stroke="#000000" points="614.1197,-72.3458 624.7114,-72.0887 616.2711,-65.6846 614.1197,-72.3458"/>
<text text-anchor="middle" x="588.7364" y="-71.2" font-family="Times,serif" font-size="14.00" fill="#000000">lamda</text>
</g>
<!-- 10 -->
<g id="node13" class="node">
<title>10</title>
<ellipse fill="none" stroke="#000000" cx="750.7455" cy="-108" rx="20.8887" ry="20.8887"/>
<text text-anchor="middle" x="750.7455" y="-103.8" font-family="Times,serif" font-size="14.00" fill="#000000">10</text>
</g>
<!-- 9&#45;&gt;10 -->
<g id="edge13" class="edge">
<title>9&#45;&gt;10</title>
<path fill="none" stroke="#000000" d="M659.3389,-82.82C675.9281,-87.3899 701.1818,-94.3466 720.9444,-99.7906"/>
<polygon fill="#000000" stroke="#000000" points="720.133,-103.1974 730.7034,-102.479 721.9921,-96.4488 720.133,-103.1974"/>
<text text-anchor="middle" x="694.9468" y="-101.2" font-family="Times,serif" font-size="14.00" fill="#000000">lamda</text>
</g>
<!-- 12 -->
<g id="node14" class="node">
<title>12</title>
<ellipse fill="none" stroke="#000000" cx="750.7455" cy="-49" rx="20.8887" ry="20.8887"/>
<text text-anchor="middle" x="750.7455" y="-44.8" font-family="Times,serif" font-size="14.00" fill="#000000">12</text>
</g>
<!-- 9&#45;&gt;12 -->
<g id="edge14" class="edge">
<title>9&#45;&gt;12</title>
<path fill="none" stroke="#000000" d="M659.4119,-73.1858C665.2707,-71.5888 671.8349,-69.8085 677.8416,-68.2 691.908,-64.4332 707.5177,-60.3141 720.6726,-56.8603"/>
<polygon fill="#000000" stroke="#000000" points="721.8343,-60.1741 730.6198,-54.2525 720.0591,-53.4029 721.8343,-60.1741"/>
<text text-anchor="middle" x="694.9468" y="-73.2" font-family="Times,serif" font-size="14.00" fill="#000000">lamda</text>
</g>
<!-- 11 -->
<g id="node15" class="node">
<title>11</title>
<ellipse fill="none" stroke="#000000" cx="862.3428" cy="-108" rx="20.8887" ry="20.8887"/>
<text text-anchor="middle" x="862.3428" y="-103.8" font-family="Times,serif" font-size="14.00" fill="#000000">11</text>
</g>
<!-- 10&#45;&gt;11 -->
<g id="edge15" class="edge">
<title>10&#45;&gt;11</title>
<path fill="none" stroke="#000000" d="M771.4745,-108C788.2808,-108 812.2252,-108 831.3157,-108"/>
<polygon fill="#000000" stroke="#000000" points="831.346,-111.5001 841.346,-108 831.346,-104.5001 831.346,-111.5001"/>
<text text-anchor="middle" x="806.5441" y="-112.2" font-family="Times,serif" font-size="14.00" fill="#000000">a</text>
</g>
<!-- 13 -->
<g id="node16" class="node">
<title>13</title>
<ellipse fill="none" stroke="#000000" cx="862.3428" cy="-49" rx="20.8887" ry="20.8887"/>
<text text-anchor="middle" x="862.3428" y="-44.8" font-family="Times,serif" font-size="14.00" fill="#000000">13</text>
</g>
<!-- 12&#45;&gt;13 -->
<g id="edge16" class="edge">
<title>12&#45;&gt;13</title>
<path fill="none" stroke="#000000" d="M771.4745,-49C788.2808,-49 812.2252,-49 831.3157,-49"/>
<polygon fill="#000000" stroke="#000000" points="831.346,-52.5001 841.346,-49 831.346,-45.5001 831.346,-52.5001"/>
<text text-anchor="middle" x="806.5441" y="-53.2" font-family="Times,serif" font-size="14.00" fill="#000000">b</text>
</g>
<!-- 14 -->
<g id="node17" class="node">
<title>14</title>
<ellipse fill="none" stroke="#000000" cx="973.9401" cy="-108" rx="20.8887" ry="20.8887"/>
<text text-anchor="middle" x="973.9401" y="-103.8" font-family="Times,serif" font-size="14.00" fill="#000000">14</text>
</g>
<!-- 11&#45;&gt;14 -->
<g id="edge17" class="edge">
<title>11&#45;&gt;14</title>
<path fill="none" stroke="#000000" d="M883.0718,-108C899.8781,-108 923.8225,-108 942.913,-108"/>
<polygon fill="#000000" stroke="#000000" points="942.9434,-111.5001 952.9433,-108 942.9433,-104.5001 942.9434,-111.5001"/>
<text text-anchor="middle" x="918.1414" y="-112.2" font-family="Times,serif" font-size="14.00" fill="#000000">lamda</text>
</g>
<!-- 13&#45;&gt;14 -->
<g id="edge18" class="edge">
<title>13&#45;&gt;14</title>
<path fill="none" stroke="#000000" d="M880.9494,-58.6803C895.698,-66.3702 916.8191,-77.4196 935.2466,-87.2 938.857,-89.1162 942.6516,-91.1417 946.395,-93.1468"/>
<polygon fill="#000000" stroke="#000000" points="944.9947,-96.3675 955.4607,-98.0149 948.3064,-90.2004 944.9947,-96.3675"/>
<text text-anchor="middle" x="918.1414" y="-92.2" font-family="Times,serif" font-size="14.00" fill="#000000">lamda</text>
</g>
<!-- 15 -->
<g id="node18" class="node">
<title>15</title>
<ellipse fill="none" stroke="#000000" cx="1058.327" cy="-108" rx="20.8887" ry="20.8887"/>
<text text-anchor="middle" x="1058.327" y="-103.8" font-family="Times,serif" font-size="14.00" fill="#000000">15</text>
</g>
<!-- 14&#45;&gt;15 -->
<g id="edge19" class="edge">
<title>14&#45;&gt;15</title>
<path fill="none" stroke="#000000" d="M994.7998,-108C1004.5368,-108 1016.3309,-108 1027.1006,-108"/>
<polygon fill="#000000" stroke="#000000" points="1027.4148,-111.5001 1037.4148,-108 1027.4148,-104.5001 1027.4148,-111.5001"/>
<text text-anchor="middle" x="1016.1335" y="-112.2" font-family="Times,serif" font-size="14.00" fill="#000000">b</text>
</g>
<!-- 15&#45;&gt;16 -->
<g id="edge20" class="edge">
<title>15&#45;&gt;16</title>
<path fill="none" stroke="#000000" d="M1078.7956,-111.4849C1095.679,-114.3594 1119.8933,-118.482 1139.1184,-121.7551"/>
<polygon fill="#000000" stroke="#000000" points="1138.7618,-125.2447 1149.2074,-123.4729 1139.9368,-118.344 1138.7618,-125.2447"/>
<text text-anchor="middle" x="1114.1256" y="-125.2" font-family="Times,serif" font-size="14.00" fill="#000000">lamda</text>
</g>
<!-- 3&#45;&gt;16 -->
<g id="edge22" class="edge">
<title>3&#45;&gt;16</title>
<path fill="none" stroke="#000000" d="M499.8198,-154.8198C521.1248,-155.708 557.4851,-157 588.7364,-157 588.7364,-157 588.7364,-157 1058.327,-157 1087.3814,-157 1119.2769,-147.3994 1141.501,-139.0603"/>
<polygon fill="#000000" stroke="#000000" points="1142.9445,-142.2541 1150.9866,-135.3567 1140.3985,-135.7335 1142.9445,-142.2541"/>
<text text-anchor="middle" x="806.5441" y="-161.2" font-family="Times,serif" font-size="14.00" fill="#000000">lamda</text>
</g>
</g>
</svg>
