<?xml version="1.0" encoding="UTF-8" standalone="no"?>
<!DOCTYPE svg PUBLIC "-//W3C//DTD SVG 1.1//EN"
 "http://www.w3.org/Graphics/SVG/1.1/DTD/svg11.dtd">
<!-- Generated by graphviz version 2.40.1 (20161225.0304)
 -->
<!-- Title: finite_state_machine Pages: 1 -->
<svg width="704pt" height="332pt"
 viewBox="0.00 0.00 703.58 332.19" xmlns="http://www.w3.org/2000/svg" xmlns:xlink="http://www.w3.org/1999/xlink">
<g id="graph0" class="graph" transform="scale(1 1) rotate(0) translate(4 328.1869)">
<title>finite_state_machine</title>
<polygon fill="#ffffff" stroke="transparent" points="-4,4 -4,-328.1869 699.5799,-328.1869 699.5799,4 -4,4"/>
<!-- q1 -->
<g id="node1" class="node">
<title>q1</title>
<ellipse fill="none" stroke="#000000" cx="115.6935" cy="-24.6935" rx="20.8568" ry="20.8568"/>
<ellipse fill="none" stroke="#000000" cx="115.6935" cy="-24.6935" rx="24.8884" ry="24.8884"/>
<text text-anchor="middle" x="115.6935" y="-20.4935" font-family="Times,serif" font-size="14.00" fill="#000000">q1</text>
</g>
<!-- q2 -->
<g id="node2" class="node">
<title>q2</title>
<ellipse fill="none" stroke="#000000" cx="207.295" cy="-161.6935" rx="20.8568" ry="20.8568"/>
<ellipse fill="none" stroke="#000000" cx="207.295" cy="-161.6935" rx="24.8884" ry="24.8884"/>
<text text-anchor="middle" x="207.295" y="-157.4935" font-family="Times,serif" font-size="14.00" fill="#000000">q2</text>
</g>
<!-- q1&#45;&gt;q2 -->
<g id="edge2" class="edge">
<title>q1&#45;&gt;q2</title>
<path fill="none" stroke="#000000" d="M129.6057,-45.5008C145.164,-68.7699 170.4684,-106.6153 187.949,-132.7594"/>
<polygon fill="#000000" stroke="#000000" points="185.084,-134.7716 193.5519,-141.1392 190.9031,-130.8808 185.084,-134.7716"/>
<text text-anchor="middle" x="161.4942" y="-100.8935" font-family="Times,serif" font-size="14.00" fill="#000000">a</text>
</g>
<!-- q3 -->
<g id="node9" class="node">
<title>q3</title>
<ellipse fill="none" stroke="#000000" cx="578.4995" cy="-42.6935" rx="20.8887" ry="20.8887"/>
<text text-anchor="middle" x="578.4995" y="-38.4935" font-family="Times,serif" font-size="14.00" fill="#000000">q3</text>
</g>
<!-- q1&#45;&gt;q3 -->
<g id="edge3" class="edge">
<title>q1&#45;&gt;q3</title>
<path fill="none" stroke="#000000" d="M139.6024,-18.1856C157.9705,-13.756 184.0479,-8.6935 207.295,-8.6935 207.295,-8.6935 207.295,-8.6935 481.2841,-8.6935 506.0635,-8.6935 532.5042,-18.6575 551.5457,-27.7976"/>
<polygon fill="#000000" stroke="#000000" points="550.0128,-30.9443 560.5195,-32.3076 553.1562,-24.6897 550.0128,-30.9443"/>
<text text-anchor="middle" x="337.8753" y="-12.8935" font-family="Times,serif" font-size="14.00" fill="#000000">b</text>
</g>
<!-- q4 -->
<g id="node3" class="node">
<title>q4</title>
<ellipse fill="none" stroke="#000000" cx="578.4995" cy="-264.6935" rx="20.8568" ry="20.8568"/>
<ellipse fill="none" stroke="#000000" cx="578.4995" cy="-264.6935" rx="24.8884" ry="24.8884"/>
<text text-anchor="middle" x="578.4995" y="-260.4935" font-family="Times,serif" font-size="14.00" fill="#000000">q4</text>
</g>
<!-- q2&#45;&gt;q4 -->
<g id="edge4" class="edge">
<title>q2&#45;&gt;q4</title>
<path fill="none" stroke="#000000" d="M213.2914,-185.6888C223.6472,-220.7079 248.4607,-281.6935 295.6819,-281.6935 295.6819,-281.6935 295.6819,-281.6935 481.2841,-281.6935 502.5354,-281.6935 526.0144,-277.7029 544.574,-273.5887"/>
<polygon fill="#000000" stroke="#000000" points="545.3885,-276.9927 554.3334,-271.3148 543.8,-270.1753 545.3885,-276.9927"/>
<text text-anchor="middle" x="384.0688" y="-285.8935" font-family="Times,serif" font-size="14.00" fill="#000000">a</text>
</g>
<!-- q5 -->
<g id="node10" class="node">
<title>q5</title>
<ellipse fill="none" stroke="#000000" cx="295.6819" cy="-161.6935" rx="20.8887" ry="20.8887"/>
<text text-anchor="middle" x="295.6819" y="-157.4935" font-family="Times,serif" font-size="14.00" fill="#000000">q5</text>
</g>
<!-- q2&#45;&gt;q5 -->
<g id="edge5" class="edge">
<title>q2&#45;&gt;q5</title>
<path fill="none" stroke="#000000" d="M232.3867,-161.6935C242.4155,-161.6935 254.0694,-161.6935 264.6238,-161.6935"/>
<polygon fill="#000000" stroke="#000000" points="264.7109,-165.1936 274.7109,-161.6935 264.7109,-158.1936 264.7109,-165.1936"/>
<text text-anchor="middle" x="253.4884" y="-165.8935" font-family="Times,serif" font-size="14.00" fill="#000000">b</text>
</g>
<!-- q4&#45;&gt;q4 -->
<g id="edge8" class="edge">
<title>q4&#45;&gt;q4</title>
<path fill="none" stroke="#000000" d="M570.0093,-287.9685C569.2007,-298.3813 572.0308,-307.3869 578.4995,-307.3869 582.6436,-307.3869 585.2943,-303.691 586.4517,-298.2969"/>
<polygon fill="#000000" stroke="#000000" points="589.9647,-298.137 586.9898,-287.9685 582.9742,-297.7728 589.9647,-298.137"/>
<text text-anchor="middle" x="578.4995" y="-311.5869" font-family="Times,serif" font-size="14.00" fill="#000000">a</text>
</g>
<!-- q8 -->
<g id="node4" class="node">
<title>q8</title>
<ellipse fill="none" stroke="#000000" cx="670.8864" cy="-264.6935" rx="20.8568" ry="20.8568"/>
<ellipse fill="none" stroke="#000000" cx="670.8864" cy="-264.6935" rx="24.8884" ry="24.8884"/>
<text text-anchor="middle" x="670.8864" y="-260.4935" font-family="Times,serif" font-size="14.00" fill="#000000">q8</text>
</g>
<!-- q4&#45;&gt;q8 -->
<g id="edge9" class="edge">
<title>q4&#45;&gt;q8</title>
<path fill="none" stroke="#000000" d="M599.3476,-251.0514C608.0769,-246.8676 618.4444,-243.8421 628.193,-245.8935 631.8981,-246.6731 635.6737,-247.7949 639.3706,-249.108"/>
<polygon fill="#000000" stroke="#000000" points="638.286,-252.4442 648.8698,-252.9267 640.897,-245.9493 638.286,-252.4442"/>
<text text-anchor="middle" x="624.693" y="-249.8935" font-family="Times,serif" font-size="14.00" fill="#000000">b</text>
</g>
<!-- q8&#45;&gt;q4 -->
<g id="edge14" class="edge">
<title>q8&#45;&gt;q4</title>
<path fill="none" stroke="#000000" d="M646.0601,-264.6935C636.0071,-264.6935 624.2224,-264.6935 613.3351,-264.6935"/>
<polygon fill="#000000" stroke="#000000" points="613.2576,-261.1936 603.2575,-264.6935 613.2575,-268.1936 613.2576,-261.1936"/>
<text text-anchor="middle" x="624.693" y="-268.8935" font-family="Times,serif" font-size="14.00" fill="#000000">a</text>
</g>
<!-- q8&#45;&gt;q8 -->
<g id="edge15" class="edge">
<title>q8&#45;&gt;q8</title>
<path fill="none" stroke="#000000" d="M662.3962,-287.9685C661.5876,-298.3813 664.4177,-307.3869 670.8864,-307.3869 675.0305,-307.3869 677.6812,-303.691 678.8386,-298.2969"/>
<polygon fill="#000000" stroke="#000000" points="682.3516,-298.137 679.3767,-287.9685 675.3611,-297.7728 682.3516,-298.137"/>
<text text-anchor="middle" x="670.8864" y="-311.5869" font-family="Times,serif" font-size="14.00" fill="#000000">b</text>
</g>
<!-- q9 -->
<g id="node5" class="node">
<title>q9</title>
<ellipse fill="none" stroke="#000000" cx="384.0688" cy="-220.6935" rx="20.8568" ry="20.8568"/>
<ellipse fill="none" stroke="#000000" cx="384.0688" cy="-220.6935" rx="24.8884" ry="24.8884"/>
<text text-anchor="middle" x="384.0688" y="-216.4935" font-family="Times,serif" font-size="14.00" fill="#000000">q9</text>
</g>
<!-- q9&#45;&gt;q2 -->
<g id="edge16" class="edge">
<title>q9&#45;&gt;q2</title>
<path fill="none" stroke="#000000" d="M359.6507,-217.0006C351.5524,-215.5825 342.5264,-213.7922 334.3753,-211.6935 327.6501,-209.9618 268.3545,-190.4876 249.9884,-182.6935 246.2459,-181.1052 242.3644,-179.3515 238.5355,-177.5545"/>
<polygon fill="#000000" stroke="#000000" points="239.7635,-174.261 229.236,-173.0685 236.7221,-180.5657 239.7635,-174.261"/>
<text text-anchor="middle" x="295.6819" y="-209.8935" font-family="Times,serif" font-size="14.00" fill="#000000">a</text>
</g>
<!-- q11 -->
<g id="node7" class="node">
<title>q11</title>
<ellipse fill="none" stroke="#000000" cx="481.2841" cy="-220.6935" rx="25.5409" ry="25.5409"/>
<ellipse fill="none" stroke="#000000" cx="481.2841" cy="-220.6935" rx="29.5439" ry="29.5439"/>
<text text-anchor="middle" x="481.2841" y="-216.4935" font-family="Times,serif" font-size="14.00" fill="#000000">q11</text>
</g>
<!-- q9&#45;&gt;q11 -->
<g id="edge17" class="edge">
<title>q9&#45;&gt;q11</title>
<path fill="none" stroke="#000000" d="M408.8519,-220.6935C418.7422,-220.6935 430.3808,-220.6935 441.4009,-220.6935"/>
<polygon fill="#000000" stroke="#000000" points="441.6997,-224.1935 451.6997,-220.6935 441.6997,-217.1935 441.6997,-224.1935"/>
<text text-anchor="middle" x="430.2622" y="-224.8935" font-family="Times,serif" font-size="14.00" fill="#000000">b</text>
</g>
<!-- q10 -->
<g id="node6" class="node">
<title>q10</title>
<ellipse fill="none" stroke="#000000" cx="481.2841" cy="-66.6935" rx="25.5409" ry="25.5409"/>
<ellipse fill="none" stroke="#000000" cx="481.2841" cy="-66.6935" rx="29.5439" ry="29.5439"/>
<text text-anchor="middle" x="481.2841" y="-62.4935" font-family="Times,serif" font-size="14.00" fill="#000000">q10</text>
</g>
<!-- q10&#45;&gt;q2 -->
<g id="edge18" class="edge">
<title>q10&#45;&gt;q2</title>
<path fill="none" stroke="#000000" d="M451.809,-64.9587C426.701,-64.3401 389.9402,-65.4866 359.3753,-74.6935 312.6567,-88.7661 264.7762,-119.3605 235.5321,-140.2469"/>
<polygon fill="#000000" stroke="#000000" points="233.1108,-137.6796 227.0765,-146.3881 237.2245,-143.3434 233.1108,-137.6796"/>
<text text-anchor="middle" x="337.8753" y="-86.8935" font-family="Times,serif" font-size="14.00" fill="#000000">a</text>
</g>
<!-- q10&#45;&gt;q3 -->
<g id="edge19" class="edge">
<title>q10&#45;&gt;q3</title>
<path fill="none" stroke="#000000" d="M510.1888,-59.5576C522.2572,-56.5782 536.2762,-53.1173 548.4625,-50.1088"/>
<polygon fill="#000000" stroke="#000000" points="549.3151,-53.5035 558.1847,-47.7087 547.6373,-46.7075 549.3151,-53.5035"/>
<text text-anchor="middle" x="532.3061" y="-58.8935" font-family="Times,serif" font-size="14.00" fill="#000000">b</text>
</g>
<!-- q11&#45;&gt;q4 -->
<g id="edge20" class="edge">
<title>q11&#45;&gt;q4</title>
<path fill="none" stroke="#000000" d="M508.364,-232.9499C520.1561,-238.287 534.0666,-244.5829 546.3768,-250.1546"/>
<polygon fill="#000000" stroke="#000000" points="545.2818,-253.5007 555.8353,-254.4355 548.1681,-247.1235 545.2818,-253.5007"/>
<text text-anchor="middle" x="532.3061" y="-248.8935" font-family="Times,serif" font-size="14.00" fill="#000000">a</text>
</g>
<!-- q11&#45;&gt;q5 -->
<g id="edge21" class="edge">
<title>q11&#45;&gt;q5</title>
<path fill="none" stroke="#000000" d="M459.2427,-200.4974C445.7148,-189.386 427.4459,-176.5387 408.7622,-169.8935 382.0654,-160.3982 349.6367,-158.9888 326.3639,-159.574"/>
<polygon fill="#000000" stroke="#000000" points="326.2257,-156.0766 316.3688,-159.9614 326.4969,-163.0714 326.2257,-156.0766"/>
<text text-anchor="middle" x="384.0688" y="-173.8935" font-family="Times,serif" font-size="14.00" fill="#000000">b</text>
</g>
<g id="node8" class="node">
<title></title>
</g>
<!-- &#45;&gt;q1 -->
<g id="edge1" class="edge">
<title>&#45;&gt;q1</title>
<path fill="none" stroke="#000000" d="M54.0929,-24.6935C62.5145,-24.6935 71.9196,-24.6935 80.7952,-24.6935"/>
<polygon fill="#000000" stroke="#000000" points="80.8805,-28.1936 90.8805,-24.6935 80.8805,-21.1936 80.8805,-28.1936"/>
</g>
<!-- q6 -->
<g id="node11" class="node">
<title>q6</title>
<ellipse fill="none" stroke="#000000" cx="384.0688" cy="-104.6935" rx="20.8887" ry="20.8887"/>
<text text-anchor="middle" x="384.0688" y="-100.4935" font-family="Times,serif" font-size="14.00" fill="#000000">q6</text>
</g>
<!-- q3&#45;&gt;q6 -->
<g id="edge6" class="edge">
<title>q3&#45;&gt;q6</title>
<path fill="none" stroke="#000000" d="M566.167,-59.619C554.0089,-74.7841 533.9301,-96.0742 510.8061,-105.6935 479.7781,-118.6006 440.664,-115.7513 414.1553,-111.352"/>
<polygon fill="#000000" stroke="#000000" points="414.7801,-107.9083 404.3135,-109.5513 413.5202,-114.794 414.7801,-107.9083"/>
<text text-anchor="middle" x="481.2841" y="-118.8935" font-family="Times,serif" font-size="14.00" fill="#000000">a</text>
</g>
<!-- q7 -->
<g id="node12" class="node">
<title>q7</title>
<ellipse fill="none" stroke="#000000" cx="670.8864" cy="-77.6935" rx="20.8887" ry="20.8887"/>
<text text-anchor="middle" x="670.8864" y="-73.4935" font-family="Times,serif" font-size="14.00" fill="#000000">q7</text>
</g>
<!-- q3&#45;&gt;q7 -->
<g id="edge7" class="edge">
<title>q3&#45;&gt;q7</title>
<path fill="none" stroke="#000000" d="M598.0924,-50.1161C610.8311,-54.942 627.6639,-61.3189 641.9338,-66.725"/>
<polygon fill="#000000" stroke="#000000" points="640.7304,-70.0118 651.3218,-70.2816 643.2103,-63.4658 640.7304,-70.0118"/>
<text text-anchor="middle" x="624.693" y="-65.8935" font-family="Times,serif" font-size="14.00" fill="#000000">b</text>
</g>
<!-- q5&#45;&gt;q9 -->
<g id="edge11" class="edge">
<title>q5&#45;&gt;q9</title>
<path fill="none" stroke="#000000" d="M313.1443,-173.35C324.9474,-181.2288 340.8255,-191.8277 354.5657,-200.9996"/>
<polygon fill="#000000" stroke="#000000" points="352.9616,-204.1369 363.222,-206.7778 356.8479,-198.3148 352.9616,-204.1369"/>
<text text-anchor="middle" x="337.8753" y="-194.8935" font-family="Times,serif" font-size="14.00" fill="#000000">b</text>
</g>
<!-- q5&#45;&gt;q6 -->
<g id="edge10" class="edge">
<title>q5&#45;&gt;q6</title>
<path fill="none" stroke="#000000" d="M311.3677,-148.1072C318.2129,-142.4725 326.4688,-136.0594 334.3753,-130.8935 341.1112,-126.4924 348.6665,-122.2069 355.8136,-118.4197"/>
<polygon fill="#000000" stroke="#000000" points="357.8971,-121.2841 365.1912,-113.5999 354.6972,-115.0582 357.8971,-121.2841"/>
<text text-anchor="middle" x="337.8753" y="-134.8935" font-family="Times,serif" font-size="14.00" fill="#000000">a</text>
</g>
<!-- q6&#45;&gt;q10 -->
<g id="edge12" class="edge">
<title>q6&#45;&gt;q10</title>
<path fill="none" stroke="#000000" d="M403.7418,-97.0036C415.2603,-92.5012 430.1871,-86.6665 443.8642,-81.3203"/>
<polygon fill="#000000" stroke="#000000" points="445.4964,-84.4403 453.5359,-77.5398 442.9479,-77.9207 445.4964,-84.4403"/>
<text text-anchor="middle" x="430.2622" y="-91.8935" font-family="Times,serif" font-size="14.00" fill="#000000">b</text>
</g>
<!-- q7&#45;&gt;q10 -->
<g id="edge13" class="edge">
<title>q7&#45;&gt;q10</title>
<path fill="none" stroke="#000000" d="M650.0827,-80.6223C643.1368,-81.4686 635.345,-82.2761 628.193,-82.6935 591.4209,-84.8394 549.6874,-79.5458 520.1234,-74.4824"/>
<polygon fill="#000000" stroke="#000000" points="520.6609,-71.0231 510.2018,-72.7136 519.4323,-77.9145 520.6609,-71.0231"/>
<text text-anchor="middle" x="578.4995" y="-86.8935" font-family="Times,serif" font-size="14.00" fill="#000000">b</text>
</g>
</g>
</svg>
