<?xml version="1.0" encoding="UTF-8" standalone="no"?>
<!DOCTYPE svg PUBLIC "-//W3C//DTD SVG 1.1//EN"
 "http://www.w3.org/Graphics/SVG/1.1/DTD/svg11.dtd">
<!-- Generated by graphviz version 2.40.1 (20161225.0304)
 -->
<!-- Title: finite_state_machine Pages: 1 -->
<svg width="433pt" height="226pt"
 viewBox="0.00 0.00 433.00 226.45" xmlns="http://www.w3.org/2000/svg" xmlns:xlink="http://www.w3.org/1999/xlink">
<g id="graph0" class="graph" transform="scale(1 1) rotate(0) translate(4 222.4485)">
<title>finite_state_machine</title>
<polygon fill="#ffffff" stroke="transparent" points="-4,4 -4,-222.4485 429,-222.4485 429,4 -4,4"/>
<!-- 1 -->
<g id="node1" class="node">
<title>1</title>
<ellipse fill="none" stroke="#000000" cx="113" cy="-45.6485" rx="18" ry="18"/>
<ellipse fill="none" stroke="#000000" cx="113" cy="-45.6485" rx="22" ry="22"/>
<text text-anchor="middle" x="113" y="-41.4485" font-family="Times,serif" font-size="14.00" fill="#000000">1</text>
</g>
<!-- 2 -->
<g id="node2" class="node">
<title>2</title>
<ellipse fill="none" stroke="#000000" cx="200" cy="-112.6485" rx="18" ry="18"/>
<ellipse fill="none" stroke="#000000" cx="200" cy="-112.6485" rx="22" ry="22"/>
<text text-anchor="middle" x="200" y="-108.4485" font-family="Times,serif" font-size="14.00" fill="#000000">2</text>
</g>
<!-- 1&#45;&gt;2 -->
<g id="edge2" class="edge">
<title>1&#45;&gt;2</title>
<path fill="none" stroke="#000000" d="M130.6057,-59.2069C143.1056,-68.8332 160.0904,-81.9135 174.1276,-92.7238"/>
<polygon fill="#000000" stroke="#000000" points="172.362,-95.7817 182.4204,-99.1102 176.6331,-90.2356 172.362,-95.7817"/>
<text text-anchor="middle" x="156.5" y="-84.8485" font-family="Times,serif" font-size="14.00" fill="#000000">a</text>
</g>
<!-- 3 -->
<g id="node6" class="node">
<title>3</title>
<ellipse fill="none" stroke="#000000" cx="258" cy="-45.6485" rx="18" ry="18"/>
<text text-anchor="middle" x="258" y="-41.4485" font-family="Times,serif" font-size="14.00" fill="#000000">3</text>
</g>
<!-- 1&#45;&gt;3 -->
<g id="edge3" class="edge">
<title>1&#45;&gt;3</title>
<path fill="none" stroke="#000000" d="M135.0224,-45.6485C160.341,-45.6485 201.9646,-45.6485 229.6748,-45.6485"/>
<polygon fill="#000000" stroke="#000000" points="229.9037,-49.1486 239.9037,-45.6485 229.9037,-42.1486 229.9037,-49.1486"/>
<text text-anchor="middle" x="156.5" y="-49.8485" font-family="Times,serif" font-size="14.00" fill="#000000">b</text>
</g>
<!-- 4 -->
<g id="node3" class="node">
<title>4</title>
<ellipse fill="none" stroke="#000000" cx="316" cy="-161.6485" rx="18" ry="18"/>
<ellipse fill="none" stroke="#000000" cx="316" cy="-161.6485" rx="22" ry="22"/>
<text text-anchor="middle" x="316" y="-157.4485" font-family="Times,serif" font-size="14.00" fill="#000000">4</text>
</g>
<!-- 2&#45;&gt;4 -->
<g id="edge4" class="edge">
<title>2&#45;&gt;4</title>
<path fill="none" stroke="#000000" d="M214.4206,-129.3038C221.4342,-136.3583 230.4147,-144.0051 240,-148.6485 253.4399,-155.1592 269.5993,-158.4641 283.5554,-160.121"/>
<polygon fill="#000000" stroke="#000000" points="283.4291,-163.6248 293.7168,-161.0925 284.0954,-156.6565 283.4291,-163.6248"/>
<text text-anchor="middle" x="258" y="-162.8485" font-family="Times,serif" font-size="14.00" fill="#000000">a</text>
</g>
<!-- 5 -->
<g id="node7" class="node">
<title>5</title>
<ellipse fill="none" stroke="#000000" cx="316" cy="-98.6485" rx="18" ry="18"/>
<text text-anchor="middle" x="316" y="-94.4485" font-family="Times,serif" font-size="14.00" fill="#000000">5</text>
</g>
<!-- 2&#45;&gt;5 -->
<g id="edge5" class="edge">
<title>2&#45;&gt;5</title>
<path fill="none" stroke="#000000" d="M218.79,-100.5208C225.251,-97.004 232.7008,-93.6329 240,-91.8485 255.843,-87.9755 274.0254,-89.4005 288.6328,-91.9234"/>
<polygon fill="#000000" stroke="#000000" points="288.0624,-95.3784 298.5527,-93.8945 289.4266,-88.5127 288.0624,-95.3784"/>
<text text-anchor="middle" x="258" y="-95.8485" font-family="Times,serif" font-size="14.00" fill="#000000">b</text>
</g>
<!-- 4&#45;&gt;2 -->
<g id="edge11" class="edge">
<title>4&#45;&gt;2</title>
<path fill="none" stroke="#000000" d="M300.5983,-145.4473C293.6594,-139.0455 285.0075,-132.1939 276,-127.8485 262.4795,-121.3259 246.3098,-117.6016 232.3676,-115.4753"/>
<polygon fill="#000000" stroke="#000000" points="232.5919,-111.9748 222.2209,-114.141 231.6792,-118.915 232.5919,-111.9748"/>
<text text-anchor="middle" x="258" y="-131.8485" font-family="Times,serif" font-size="14.00" fill="#000000">a, b</text>
</g>
<!-- 4&#45;&gt;4 -->
<g id="edge7" class="edge">
<title>4&#45;&gt;4</title>
<path fill="none" stroke="#000000" d="M308.3173,-182.6392C307.3688,-192.7357 309.9297,-201.6485 316,-201.6485 319.8888,-201.6485 322.3373,-197.9907 323.3456,-192.7071"/>
<polygon fill="#000000" stroke="#000000" points="326.846,-192.7508 323.6827,-182.6392 319.8499,-192.5165 326.846,-192.7508"/>
<text text-anchor="middle" x="316" y="-205.8485" font-family="Times,serif" font-size="14.00" fill="#000000">a, b</text>
</g>
<!-- 7 -->
<g id="node4" class="node">
<title>7</title>
<ellipse fill="none" stroke="#000000" cx="403" cy="-118.6485" rx="18" ry="18"/>
<ellipse fill="none" stroke="#000000" cx="403" cy="-118.6485" rx="22" ry="22"/>
<text text-anchor="middle" x="403" y="-114.4485" font-family="Times,serif" font-size="14.00" fill="#000000">7</text>
</g>
<g id="node5" class="node">
<title></title>
</g>
<!-- &#45;&gt;1 -->
<g id="edge1" class="edge">
<title>&#45;&gt;1</title>
<path fill="none" stroke="#000000" d="M54.2109,-45.6485C62.6073,-45.6485 71.9364,-45.6485 80.6441,-45.6485"/>
<polygon fill="#000000" stroke="#000000" points="80.8529,-49.1486 90.8529,-45.6485 80.8528,-42.1486 80.8529,-49.1486"/>
</g>
<!-- 6 -->
<g id="node8" class="node">
<title>6</title>
<ellipse fill="none" stroke="#000000" cx="403" cy="-45.6485" rx="18" ry="18"/>
<text text-anchor="middle" x="403" y="-41.4485" font-family="Times,serif" font-size="14.00" fill="#000000">6</text>
</g>
<!-- 3&#45;&gt;6 -->
<g id="edge6" class="edge">
<title>3&#45;&gt;6</title>
<path fill="none" stroke="#000000" d="M276.0712,-45.6485C300.7094,-45.6485 345.1111,-45.6485 374.3223,-45.6485"/>
<polygon fill="#000000" stroke="#000000" points="374.7011,-49.1486 384.7011,-45.6485 374.7011,-42.1486 374.7011,-49.1486"/>
<text text-anchor="middle" x="316" y="-49.8485" font-family="Times,serif" font-size="14.00" fill="#000000">a, b</text>
</g>
<!-- 5&#45;&gt;7 -->
<g id="edge9" class="edge">
<title>5&#45;&gt;7</title>
<path fill="none" stroke="#000000" d="M333.6057,-102.6958C344.4973,-105.1996 358.794,-108.4862 371.5789,-111.4252"/>
<polygon fill="#000000" stroke="#000000" points="370.8841,-114.8567 381.4141,-113.6862 372.4524,-108.0347 370.8841,-114.8567"/>
<text text-anchor="middle" x="359.5" y="-112.8485" font-family="Times,serif" font-size="14.00" fill="#000000">b</text>
</g>
<!-- 5&#45;&gt;6 -->
<g id="edge8" class="edge">
<title>5&#45;&gt;6</title>
<path fill="none" stroke="#000000" d="M331.5539,-89.1731C344.6678,-81.1842 363.658,-69.6154 378.7642,-60.4128"/>
<polygon fill="#000000" stroke="#000000" points="380.8616,-63.2335 387.5808,-55.0418 377.2198,-57.2554 380.8616,-63.2335"/>
<text text-anchor="middle" x="359.5" y="-78.8485" font-family="Times,serif" font-size="14.00" fill="#000000">a</text>
</g>
<!-- 6&#45;&gt;1 -->
<g id="edge10" class="edge">
<title>6&#45;&gt;1</title>
<path fill="none" stroke="#000000" d="M387.0328,-36.5808C358.0997,-21.2303 294.9089,7.3541 240,-1.8485 205.4787,-7.6342 167.7857,-21.6894 142.5041,-32.3299"/>
<polygon fill="#000000" stroke="#000000" points="140.934,-29.195 133.1287,-36.3594 143.6981,-35.6262 140.934,-29.195"/>
<text text-anchor="middle" x="258" y="-6.8485" font-family="Times,serif" font-size="14.00" fill="#000000">b</text>
</g>
</g>
</svg>
