<?xml version="1.0" encoding="UTF-8" standalone="no"?>
<!DOCTYPE svg PUBLIC "-//W3C//DTD SVG 1.1//EN"
 "http://www.w3.org/Graphics/SVG/1.1/DTD/svg11.dtd">
<!-- Generated by graphviz version 2.40.1 (20161225.0304)
 -->
<!-- Title: finite_state_machine Pages: 1 -->
<svg width="501pt" height="416pt"
 viewBox="0.00 0.00 501.15 415.95" xmlns="http://www.w3.org/2000/svg" xmlns:xlink="http://www.w3.org/1999/xlink">
<g id="graph0" class="graph" transform="scale(1 1) rotate(0) translate(4 411.9501)">
<title>finite_state_machine</title>
<polygon fill="#ffffff" stroke="transparent" points="-4,4 -4,-411.9501 497.1491,-411.9501 497.1491,4 -4,4"/>
<!-- q2 -->
<g id="node1" class="node">
<title>q2</title>
<ellipse fill="none" stroke="#000000" cx="200.0804" cy="-304.1501" rx="20.8568" ry="20.8568"/>
<ellipse fill="none" stroke="#000000" cx="200.0804" cy="-304.1501" rx="24.8884" ry="24.8884"/>
<text text-anchor="middle" x="200.0804" y="-299.9501" font-family="Times,serif" font-size="14.00" fill="#000000">q2</text>
</g>
<!-- q6 -->
<g id="node3" class="node">
<title>q6</title>
<ellipse fill="none" stroke="#000000" cx="291.6819" cy="-164.1501" rx="20.8568" ry="20.8568"/>
<ellipse fill="none" stroke="#000000" cx="291.6819" cy="-164.1501" rx="24.8884" ry="24.8884"/>
<text text-anchor="middle" x="291.6819" y="-159.9501" font-family="Times,serif" font-size="14.00" fill="#000000">q6</text>
</g>
<!-- q2&#45;&gt;q6 -->
<g id="edge6" class="edge">
<title>q2&#45;&gt;q6</title>
<path fill="none" stroke="#000000" d="M213.794,-283.1907C229.3089,-259.4784 254.6958,-220.6782 272.2479,-193.8522"/>
<polygon fill="#000000" stroke="#000000" points="275.3281,-195.5371 277.8744,-185.2528 269.4705,-191.7045 275.3281,-195.5371"/>
<text text-anchor="middle" x="245.8811" y="-243.3501" font-family="Times,serif" font-size="14.00" fill="#000000">c</text>
</g>
<!-- q4 -->
<g id="node7" class="node">
<title>q4</title>
<ellipse fill="none" stroke="#000000" cx="380.0688" cy="-98.1501" rx="20.8887" ry="20.8887"/>
<text text-anchor="middle" x="380.0688" y="-93.9501" font-family="Times,serif" font-size="14.00" fill="#000000">q4</text>
</g>
<!-- q2&#45;&gt;q4 -->
<g id="edge4" class="edge">
<title>q2&#45;&gt;q4</title>
<path fill="none" stroke="#000000" d="M221.4993,-316.8022C246.5748,-329.778 288.247,-345.4239 316.3753,-325.1501 348.2722,-302.1601 368.166,-185.8316 376.1083,-129.2064"/>
<polygon fill="#000000" stroke="#000000" points="379.6109,-129.4243 377.495,-119.043 372.6752,-128.478 379.6109,-129.4243"/>
<text text-anchor="middle" x="291.6819" y="-338.3501" font-family="Times,serif" font-size="14.00" fill="#000000">a</text>
</g>
<!-- q5 -->
<g id="node8" class="node">
<title>q5</title>
<ellipse fill="none" stroke="#000000" cx="380.0688" cy="-285.1501" rx="20.8887" ry="20.8887"/>
<text text-anchor="middle" x="380.0688" y="-280.9501" font-family="Times,serif" font-size="14.00" fill="#000000">q5</text>
</g>
<!-- q2&#45;&gt;q5 -->
<g id="edge5" class="edge">
<title>q2&#45;&gt;q5</title>
<path fill="none" stroke="#000000" d="M207.9973,-327.6888C214.7547,-344.3469 226.0628,-365.9826 242.7738,-379.1501 268.5836,-399.4871 283.8216,-390.6217 316.3753,-386.1501 327.8064,-384.58 332.7515,-386.816 341.3753,-379.1501 359.7678,-362.8009 369.6037,-336.3733 374.7476,-315.6974"/>
<polygon fill="#000000" stroke="#000000" points="378.1971,-316.3103 376.9717,-305.7866 371.3669,-314.7776 378.1971,-316.3103"/>
<text text-anchor="middle" x="291.6819" y="-395.3501" font-family="Times,serif" font-size="14.00" fill="#000000">b</text>
</g>
<!-- q3 -->
<g id="node2" class="node">
<title>q3</title>
<ellipse fill="none" stroke="#000000" cx="200.0804" cy="-164.1501" rx="20.8568" ry="20.8568"/>
<ellipse fill="none" stroke="#000000" cx="200.0804" cy="-164.1501" rx="24.8884" ry="24.8884"/>
<text text-anchor="middle" x="200.0804" y="-159.9501" font-family="Times,serif" font-size="14.00" fill="#000000">q3</text>
</g>
<!-- q3&#45;&gt;q6 -->
<g id="edge9" class="edge">
<title>q3&#45;&gt;q6</title>
<path fill="none" stroke="#000000" d="M215.8729,-144.5607C223.1698,-137.0444 232.4975,-129.3221 242.7738,-125.3501 253.4078,-121.2399 263.5601,-127.058 271.8313,-135.3394"/>
<polygon fill="#000000" stroke="#000000" points="269.365,-137.8361 278.5805,-143.0635 274.6362,-133.2302 269.365,-137.8361"/>
<text text-anchor="middle" x="245.8811" y="-130.3501" font-family="Times,serif" font-size="14.00" fill="#000000">c</text>
</g>
<!-- q3&#45;&gt;q6 -->
<g id="edge16" class="edge">
<title>q3&#45;&gt;q6</title>
<path fill="none" stroke="#000000" d="M222.1435,-175.4191C228.6226,-178.182 235.8356,-180.7473 242.7738,-182.1501 248.796,-183.3677 255.0645,-182.6729 261.0251,-180.9944"/>
<polygon fill="#000000" stroke="#000000" points="262.5167,-184.1739 270.6675,-177.4052 260.0747,-177.6136 262.5167,-184.1739"/>
<text text-anchor="middle" x="245.8811" y="-187.3501" font-family="Times,serif" font-size="14.00" fill="#000000">c</text>
</g>
<!-- q3&#45;&gt;q6 -->
<g id="edge19" class="edge">
<title>q3&#45;&gt;q6</title>
<path fill="none" stroke="#000000" d="M224.6997,-161.8753C232.4669,-161.3899 241.0831,-161.0912 248.9884,-161.3501 251.5219,-161.4331 254.1385,-161.5437 256.7711,-161.6731"/>
<polygon fill="#000000" stroke="#000000" points="256.6797,-165.1735 266.8622,-162.2467 257.0769,-158.1848 256.6797,-165.1735"/>
<text text-anchor="middle" x="245.8811" y="-166.3501" font-family="Times,serif" font-size="14.00" fill="#000000">c</text>
</g>
<!-- q3&#45;&gt;q4 -->
<g id="edge7" class="edge">
<title>q3&#45;&gt;q4</title>
<path fill="none" stroke="#000000" d="M204.3974,-139.682C210.0787,-111.8716 221.8813,-65.8439 242.7738,-31.1501 250.7209,-17.9534 252.7916,-12.3302 266.9884,-6.3501 287.2168,2.1706 296.0796,2.0089 316.3753,-6.3501 342.9364,-17.2897 360.0813,-46.2908 369.816,-68.7972"/>
<polygon fill="#000000" stroke="#000000" points="366.6596,-70.3276 373.6574,-78.2826 373.1477,-67.7 366.6596,-70.3276"/>
<text text-anchor="middle" x="291.6819" y="-11.3501" font-family="Times,serif" font-size="14.00" fill="#000000">a</text>
</g>
<!-- q3&#45;&gt;q4 -->
<g id="edge15" class="edge">
<title>q3&#45;&gt;q4</title>
<path fill="none" stroke="#000000" d="M215.2924,-144.2858C222.742,-135.763 232.3485,-126.3586 242.7738,-120.1501 275.4697,-100.6791 319.9592,-96.8458 349.3198,-96.7745"/>
<polygon fill="#000000" stroke="#000000" points="349.3608,-100.2751 359.4024,-96.8964 349.4455,-93.2757 349.3608,-100.2751"/>
<text text-anchor="middle" x="291.6819" y="-113.3501" font-family="Times,serif" font-size="14.00" fill="#000000">a</text>
</g>
<!-- q3&#45;&gt;q4 -->
<g id="edge17" class="edge">
<title>q3&#45;&gt;q4</title>
<path fill="none" stroke="#000000" d="M210.4035,-141.4182C221.2118,-120.6853 240.3391,-91.3629 266.9884,-78.3501 294.0627,-65.1298 328.5934,-74.4275 352.3334,-84.2588"/>
<polygon fill="#000000" stroke="#000000" points="350.9216,-87.4614 361.4836,-88.2953 353.7469,-81.0569 350.9216,-87.4614"/>
<text text-anchor="middle" x="291.6819" y="-83.3501" font-family="Times,serif" font-size="14.00" fill="#000000">a</text>
</g>
<!-- q3&#45;&gt;q5 -->
<g id="edge8" class="edge">
<title>q3&#45;&gt;q5</title>
<path fill="none" stroke="#000000" d="M204.8436,-188.4988C211.874,-221.6188 226.0213,-278.1385 242.7738,-290.1501 274.1584,-312.6532 320.7629,-304.6916 350.7813,-295.7994"/>
<polygon fill="#000000" stroke="#000000" points="352.1837,-299.0263 360.6553,-292.6637 350.0649,-292.3546 352.1837,-299.0263"/>
<text text-anchor="middle" x="291.6819" y="-308.3501" font-family="Times,serif" font-size="14.00" fill="#000000">b</text>
</g>
<!-- q3&#45;&gt;q5 -->
<g id="edge18" class="edge">
<title>q3&#45;&gt;q5</title>
<path fill="none" stroke="#000000" d="M204.2941,-188.6011C209.4433,-210.7626 220.4035,-242.5641 242.7738,-260.1501 258.9131,-272.8378 313.8508,-279.683 349.1461,-282.8609"/>
<polygon fill="#000000" stroke="#000000" points="349.1442,-286.3733 359.4045,-283.7318 349.7364,-279.3984 349.1442,-286.3733"/>
<text text-anchor="middle" x="291.6819" y="-282.3501" font-family="Times,serif" font-size="14.00" fill="#000000">b</text>
</g>
<!-- q6&#45;&gt;q6 -->
<g id="edge14" class="edge">
<title>q6&#45;&gt;q6</title>
<path fill="none" stroke="#000000" d="M283.5306,-187.8582C282.8632,-198.0864 285.5803,-206.8436 291.6819,-206.8436 295.5907,-206.8436 298.1105,-203.2496 299.2414,-197.9773"/>
<polygon fill="#000000" stroke="#000000" points="302.7433,-198.0455 299.8332,-187.8582 295.7552,-197.6367 302.7433,-198.0455"/>
<text text-anchor="middle" x="291.6819" y="-211.0436" font-family="Times,serif" font-size="14.00" fill="#000000">c</text>
</g>
<!-- q6&#45;&gt;q4 -->
<g id="edge12" class="edge">
<title>q6&#45;&gt;q4</title>
<path fill="none" stroke="#000000" d="M311.7382,-149.1737C324.645,-139.536 341.514,-126.9396 355.2615,-116.6741"/>
<polygon fill="#000000" stroke="#000000" points="357.4361,-119.4185 363.3546,-110.6309 353.2478,-113.8097 357.4361,-119.4185"/>
<text text-anchor="middle" x="337.8753" y="-135.3501" font-family="Times,serif" font-size="14.00" fill="#000000">a</text>
</g>
<!-- q6&#45;&gt;q5 -->
<g id="edge13" class="edge">
<title>q6&#45;&gt;q5</title>
<path fill="none" stroke="#000000" d="M307.2186,-183.5844C317.1783,-196.1971 330.2732,-213.0708 341.3753,-228.3501 348.6247,-238.3271 356.3277,-249.5068 362.9364,-259.2917"/>
<polygon fill="#000000" stroke="#000000" points="360.1749,-261.4578 368.6534,-267.8112 365.9874,-257.5572 360.1749,-261.4578"/>
<text text-anchor="middle" x="337.8753" y="-233.3501" font-family="Times,serif" font-size="14.00" fill="#000000">b</text>
</g>
<!-- q8 -->
<g id="node4" class="node">
<title>q8</title>
<ellipse fill="none" stroke="#000000" cx="468.4557" cy="-285.1501" rx="20.8568" ry="20.8568"/>
<ellipse fill="none" stroke="#000000" cx="468.4557" cy="-285.1501" rx="24.8884" ry="24.8884"/>
<text text-anchor="middle" x="468.4557" y="-280.9501" font-family="Times,serif" font-size="14.00" fill="#000000">q8</text>
</g>
<g id="node5" class="node">
<title></title>
</g>
<!-- q1 -->
<g id="node6" class="node">
<title>q1</title>
<ellipse fill="none" stroke="#000000" cx="111.6935" cy="-204.1501" rx="20.8887" ry="20.8887"/>
<text text-anchor="middle" x="111.6935" y="-199.9501" font-family="Times,serif" font-size="14.00" fill="#000000">q1</text>
</g>
<!-- &#45;&gt;q1 -->
<g id="edge1" class="edge">
<title>&#45;&gt;q1</title>
<path fill="none" stroke="#000000" d="M54.2637,-204.1501C62.7209,-204.1501 72.1012,-204.1501 80.7873,-204.1501"/>
<polygon fill="#000000" stroke="#000000" points="80.9294,-207.6502 90.9294,-204.1501 80.9293,-200.6502 80.9294,-207.6502"/>
</g>
<!-- q1&#45;&gt;q2 -->
<g id="edge2" class="edge">
<title>q1&#45;&gt;q2</title>
<path fill="none" stroke="#000000" d="M125.5039,-219.7751C139.2685,-235.3483 160.6547,-259.5444 177.002,-278.0396"/>
<polygon fill="#000000" stroke="#000000" points="174.4175,-280.4004 183.6626,-285.5753 179.6624,-275.7646 174.4175,-280.4004"/>
<text text-anchor="middle" x="153.8869" y="-258.3501" font-family="Times,serif" font-size="14.00" fill="#000000">b</text>
</g>
<!-- q1&#45;&gt;q3 -->
<g id="edge3" class="edge">
<title>q1&#45;&gt;q3</title>
<path fill="none" stroke="#000000" d="M130.8721,-195.4707C141.796,-190.527 155.7604,-184.2074 168.2809,-178.5412"/>
<polygon fill="#000000" stroke="#000000" points="169.8322,-181.6809 177.4996,-174.3692 166.946,-175.3036 169.8322,-181.6809"/>
<text text-anchor="middle" x="153.8869" y="-191.3501" font-family="Times,serif" font-size="14.00" fill="#000000">c</text>
</g>
<!-- q7 -->
<g id="node9" class="node">
<title>q7</title>
<ellipse fill="none" stroke="#000000" cx="468.4557" cy="-98.1501" rx="20.8887" ry="20.8887"/>
<text text-anchor="middle" x="468.4557" y="-93.9501" font-family="Times,serif" font-size="14.00" fill="#000000">q7</text>
</g>
<!-- q4&#45;&gt;q7 -->
<g id="edge10" class="edge">
<title>q4&#45;&gt;q7</title>
<path fill="none" stroke="#000000" d="M401.0152,-98.1501C411.9126,-98.1501 425.4464,-98.1501 437.5238,-98.1501"/>
<polygon fill="#000000" stroke="#000000" points="437.6596,-101.6502 447.6596,-98.1501 437.6595,-94.6502 437.6596,-101.6502"/>
<text text-anchor="middle" x="422.2622" y="-102.3501" font-family="Times,serif" font-size="14.00" fill="#000000">b</text>
</g>
<!-- q5&#45;&gt;q8 -->
<g id="edge11" class="edge">
<title>q5&#45;&gt;q8</title>
<path fill="none" stroke="#000000" d="M401.0152,-285.1501C410.6867,-285.1501 422.4346,-285.1501 433.3982,-285.1501"/>
<polygon fill="#000000" stroke="#000000" points="433.5759,-288.6502 443.5759,-285.1501 433.5758,-281.6502 433.5759,-288.6502"/>
<text text-anchor="middle" x="422.2622" y="-289.3501" font-family="Times,serif" font-size="14.00" fill="#000000">a</text>
</g>
</g>
</svg>
