<?xml version="1.0" encoding="UTF-8" standalone="no"?>
<!DOCTYPE svg PUBLIC "-//W3C//DTD SVG 1.1//EN"
 "http://www.w3.org/Graphics/SVG/1.1/DTD/svg11.dtd">
<!-- Generated by graphviz version 2.40.1 (20161225.0304)
 -->
<!-- Title: finite_state_machine Pages: 1 -->
<svg width="1378pt" height="387pt"
 viewBox="0.00 0.00 1378.20 387.35" xmlns="http://www.w3.org/2000/svg" xmlns:xlink="http://www.w3.org/1999/xlink">
<g id="graph0" class="graph" transform="scale(1 1) rotate(0) translate(4 383.3468)">
<title>finite_state_machine</title>
<polygon fill="#ffffff" stroke="transparent" points="-4,4 -4,-383.3468 1374.2034,-383.3468 1374.2034,4 -4,4"/>
<!-- 19 -->
<g id="node1" class="node">
<title>19</title>
<ellipse fill="none" stroke="#000000" cx="1345.51" cy="-327.3468" rx="20.8568" ry="20.8568"/>
<ellipse fill="none" stroke="#000000" cx="1345.51" cy="-327.3468" rx="24.8884" ry="24.8884"/>
<text text-anchor="middle" x="1345.51" y="-323.1468" font-family="Times,serif" font-size="14.00" fill="#000000">19</text>
</g>
<g id="node2" class="node">
<title></title>
</g>
<!-- 0 -->
<g id="node3" class="node">
<title>0</title>
<ellipse fill="none" stroke="#000000" cx="109" cy="-334.3468" rx="18" ry="18"/>
<text text-anchor="middle" x="109" y="-330.1468" font-family="Times,serif" font-size="14.00" fill="#000000">0</text>
</g>
<!-- &#45;&gt;0 -->
<g id="edge1" class="edge">
<title>&#45;&gt;0</title>
<path fill="none" stroke="#000000" d="M54.3048,-334.3468C62.6909,-334.3468 71.9407,-334.3468 80.4103,-334.3468"/>
<polygon fill="#000000" stroke="#000000" points="80.5976,-337.8469 90.5976,-334.3468 80.5976,-330.8469 80.5976,-337.8469"/>
</g>
<!-- 1 -->
<g id="node4" class="node">
<title>1</title>
<ellipse fill="none" stroke="#000000" cx="215.2104" cy="-361.3468" rx="18" ry="18"/>
<text text-anchor="middle" x="215.2104" y="-357.1468" font-family="Times,serif" font-size="14.00" fill="#000000">1</text>
</g>
<!-- 0&#45;&gt;1 -->
<g id="edge2" class="edge">
<title>0&#45;&gt;1</title>
<path fill="none" stroke="#000000" d="M126.5385,-338.8053C143.2196,-343.0459 168.5657,-349.4891 187.8934,-354.4025"/>
<polygon fill="#000000" stroke="#000000" points="187.0918,-357.81 197.6459,-356.8817 188.8165,-351.0257 187.0918,-357.81"/>
<text text-anchor="middle" x="162.1052" y="-356.5468" font-family="Times,serif" font-size="14.00" fill="#000000">lamda</text>
</g>
<!-- 3 -->
<g id="node5" class="node">
<title>3</title>
<ellipse fill="none" stroke="#000000" cx="215.2104" cy="-307.3468" rx="18" ry="18"/>
<text text-anchor="middle" x="215.2104" y="-303.1468" font-family="Times,serif" font-size="14.00" fill="#000000">3</text>
</g>
<!-- 0&#45;&gt;3 -->
<g id="edge3" class="edge">
<title>0&#45;&gt;3</title>
<path fill="none" stroke="#000000" d="M126.5136,-328.8449C132.3687,-327.0718 138.9449,-325.1518 145,-323.5468 159.0257,-319.829 174.7553,-316.1545 187.7653,-313.2472"/>
<polygon fill="#000000" stroke="#000000" points="188.5197,-316.665 197.5316,-311.094 187.0125,-309.8292 188.5197,-316.665"/>
<text text-anchor="middle" x="162.1052" y="-328.5468" font-family="Times,serif" font-size="14.00" fill="#000000">lamda</text>
</g>
<!-- 2 -->
<g id="node6" class="node">
<title>2</title>
<ellipse fill="none" stroke="#000000" cx="294.2104" cy="-361.3468" rx="18" ry="18"/>
<text text-anchor="middle" x="294.2104" y="-357.1468" font-family="Times,serif" font-size="14.00" fill="#000000">2</text>
</g>
<!-- 1&#45;&gt;2 -->
<g id="edge4" class="edge">
<title>1&#45;&gt;2</title>
<path fill="none" stroke="#000000" d="M233.5332,-361.3468C243.1051,-361.3468 255.0327,-361.3468 265.7733,-361.3468"/>
<polygon fill="#000000" stroke="#000000" points="265.987,-364.8469 275.987,-361.3468 265.987,-357.8469 265.987,-364.8469"/>
<text text-anchor="middle" x="254.7104" y="-365.5468" font-family="Times,serif" font-size="14.00" fill="#000000">b</text>
</g>
<!-- 4 -->
<g id="node8" class="node">
<title>4</title>
<ellipse fill="none" stroke="#000000" cx="294.2104" cy="-307.3468" rx="18" ry="18"/>
<text text-anchor="middle" x="294.2104" y="-303.1468" font-family="Times,serif" font-size="14.00" fill="#000000">4</text>
</g>
<!-- 3&#45;&gt;4 -->
<g id="edge6" class="edge">
<title>3&#45;&gt;4</title>
<path fill="none" stroke="#000000" d="M233.5332,-307.3468C243.1051,-307.3468 255.0327,-307.3468 265.7733,-307.3468"/>
<polygon fill="#000000" stroke="#000000" points="265.987,-310.8469 275.987,-307.3468 265.987,-303.8469 265.987,-310.8469"/>
<text text-anchor="middle" x="254.7104" y="-311.5468" font-family="Times,serif" font-size="14.00" fill="#000000">c</text>
</g>
<!-- 5 -->
<g id="node7" class="node">
<title>5</title>
<ellipse fill="none" stroke="#000000" cx="400.4208" cy="-334.3468" rx="18" ry="18"/>
<text text-anchor="middle" x="400.4208" y="-330.1468" font-family="Times,serif" font-size="14.00" fill="#000000">5</text>
</g>
<!-- 2&#45;&gt;5 -->
<g id="edge5" class="edge">
<title>2&#45;&gt;5</title>
<path fill="none" stroke="#000000" d="M311.7489,-356.8883C328.43,-352.6478 353.7761,-346.2045 373.1038,-341.2911"/>
<polygon fill="#000000" stroke="#000000" points="374.0269,-344.6679 382.8563,-338.8119 372.3022,-337.8837 374.0269,-344.6679"/>
<text text-anchor="middle" x="347.3156" y="-356.5468" font-family="Times,serif" font-size="14.00" fill="#000000">lamda</text>
</g>
<!-- 5&#45;&gt;19 -->
<g id="edge8" class="edge">
<title>5&#45;&gt;19</title>
<path fill="none" stroke="#000000" d="M417.9486,-338.9025C438.8937,-343.9381 475.0721,-351.3468 506.6312,-351.3468 506.6312,-351.3468 506.6312,-351.3468 1229.9127,-351.3468 1257.9967,-351.3468 1289.1323,-344.4718 1312.0082,-338.0811"/>
<polygon fill="#000000" stroke="#000000" points="1313.272,-341.3586 1321.8968,-335.2053 1311.3172,-334.6371 1313.272,-341.3586"/>
<text text-anchor="middle" x="867.3179" y="-355.5468" font-family="Times,serif" font-size="14.00" fill="#000000">lamda</text>
</g>
<!-- 6 -->
<g id="node9" class="node">
<title>6</title>
<ellipse fill="none" stroke="#000000" cx="506.6312" cy="-280.3468" rx="18" ry="18"/>
<text text-anchor="middle" x="506.6312" y="-276.1468" font-family="Times,serif" font-size="14.00" fill="#000000">6</text>
</g>
<!-- 5&#45;&gt;6 -->
<g id="edge9" class="edge">
<title>5&#45;&gt;6</title>
<path fill="none" stroke="#000000" d="M416.5519,-326.1454C433.7854,-317.3834 461.3319,-303.3781 481.4303,-293.1596"/>
<polygon fill="#000000" stroke="#000000" points="483.0205,-296.2775 490.3483,-288.6254 479.848,-290.0377 483.0205,-296.2775"/>
<text text-anchor="middle" x="453.526" y="-319.5468" font-family="Times,serif" font-size="14.00" fill="#000000">lamda</text>
</g>
<!-- 4&#45;&gt;5 -->
<g id="edge7" class="edge">
<title>4&#45;&gt;5</title>
<path fill="none" stroke="#000000" d="M311.8892,-311.094C326.1338,-314.1929 346.6456,-318.8351 364.4208,-323.5468 367.2591,-324.2992 370.212,-325.1207 373.1513,-325.9639"/>
<polygon fill="#000000" stroke="#000000" points="372.3254,-329.3694 382.9072,-328.8449 374.3079,-322.656 372.3254,-329.3694"/>
<text text-anchor="middle" x="347.3156" y="-328.5468" font-family="Times,serif" font-size="14.00" fill="#000000">lamda</text>
</g>
<!-- 18 -->
<g id="node10" class="node">
<title>18</title>
<ellipse fill="none" stroke="#000000" cx="1229.9127" cy="-284.3468" rx="20.8887" ry="20.8887"/>
<text text-anchor="middle" x="1229.9127" y="-280.1468" font-family="Times,serif" font-size="14.00" fill="#000000">18</text>
</g>
<!-- 6&#45;&gt;18 -->
<g id="edge10" class="edge">
<title>6&#45;&gt;18</title>
<path fill="none" stroke="#000000" d="M523.1911,-288.1694C544.1851,-297.3529 581.7233,-311.3468 615.5351,-311.3468 615.5351,-311.3468 615.5351,-311.3468 1118.3154,-311.3468 1147.0103,-311.3468 1178.721,-302.8094 1200.9826,-295.336"/>
<polygon fill="#000000" stroke="#000000" points="1202.2144,-298.6132 1210.5011,-292.0117 1199.9063,-292.0047 1202.2144,-298.6132"/>
<text text-anchor="middle" x="867.3179" y="-315.5468" font-family="Times,serif" font-size="14.00" fill="#000000">lamda</text>
</g>
<!-- 13 -->
<g id="node11" class="node">
<title>13</title>
<ellipse fill="none" stroke="#000000" cx="615.5351" cy="-262.3468" rx="20.8887" ry="20.8887"/>
<text text-anchor="middle" x="615.5351" y="-258.1468" font-family="Times,serif" font-size="14.00" fill="#000000">13</text>
</g>
<!-- 6&#45;&gt;13 -->
<g id="edge11" class="edge">
<title>6&#45;&gt;13</title>
<path fill="none" stroke="#000000" d="M524.6145,-277.3745C541.0016,-274.6659 565.5443,-270.6094 585.0018,-267.3935"/>
<polygon fill="#000000" stroke="#000000" points="585.6277,-270.8376 594.923,-265.7536 584.4861,-263.9313 585.6277,-270.8376"/>
<text text-anchor="middle" x="559.7364" y="-278.5468" font-family="Times,serif" font-size="14.00" fill="#000000">lamda</text>
</g>
<!-- 7 -->
<g id="node12" class="node">
<title>7</title>
<ellipse fill="none" stroke="#000000" cx="615.5351" cy="-101.3468" rx="18" ry="18"/>
<text text-anchor="middle" x="615.5351" y="-97.1468" font-family="Times,serif" font-size="14.00" fill="#000000">7</text>
</g>
<!-- 6&#45;&gt;7 -->
<g id="edge12" class="edge">
<title>6&#45;&gt;7</title>
<path fill="none" stroke="#000000" d="M516.1052,-264.7749C535.14,-233.4882 578.1427,-162.8068 600.8513,-125.4817"/>
<polygon fill="#000000" stroke="#000000" points="603.9529,-127.1176 606.1605,-116.7553 597.9727,-123.4792 603.9529,-127.1176"/>
<text text-anchor="middle" x="559.7364" y="-221.5468" font-family="Times,serif" font-size="14.00" fill="#000000">lamda</text>
</g>
<!-- 18&#45;&gt;19 -->
<g id="edge28" class="edge">
<title>18&#45;&gt;19</title>
<path fill="none" stroke="#000000" d="M1249.5222,-291.6412C1266.7934,-298.0657 1292.2993,-307.5535 1312.6787,-315.1342"/>
<polygon fill="#000000" stroke="#000000" points="1311.6199,-318.4746 1322.2128,-318.6807 1314.0605,-311.9138 1311.6199,-318.4746"/>
<text text-anchor="middle" x="1285.7113" y="-315.5468" font-family="Times,serif" font-size="14.00" fill="#000000">lamda</text>
</g>
<!-- 17 -->
<g id="node18" class="node">
<title>17</title>
<ellipse fill="none" stroke="#000000" cx="1034.7139" cy="-262.3468" rx="20.8887" ry="20.8887"/>
<text text-anchor="middle" x="1034.7139" y="-258.1468" font-family="Times,serif" font-size="14.00" fill="#000000">17</text>
</g>
<!-- 13&#45;&gt;17 -->
<g id="edge21" class="edge">
<title>13&#45;&gt;17</title>
<path fill="none" stroke="#000000" d="M636.5066,-263.5469C658.9297,-264.7252 695.5316,-266.3468 727.1324,-266.3468 727.1324,-266.3468 727.1324,-266.3468 923.1166,-266.3468 950.2735,-266.3468 981.1239,-265.1492 1003.4948,-264.0646"/>
<polygon fill="#000000" stroke="#000000" points="1003.9317,-267.5471 1013.7424,-263.5469 1003.5785,-260.556 1003.9317,-267.5471"/>
<text text-anchor="middle" x="811.5193" y="-270.5468" font-family="Times,serif" font-size="14.00" fill="#000000">lamda</text>
</g>
<!-- 14 -->
<g id="node19" class="node">
<title>14</title>
<ellipse fill="none" stroke="#000000" cx="727.1324" cy="-209.3468" rx="20.8887" ry="20.8887"/>
<text text-anchor="middle" x="727.1324" y="-205.1468" font-family="Times,serif" font-size="14.00" fill="#000000">14</text>
</g>
<!-- 13&#45;&gt;14 -->
<g id="edge22" class="edge">
<title>13&#45;&gt;14</title>
<path fill="none" stroke="#000000" d="M631.8883,-249.6093C638.5695,-244.7873 646.5271,-239.5112 654.2285,-235.5468 667.8552,-228.5324 683.7958,-222.5714 697.2903,-218.1158"/>
<polygon fill="#000000" stroke="#000000" points="698.5858,-221.3765 707.054,-215.0095 696.4635,-214.706 698.5858,-221.3765"/>
<text text-anchor="middle" x="671.3337" y="-240.5468" font-family="Times,serif" font-size="14.00" fill="#000000">lamda</text>
</g>
<!-- 11 -->
<g id="node13" class="node">
<title>11</title>
<ellipse fill="none" stroke="#000000" cx="1034.7139" cy="-101.3468" rx="20.8887" ry="20.8887"/>
<text text-anchor="middle" x="1034.7139" y="-97.1468" font-family="Times,serif" font-size="14.00" fill="#000000">11</text>
</g>
<!-- 7&#45;&gt;11 -->
<g id="edge13" class="edge">
<title>7&#45;&gt;11</title>
<path fill="none" stroke="#000000" d="M633.7048,-101.3468C655.7909,-101.3468 694.1957,-101.3468 727.1324,-101.3468 727.1324,-101.3468 727.1324,-101.3468 923.1166,-101.3468 950.2561,-101.3468 981.1081,-101.3468 1003.4841,-101.3468"/>
<polygon fill="#000000" stroke="#000000" points="1003.7344,-104.8469 1013.7343,-101.3468 1003.7343,-97.8469 1003.7344,-104.8469"/>
<text text-anchor="middle" x="811.5193" y="-105.5468" font-family="Times,serif" font-size="14.00" fill="#000000">lamda</text>
</g>
<!-- 8 -->
<g id="node14" class="node">
<title>8</title>
<ellipse fill="none" stroke="#000000" cx="727.1324" cy="-47.3468" rx="18" ry="18"/>
<text text-anchor="middle" x="727.1324" y="-43.1468" font-family="Times,serif" font-size="14.00" fill="#000000">8</text>
</g>
<!-- 7&#45;&gt;8 -->
<g id="edge14" class="edge">
<title>7&#45;&gt;8</title>
<path fill="none" stroke="#000000" d="M628.645,-88.9183C635.7662,-82.7046 644.9871,-75.4784 654.2285,-70.5468 668.3288,-63.0223 685.2806,-57.4458 699.2881,-53.6483"/>
<polygon fill="#000000" stroke="#000000" points="700.5043,-56.9503 709.3298,-51.0884 698.7751,-50.1672 700.5043,-56.9503"/>
<text text-anchor="middle" x="671.3337" y="-75.5468" font-family="Times,serif" font-size="14.00" fill="#000000">lamda</text>
</g>
<!-- 12 -->
<g id="node17" class="node">
<title>12</title>
<ellipse fill="none" stroke="#000000" cx="1118.3154" cy="-180.3468" rx="20.8887" ry="20.8887"/>
<text text-anchor="middle" x="1118.3154" y="-176.1468" font-family="Times,serif" font-size="14.00" fill="#000000">12</text>
</g>
<!-- 11&#45;&gt;12 -->
<g id="edge19" class="edge">
<title>11&#45;&gt;12</title>
<path fill="none" stroke="#000000" d="M1050.0477,-115.8366C1062.7751,-127.8636 1081.0638,-145.1456 1095.5089,-158.7956"/>
<polygon fill="#000000" stroke="#000000" points="1093.4066,-161.6245 1103.0788,-165.9489 1098.2144,-156.5367 1093.4066,-161.6245"/>
<text text-anchor="middle" x="1076.5146" y="-147.5468" font-family="Times,serif" font-size="14.00" fill="#000000">c</text>
</g>
<!-- 9 -->
<g id="node15" class="node">
<title>9</title>
<ellipse fill="none" stroke="#000000" cx="811.5193" cy="-47.3468" rx="18" ry="18"/>
<text text-anchor="middle" x="811.5193" y="-43.1468" font-family="Times,serif" font-size="14.00" fill="#000000">9</text>
</g>
<!-- 8&#45;&gt;9 -->
<g id="edge15" class="edge">
<title>8&#45;&gt;9</title>
<path fill="none" stroke="#000000" d="M745.4431,-47.3468C756.3907,-47.3468 770.5368,-47.3468 782.9295,-47.3468"/>
<polygon fill="#000000" stroke="#000000" points="783.2443,-50.8469 793.2443,-47.3468 783.2443,-43.8469 783.2443,-50.8469"/>
<text text-anchor="middle" x="769.3258" y="-51.5468" font-family="Times,serif" font-size="14.00" fill="#000000">a</text>
</g>
<!-- 10 -->
<g id="node16" class="node">
<title>10</title>
<ellipse fill="none" stroke="#000000" cx="923.1166" cy="-47.3468" rx="20.8887" ry="20.8887"/>
<text text-anchor="middle" x="923.1166" y="-43.1468" font-family="Times,serif" font-size="14.00" fill="#000000">10</text>
</g>
<!-- 9&#45;&gt;10 -->
<g id="edge16" class="edge">
<title>9&#45;&gt;10</title>
<path fill="none" stroke="#000000" d="M829.9473,-47.3468C846.8447,-47.3468 872.2042,-47.3468 892.2014,-47.3468"/>
<polygon fill="#000000" stroke="#000000" points="892.3835,-50.8469 902.3834,-47.3468 892.3834,-43.8469 892.3835,-50.8469"/>
<text text-anchor="middle" x="867.3179" y="-51.5468" font-family="Times,serif" font-size="14.00" fill="#000000">b</text>
</g>
<!-- 10&#45;&gt;11 -->
<g id="edge18" class="edge">
<title>10&#45;&gt;11</title>
<path fill="none" stroke="#000000" d="M943.3955,-51.6902C958.4791,-55.4135 979.2634,-61.6046 996.0204,-70.5468 1001.3584,-73.3953 1006.6895,-77.0095 1011.6131,-80.7518"/>
<polygon fill="#000000" stroke="#000000" points="1009.46,-83.5118 1019.4436,-87.0585 1013.8508,-78.0601 1009.46,-83.5118"/>
<text text-anchor="middle" x="978.9152" y="-75.5468" font-family="Times,serif" font-size="14.00" fill="#000000">lamda</text>
</g>
<!-- 10&#45;&gt;8 -->
<g id="edge17" class="edge">
<title>10&#45;&gt;8</title>
<path fill="none" stroke="#000000" d="M906.4737,-34.9263C881.46,-17.8302 832.6442,9.4442 790.8258,-3.5468 775.1503,-8.4165 759.914,-18.6314 748.2756,-27.9721"/>
<polygon fill="#000000" stroke="#000000" points="745.8801,-25.4136 740.4821,-34.5303 750.3871,-30.7697 745.8801,-25.4136"/>
<text text-anchor="middle" x="811.5193" y="-8.5468" font-family="Times,serif" font-size="14.00" fill="#000000">lamda</text>
</g>
<!-- 12&#45;&gt;18 -->
<g id="edge20" class="edge">
<title>12&#45;&gt;18</title>
<path fill="none" stroke="#000000" d="M1136.2121,-191.3012C1151.695,-201.25 1174.2066,-216.88 1191.2192,-233.5468 1198.9406,-241.1112 1206.3931,-250.2824 1212.6615,-258.7392"/>
<polygon fill="#000000" stroke="#000000" points="1209.8256,-260.7906 1218.5013,-266.872 1215.5116,-256.7077 1209.8256,-260.7906"/>
<text text-anchor="middle" x="1174.114" y="-238.5468" font-family="Times,serif" font-size="14.00" fill="#000000">lamda</text>
</g>
<!-- 17&#45;&gt;18 -->
<g id="edge27" class="edge">
<title>17&#45;&gt;18</title>
<path fill="none" stroke="#000000" d="M1055.6036,-264.7012C1090.0919,-268.5882 1159.1029,-276.3661 1199.1704,-280.882"/>
<polygon fill="#000000" stroke="#000000" points="1198.8441,-284.3673 1209.1732,-282.0094 1199.6281,-277.4113 1198.8441,-284.3673"/>
<text text-anchor="middle" x="1118.3154" y="-278.5468" font-family="Times,serif" font-size="14.00" fill="#000000">lamda</text>
</g>
<!-- 15 -->
<g id="node20" class="node">
<title>15</title>
<ellipse fill="none" stroke="#000000" cx="811.5193" cy="-209.3468" rx="20.8887" ry="20.8887"/>
<text text-anchor="middle" x="811.5193" y="-205.1468" font-family="Times,serif" font-size="14.00" fill="#000000">15</text>
</g>
<!-- 14&#45;&gt;15 -->
<g id="edge23" class="edge">
<title>14&#45;&gt;15</title>
<path fill="none" stroke="#000000" d="M747.992,-209.3468C757.7291,-209.3468 769.5232,-209.3468 780.2929,-209.3468"/>
<polygon fill="#000000" stroke="#000000" points="780.6071,-212.8469 790.6071,-209.3468 780.607,-205.8469 780.6071,-212.8469"/>
<text text-anchor="middle" x="769.3258" y="-213.5468" font-family="Times,serif" font-size="14.00" fill="#000000">b</text>
</g>
<!-- 16 -->
<g id="node21" class="node">
<title>16</title>
<ellipse fill="none" stroke="#000000" cx="923.1166" cy="-209.3468" rx="20.8887" ry="20.8887"/>
<text text-anchor="middle" x="923.1166" y="-205.1468" font-family="Times,serif" font-size="14.00" fill="#000000">16</text>
</g>
<!-- 15&#45;&gt;16 -->
<g id="edge24" class="edge">
<title>15&#45;&gt;16</title>
<path fill="none" stroke="#000000" d="M832.2483,-209.3468C849.0546,-209.3468 872.999,-209.3468 892.0895,-209.3468"/>
<polygon fill="#000000" stroke="#000000" points="892.1199,-212.8469 902.1198,-209.3468 892.1198,-205.8469 892.1199,-212.8469"/>
<text text-anchor="middle" x="867.3179" y="-213.5468" font-family="Times,serif" font-size="14.00" fill="#000000">a</text>
</g>
<!-- 16&#45;&gt;17 -->
<g id="edge26" class="edge">
<title>16&#45;&gt;17</title>
<path fill="none" stroke="#000000" d="M943.1949,-215.0095C958.1762,-219.6009 978.9203,-226.7444 996.0204,-235.5468 1000.7135,-237.9626 1005.5017,-240.8655 1010.0382,-243.8559"/>
<polygon fill="#000000" stroke="#000000" points="1008.1446,-246.8017 1018.3607,-249.6093 1012.1252,-241.0437 1008.1446,-246.8017"/>
<text text-anchor="middle" x="978.9152" y="-240.5468" font-family="Times,serif" font-size="14.00" fill="#000000">lamda</text>
</g>
<!-- 16&#45;&gt;14 -->
<g id="edge25" class="edge">
<title>16&#45;&gt;14</title>
<path fill="none" stroke="#000000" d="M906.9068,-196.4132C882.0473,-178.2145 832.9576,-148.7323 790.8258,-162.5468 775.5071,-167.5696 760.8341,-177.8388 749.4404,-187.4812"/>
<polygon fill="#000000" stroke="#000000" points="746.9098,-185.0478 741.7613,-194.3076 751.5605,-190.2795 746.9098,-185.0478"/>
<text text-anchor="middle" x="811.5193" y="-167.5468" font-family="Times,serif" font-size="14.00" fill="#000000">lamda</text>
</g>
</g>
</svg>
