<?xml version="1.0" encoding="UTF-8" standalone="no"?>
<!DOCTYPE svg PUBLIC "-//W3C//DTD SVG 1.1//EN"
 "http://www.w3.org/Graphics/SVG/1.1/DTD/svg11.dtd">
<!-- Generated by graphviz version 2.40.1 (20161225.0304)
 -->
<!-- Title: finite_state_machine Pages: 1 -->
<svg width="393pt" height="130pt"
 viewBox="0.00 0.00 393.21 130.32" xmlns="http://www.w3.org/2000/svg" xmlns:xlink="http://www.w3.org/1999/xlink">
<g id="graph0" class="graph" transform="scale(1 1) rotate(0) translate(4 126.3211)">
<title>finite_state_machine</title>
<polygon fill="#ffffff" stroke="transparent" points="-4,4 -4,-126.3211 389.2146,-126.3211 389.2146,4 -4,4"/>
<!-- 2 -->
<g id="node1" class="node">
<title>2</title>
<ellipse fill="none" stroke="#000000" cx="205.2146" cy="-57.3211" rx="18" ry="18"/>
<ellipse fill="none" stroke="#000000" cx="205.2146" cy="-57.3211" rx="22" ry="22"/>
<text text-anchor="middle" x="205.2146" y="-53.1211" font-family="Times,serif" font-size="14.00" fill="#000000">2</text>
</g>
<!-- 2&#45;&gt;2 -->
<g id="edge3" class="edge">
<title>2&#45;&gt;2</title>
<path fill="none" stroke="#000000" d="M197.5319,-78.3118C196.5834,-88.4083 199.1443,-97.3211 205.2146,-97.3211 209.1034,-97.3211 211.5519,-93.6633 212.5602,-88.3797"/>
<polygon fill="#000000" stroke="#000000" points="216.0606,-88.4234 212.8973,-78.3118 209.0645,-88.1891 216.0606,-88.4234"/>
<text text-anchor="middle" x="205.2146" y="-101.5211" font-family="Times,serif" font-size="14.00" fill="#000000">c</text>
</g>
<!-- 4 -->
<g id="node4" class="node">
<title>4</title>
<ellipse fill="none" stroke="#000000" cx="288.2146" cy="-104.3211" rx="18" ry="18"/>
<text text-anchor="middle" x="288.2146" y="-100.1211" font-family="Times,serif" font-size="14.00" fill="#000000">4</text>
</g>
<!-- 2&#45;&gt;4 -->
<g id="edge4" class="edge">
<title>2&#45;&gt;4</title>
<path fill="none" stroke="#000000" d="M219.1904,-74.3547C226.2394,-81.8742 235.3748,-90.1602 245.2146,-95.3211 249.7063,-97.6769 254.7659,-99.4161 259.7954,-100.7001"/>
<polygon fill="#000000" stroke="#000000" points="259.3887,-104.1888 269.8851,-102.7479 260.7812,-97.3287 259.3887,-104.1888"/>
<text text-anchor="middle" x="248.7146" y="-101.5211" font-family="Times,serif" font-size="14.00" fill="#000000">b</text>
</g>
<!-- 3 -->
<g id="node5" class="node">
<title>3</title>
<ellipse fill="none" stroke="#000000" cx="288.2146" cy="-47.3211" rx="18" ry="18"/>
<text text-anchor="middle" x="288.2146" y="-43.1211" font-family="Times,serif" font-size="14.00" fill="#000000">3</text>
</g>
<!-- 2&#45;&gt;3 -->
<g id="edge6" class="edge">
<title>2&#45;&gt;3</title>
<path fill="none" stroke="#000000" d="M224.539,-46.1522C230.9122,-43.0451 238.1751,-40.0929 245.2146,-38.5211 250.4715,-37.3473 256.1038,-37.4927 261.5034,-38.3182"/>
<polygon fill="#000000" stroke="#000000" points="260.9131,-41.7732 271.4401,-40.5759 262.4641,-34.9472 260.9131,-41.7732"/>
<text text-anchor="middle" x="248.7146" y="-43.5211" font-family="Times,serif" font-size="14.00" fill="#000000">a</text>
</g>
<g id="node2" class="node">
<title></title>
</g>
<!-- 1 -->
<g id="node3" class="node">
<title>1</title>
<ellipse fill="none" stroke="#000000" cx="109" cy="-57.3211" rx="18" ry="18"/>
<text text-anchor="middle" x="109" y="-53.1211" font-family="Times,serif" font-size="14.00" fill="#000000">1</text>
</g>
<!-- &#45;&gt;1 -->
<g id="edge1" class="edge">
<title>&#45;&gt;1</title>
<path fill="none" stroke="#000000" d="M54.3048,-57.3211C62.6909,-57.3211 71.9407,-57.3211 80.4103,-57.3211"/>
<polygon fill="#000000" stroke="#000000" points="80.5976,-60.8212 90.5976,-57.3211 80.5976,-53.8212 80.5976,-60.8212"/>
</g>
<!-- 1&#45;&gt;2 -->
<g id="edge2" class="edge">
<title>1&#45;&gt;2</title>
<path fill="none" stroke="#000000" d="M127.0972,-57.3211C140.0121,-57.3211 157.7313,-57.3211 173.0294,-57.3211"/>
<polygon fill="#000000" stroke="#000000" points="173.1448,-60.8212 183.1448,-57.3211 173.1448,-53.8212 173.1448,-60.8212"/>
<text text-anchor="middle" x="155.1073" y="-61.5211" font-family="Times,serif" font-size="14.00" fill="#000000">b, c</text>
</g>
<!-- 4&#45;&gt;2 -->
<g id="edge5" class="edge">
<title>4&#45;&gt;2</title>
<path fill="none" stroke="#000000" d="M275.0141,-91.536C268.5337,-85.7647 260.3769,-79.2068 252.2146,-74.5211 247.2223,-71.6552 241.6662,-69.1207 236.1725,-66.938"/>
<polygon fill="#000000" stroke="#000000" points="237.0803,-63.5432 226.4865,-63.3935 234.6747,-70.1169 237.0803,-63.5432"/>
<text text-anchor="middle" x="248.7146" y="-79.5211" font-family="Times,serif" font-size="14.00" fill="#000000">a</text>
</g>
<!-- 5 -->
<g id="node6" class="node">
<title>5</title>
<ellipse fill="none" stroke="#000000" cx="367.2146" cy="-27.3211" rx="18" ry="18"/>
<text text-anchor="middle" x="367.2146" y="-23.1211" font-family="Times,serif" font-size="14.00" fill="#000000">5</text>
</g>
<!-- 3&#45;&gt;5 -->
<g id="edge7" class="edge">
<title>3&#45;&gt;5</title>
<path fill="none" stroke="#000000" d="M306.4579,-48.1354C314.2021,-48.0562 323.2599,-47.3952 331.2146,-45.3211 334.9504,-44.347 338.7505,-42.955 342.4132,-41.3707"/>
<polygon fill="#000000" stroke="#000000" points="344.1837,-44.4018 351.6487,-36.8835 341.1246,-38.1056 344.1837,-44.4018"/>
<text text-anchor="middle" x="327.7146" y="-51.5211" font-family="Times,serif" font-size="14.00" fill="#000000">b</text>
</g>
<!-- 5&#45;&gt;2 -->
<g id="edge9" class="edge">
<title>5&#45;&gt;2</title>
<path fill="none" stroke="#000000" d="M351.4611,-17.869C332.0195,-7.4681 298.1114,6.5263 270.2146,-3.5211 253.5953,-9.5067 238.2107,-21.7905 226.5849,-33.1109"/>
<polygon fill="#000000" stroke="#000000" points="224.0072,-30.7407 219.5128,-40.3351 229.0094,-35.6376 224.0072,-30.7407"/>
<text text-anchor="middle" x="288.2146" y="-8.5211" font-family="Times,serif" font-size="14.00" fill="#000000">c</text>
</g>
<!-- 5&#45;&gt;3 -->
<g id="edge8" class="edge">
<title>5&#45;&gt;3</title>
<path fill="none" stroke="#000000" d="M349.3429,-23.4445C341.4982,-22.4314 332.2618,-22.1872 324.2146,-24.5211 319.6961,-25.8316 315.201,-27.898 310.9965,-30.2638"/>
<polygon fill="#000000" stroke="#000000" points="308.9283,-27.4309 302.3601,-35.7441 312.6789,-33.3414 308.9283,-27.4309"/>
<text text-anchor="middle" x="327.7146" y="-29.5211" font-family="Times,serif" font-size="14.00" fill="#000000">a</text>
</g>
</g>
</svg>
