<?xml version="1.0" encoding="UTF-8" standalone="no"?>
<!DOCTYPE svg PUBLIC "-//W3C//DTD SVG 1.1//EN"
 "http://www.w3.org/Graphics/SVG/1.1/DTD/svg11.dtd">
<!-- Generated by graphviz version 2.40.1 (20161225.0304)
 -->
<!-- Title: finite_state_machine Pages: 1 -->
<svg width="736pt" height="148pt"
 viewBox="0.00 0.00 735.95 147.82" xmlns="http://www.w3.org/2000/svg" xmlns:xlink="http://www.w3.org/1999/xlink">
<g id="graph0" class="graph" transform="scale(1 1) rotate(0) translate(4 143.8176)">
<title>finite_state_machine</title>
<polygon fill="#ffffff" stroke="transparent" points="-4,4 -4,-143.8176 731.9536,-143.8176 731.9536,4 -4,4"/>
<g id="node1" class="node">
<title></title>
</g>
<!-- q1 -->
<g id="node3" class="node">
<title>q1</title>
<ellipse fill="none" stroke="#000000" cx="111.6935" cy="-80.1242" rx="20.8887" ry="20.8887"/>
<text text-anchor="middle" x="111.6935" y="-75.9242" font-family="Times,serif" font-size="14.00" fill="#000000">q1</text>
</g>
<!-- &#45;&gt;q1 -->
<g id="edge1" class="edge">
<title>&#45;&gt;q1</title>
<path fill="none" stroke="#000000" d="M54.2637,-80.1242C62.7209,-80.1242 72.1012,-80.1242 80.7873,-80.1242"/>
<polygon fill="#000000" stroke="#000000" points="80.9294,-83.6243 90.9294,-80.1242 80.9293,-76.6243 80.9294,-83.6243"/>
</g>
<!-- q5 -->
<g id="node2" class="node">
<title>q5</title>
<ellipse fill="none" stroke="#000000" cx="451.6703" cy="-80.1242" rx="20.8568" ry="20.8568"/>
<ellipse fill="none" stroke="#000000" cx="451.6703" cy="-80.1242" rx="24.8884" ry="24.8884"/>
<text text-anchor="middle" x="451.6703" y="-75.9242" font-family="Times,serif" font-size="14.00" fill="#000000">q5</text>
</g>
<!-- q6 -->
<g id="node7" class="node">
<title>q6</title>
<ellipse fill="none" stroke="#000000" cx="539.2718" cy="-80.1242" rx="20.8887" ry="20.8887"/>
<text text-anchor="middle" x="539.2718" y="-75.9242" font-family="Times,serif" font-size="14.00" fill="#000000">q6</text>
</g>
<!-- q5&#45;&gt;q6 -->
<g id="edge8" class="edge">
<title>q5&#45;&gt;q6</title>
<path fill="none" stroke="#000000" d="M476.539,-80.1242C486.3752,-80.1242 497.7886,-80.1242 508.1625,-80.1242"/>
<polygon fill="#000000" stroke="#000000" points="508.4872,-83.6243 518.4872,-80.1242 508.4871,-76.6243 508.4872,-83.6243"/>
<text text-anchor="middle" x="497.471" y="-84.3242" font-family="Times,serif" font-size="14.00" fill="#000000">a</text>
</g>
<!-- q1&#45;&gt;q5 -->
<g id="edge3" class="edge">
<title>q1&#45;&gt;q5</title>
<path fill="none" stroke="#000000" d="M130.0304,-90.0748C146.5881,-98.1228 171.8759,-108.1242 195.295,-108.1242 195.295,-108.1242 195.295,-108.1242 363.2834,-108.1242 382.6118,-108.1242 403.2542,-101.9638 419.7255,-95.4222"/>
<polygon fill="#000000" stroke="#000000" points="421.5351,-98.4579 429.3932,-91.3515 418.8186,-92.0065 421.5351,-98.4579"/>
<text text-anchor="middle" x="278.8965" y="-112.3242" font-family="Times,serif" font-size="14.00" fill="#000000">b</text>
</g>
<!-- q2 -->
<g id="node4" class="node">
<title>q2</title>
<ellipse fill="none" stroke="#000000" cx="195.295" cy="-51.1242" rx="20.8887" ry="20.8887"/>
<text text-anchor="middle" x="195.295" y="-46.9242" font-family="Times,serif" font-size="14.00" fill="#000000">q2</text>
</g>
<!-- q1&#45;&gt;q2 -->
<g id="edge2" class="edge">
<title>q1&#45;&gt;q2</title>
<path fill="none" stroke="#000000" d="M131.5058,-73.2516C141.8133,-69.6761 154.6143,-65.2356 166.0378,-61.273"/>
<polygon fill="#000000" stroke="#000000" points="167.3241,-64.5315 175.6248,-57.9474 165.03,-57.918 167.3241,-64.5315"/>
<text text-anchor="middle" x="153.4942" y="-71.3242" font-family="Times,serif" font-size="14.00" fill="#000000">a</text>
</g>
<!-- q3 -->
<g id="node5" class="node">
<title>q3</title>
<ellipse fill="none" stroke="#000000" cx="278.8965" cy="-51.1242" rx="20.8887" ry="20.8887"/>
<text text-anchor="middle" x="278.8965" y="-46.9242" font-family="Times,serif" font-size="14.00" fill="#000000">q3</text>
</g>
<!-- q2&#45;&gt;q3 -->
<g id="edge4" class="edge">
<title>q2&#45;&gt;q3</title>
<path fill="none" stroke="#000000" d="M216.3911,-51.1242C225.9687,-51.1242 237.4864,-51.1242 248.0113,-51.1242"/>
<polygon fill="#000000" stroke="#000000" points="248.0967,-54.6243 258.0966,-51.1242 248.0966,-47.6243 248.0967,-54.6243"/>
<text text-anchor="middle" x="237.0957" y="-55.3242" font-family="Times,serif" font-size="14.00" fill="#000000">a</text>
</g>
<!-- q4 -->
<g id="node6" class="node">
<title>q4</title>
<ellipse fill="none" stroke="#000000" cx="363.2834" cy="-51.1242" rx="20.8887" ry="20.8887"/>
<text text-anchor="middle" x="363.2834" y="-46.9242" font-family="Times,serif" font-size="14.00" fill="#000000">q4</text>
</g>
<!-- q3&#45;&gt;q4 -->
<g id="edge5" class="edge">
<title>q3&#45;&gt;q4</title>
<path fill="none" stroke="#000000" d="M299.7562,-51.1242C309.4932,-51.1242 321.2873,-51.1242 332.057,-51.1242"/>
<polygon fill="#000000" stroke="#000000" points="332.3712,-54.6243 342.3712,-51.1242 332.3712,-47.6243 332.3712,-54.6243"/>
<text text-anchor="middle" x="321.0899" y="-55.3242" font-family="Times,serif" font-size="14.00" fill="#000000">b</text>
</g>
<!-- q4&#45;&gt;q5 -->
<g id="edge7" class="edge">
<title>q4&#45;&gt;q5</title>
<path fill="none" stroke="#000000" d="M383.3397,-57.7047C393.6855,-61.0992 406.5772,-65.329 418.3663,-69.197"/>
<polygon fill="#000000" stroke="#000000" points="417.3369,-72.5428 427.9297,-72.3348 419.5192,-65.8917 417.3369,-72.5428"/>
<text text-anchor="middle" x="405.4768" y="-70.3242" font-family="Times,serif" font-size="14.00" fill="#000000">b</text>
</g>
<!-- q4&#45;&gt;q2 -->
<g id="edge6" class="edge">
<title>q4&#45;&gt;q2</title>
<path fill="none" stroke="#000000" d="M348.6544,-36.0849C336.6664,-24.9103 318.6268,-10.5661 299.5899,-4.3242 282.1113,1.4068 275.6645,1.4587 258.203,-4.3242 243.0215,-9.3519 228.5252,-19.6215 217.2826,-29.2629"/>
<polygon fill="#000000" stroke="#000000" points="214.7939,-26.794 209.7079,-36.0883 219.4798,-31.9943 214.7939,-26.794"/>
<text text-anchor="middle" x="278.8965" y="-9.3242" font-family="Times,serif" font-size="14.00" fill="#000000">a</text>
</g>
<!-- q7 -->
<g id="node8" class="node">
<title>q7</title>
<ellipse fill="none" stroke="#000000" cx="623.6587" cy="-119.1242" rx="20.8887" ry="20.8887"/>
<text text-anchor="middle" x="623.6587" y="-114.9242" font-family="Times,serif" font-size="14.00" fill="#000000">q7</text>
</g>
<!-- q6&#45;&gt;q7 -->
<g id="edge9" class="edge">
<title>q6&#45;&gt;q7</title>
<path fill="none" stroke="#000000" d="M558.4205,-88.9739C569.3178,-94.0101 583.1734,-100.4136 595.3102,-106.0227"/>
<polygon fill="#000000" stroke="#000000" points="594.04,-109.2913 604.5858,-110.3095 596.9766,-102.9371 594.04,-109.2913"/>
<text text-anchor="middle" x="581.4652" y="-104.3242" font-family="Times,serif" font-size="14.00" fill="#000000">b</text>
</g>
<!-- q8 -->
<g id="node9" class="node">
<title>q8</title>
<ellipse fill="none" stroke="#000000" cx="707.2602" cy="-80.1242" rx="20.8887" ry="20.8887"/>
<text text-anchor="middle" x="707.2602" y="-75.9242" font-family="Times,serif" font-size="14.00" fill="#000000">q8</text>
</g>
<!-- q7&#45;&gt;q8 -->
<g id="edge10" class="edge">
<title>q7&#45;&gt;q8</title>
<path fill="none" stroke="#000000" d="M642.6292,-110.2745C653.425,-105.2382 667.1517,-98.8347 679.1755,-93.2256"/>
<polygon fill="#000000" stroke="#000000" points="680.782,-96.3384 688.3648,-88.9388 677.8227,-89.9947 680.782,-96.3384"/>
<text text-anchor="middle" x="665.4594" y="-104.3242" font-family="Times,serif" font-size="14.00" fill="#000000">a</text>
</g>
<!-- q8&#45;&gt;q6 -->
<g id="edge11" class="edge">
<title>q8&#45;&gt;q6</title>
<path fill="none" stroke="#000000" d="M686.6366,-76.916C674.3848,-75.173 658.5218,-73.1993 644.3521,-72.3242 625.9929,-71.1903 621.3253,-71.2041 602.9652,-72.3242 592.1234,-72.9855 580.301,-74.2746 569.8176,-75.6172"/>
<polygon fill="#000000" stroke="#000000" points="569.3103,-72.1538 559.8665,-76.9564 570.244,-79.0913 569.3103,-72.1538"/>
<text text-anchor="middle" x="623.6587" y="-77.3242" font-family="Times,serif" font-size="14.00" fill="#000000">a</text>
</g>
</g>
</svg>
